<?xml version="1.0" encoding="UTF-8" standalone="no"?>
<!-- Generator: Adobe Illustrator 27.0.0, SVG Export Plug-In . SVG Version: 6.00 Build 0)  -->

<svg
   version="1.1"
   id="Layer_1"
   x="0px"
   y="0px"
   viewBox="0 0 1200 1000"
   style="enable-background:new 0 0 1200 1000;"
   xml:space="preserve"
   sodipodi:docname="busylink_white.svg"
   inkscape:version="1.3.2 (091e20e, 2023-11-25)"
   xmlns:inkscape="http://www.inkscape.org/namespaces/inkscape"
   xmlns:sodipodi="http://sodipodi.sourceforge.net/DTD/sodipodi-0.dtd"
   xmlns="http://www.w3.org/2000/svg"
   xmlns:svg="http://www.w3.org/2000/svg"><defs
   id="defs164"><rect
   x="221.78505"
   y="5.9941906"
   width="961.06855"
   height="285.72308"
   id="rect3" /><rect
   x="249.75794"
   y="211.79473"
   width="623.39582"
   height="157.84702"
   id="rect2" />
	
	
	
	
	
	
	
	
	
	
</defs><sodipodi:namedview
   id="namedview164"
   pagecolor="#ffffff"
   bordercolor="#000000"
   borderopacity="0.25"
   inkscape:showpageshadow="2"
   inkscape:pageopacity="0.0"
   inkscape:pagecheckerboard="true"
   inkscape:deskcolor="#d1d1d1"
   inkscape:clip-to-page="true"
   inkscape:zoom="0.50048459"
   inkscape:cx="607.41131"
   inkscape:cy="460.55364"
   inkscape:window-width="1440"
   inkscape:window-height="762"
   inkscape:window-x="0"
   inkscape:window-y="25"
   inkscape:window-maximized="0"
   inkscape:current-layer="Layer_1" />
<style
   type="text/css"
   id="style1">
	.st0{fill:#00008B;}
	.st1{fill:#066C9D;}
	.st2{fill:#C7CBE0;}
	.st3{fill:#C9CCE1;}
	.st4{fill:#4B5B73;}
	.st5{fill:#C8CCE1;}
	.st6{fill:#00D6D6;}
	.st7{fill:#E1E6EF;}
	.st8{fill:#FEFEFE;}
	.st9{fill:#E55373;}
	.st10{fill:#7ADF61;}
	.st11{fill:#E65372;}
	.st12{fill:#EDCB72;}
	.st13{fill:#7ADC60;}
	.st14{fill:#4B5B74;}
	.st15{fill:#DDE4F2;}
	.st16{fill:#5AB1F7;}
	.st17{fill:#5AB2F6;}
	.st18{fill:#5AB1F5;}
	.st19{fill:#57647E;}
	.st20{fill:#53617A;}
	.st21{fill:#55627B;}
	.st22{fill:#56637C;}
	.st23{fill:#D65777;}
	.st24{fill:#EECB75;}
	.st25{fill:#D95876;}
	.st26{fill:#F2CA6F;}
	.st27{fill:#E9516F;}
	.st28{fill:#77E15C;}
	.st29{fill:#EA5271;}
	.st30{fill:#78E35E;}
	.st31{fill:#C7D4FD;}
	.st32{fill:#E65574;}
	.st33{fill:#F5CD75;}
	.st34{fill:#F3CC76;}
	.st35{fill:#58B1F9;}
	.st36{fill:#58B1F8;}
	.st37{fill:#58B2F9;}
	.st38{fill:#57B1F8;}
	.st39{fill:#DB5873;}
	.st40{fill:#7ADB67;}
	.st41{fill:#ECC974;}
	.st42{fill:#78DD63;}
	.st43{fill:#D35575;}
	.st44{fill:#78DD67;}
	.st45{fill:#57B2F9;}
	.st46{fill:#56B2F9;}
	.st47{fill:#58B2F8;}
	.st48{fill:#57B1F9;}
	.st49{fill:#DD5573;}
	.st50{fill:#7ADB66;}
	.st51{fill:#DE5473;}
	.st52{fill:#ECCA72;}
	.st53{fill:#79DC67;}
	.st54{fill:#79DC65;}
	.st55{fill:#7EDD5F;}
	.st56{fill:#69AAD4;}
	.st57{fill:#57B2F8;}
	.st58{fill:#DC5574;}
	.st59{fill:#EDCA79;}
	.st60{fill:#7BDB64;}
	.st61{fill:#C3B28F;}
	.st62{fill:#D35670;}
	.st63{fill:#59B1F8;}
	.st64{fill:#57B1FA;}
	.st65{fill:#79DA64;}
	.st66{fill:#DB5572;}
	.st67{fill:#E9CB77;}
	.st68{fill:#EBC879;}
	.st69{fill:#79DA67;}
	.st70{fill:#E8C778;}
	.st71{fill:#D95574;}
	.st72{fill:#59B1F9;}
	.st73{fill:#C85673;}
	.st74{fill:#79DA68;}
	.st75{fill:#ECCA73;}
	.st76{fill:#FFFFFF;}
</style>
<path
   class="st1"
   d="m 214.46,98.39261 c -1.1,-0.39 -1.46,-1.18 -1.55,-2.3 -0.22,-2.63 0.84,-5.28 -0.25,-7.9 -0.24,-0.59 0.26,-1.36 0.94,-1.65 0.55,-0.23 1.48,-0.22 1.11,-1.07 -0.35,-0.79 -0.33,-2.09 -1.75,-2.02 1.06,-0.72 2.32,-2.09 3.31,-1.63 0.93,0.43 0.33,2.26 0.33,3.46 0.02,17.19 0.02,34.37 -0.03,51.56 -0.02,7.28 -0.17,14.56 -0.26,21.83 -3.5,0.81 -6.38,2.92 -9.4,4.68 -1.55,0.91 -3.12,1.78 -4.68,2.68 -0.52,0.3 -1.14,0.68 -1.54,-0.21 0.09,-3.74 0.75,-7.43 0.9,-11.16 0.13,-3.3 0.07,-6.59 -0.29,-9.87 -0.09,-0.87 -0.22,-1.73 0.02,-2.59 1.69,-2.18 4.3,-3.04 6.54,-4.4 2.16,-1.31 4.39,-2.52 6.63,-3.72 1.72,-0.92 1.76,-2.33 0.15,-3.57 -0.74,-0.28 -1.67,-0.36 -1.68,-1.45 -0.01,-0.94 0.62,-1.52 1.38,-1.82 1.23,-0.47 1.41,-1.37 1.4,-2.52 -0.04,-4.42 -0.05,-8.83 0.01,-13.25 0.02,-1.46 -0.98,-2.9 -0.07,-4.37 0.06,-0.48 0.06,-0.97 0.09,-1.46 0.16,-1.31 -0.09,-2.5 -0.99,-3.5 -1.88,-1.9 -1.9,-2.08 -0.32,-3.75 0.72,-0.13 1.06,0.27 1.27,0.75 0.43,-3.31 0.09,-6.8 -0.09,-10.31 -0.38,0.8 -0.39,1.65 -0.11,2.45 0.56,1.58 0.34,3.2 0.4,4.81 0.03,1.13 -0.37,1.95 -1.47,2.3 z"
   id="path12" /><path
   class="st1"
   d="m 201.07,125.76261 c 4.23,-2.4 8.49,-4.74 12.67,-7.23 0.94,-0.56 1.69,-0.53 2.58,-0.25 0.18,1.01 0.32,2.01 0.02,3.02 -3.44,1.57 -6.57,3.7 -9.87,5.53 -1.68,0.93 -3.31,1.96 -4.96,2.96 -0.76,0.46 -0.98,0.11 -0.99,-0.61 -0.61,-1.27 -0.35,-2.39 0.55,-3.42 z"
   id="path13" /><path
   class="st2"
   d="m 211.39,124.63261 c 0,1.99 0.01,3.98 0,5.96 -0.02,2.34 -0.93,2.83 -2.99,1.63 -0.22,-0.12 -0.45,-0.23 -0.64,-0.38 -0.68,-0.54 -1.89,-0.69 -1.6,-1.97 0.24,-1.08 1.03,-1.21 2.01,-1.06 0.68,0.11 0.6,-0.52 0.57,-0.91 -0.22,-2.73 -0.22,-5.45 0.02,-8.18 0.08,-0.95 -0.61,-1.28 -1.28,-1.61 -0.9,-0.45 -1.73,-1.07 -1.16,-2.15 0.61,-1.16 1.49,-0.7 2.52,-0.27 2.08,0.88 2.9,2.21 2.61,4.46 -0.21,1.47 -0.05,2.98 -0.06,4.48 0.01,0 0,0 0,0 z"
   id="path14" /><path
   class="st1"
   d="m 201.36,126.06261 c 4.55,-2.72 9.03,-5.56 13.82,-7.84 1.55,1.13 1.61,3.19 0.06,4.07 -4.47,2.54 -8.97,5.05 -13.45,7.56 -0.15,-1.26 -0.29,-2.52 -0.43,-3.79 z"
   id="path15" /><path
   class="st3"
   d="m 211.39,124.62261 c 0,2.12 0.03,4.24 -0.01,6.35 -0.03,1.74 -0.92,2.24 -2.49,1.44 -0.61,-0.31 -1.2,-0.66 -1.81,-0.95 -0.7,-0.33 -1.11,-0.83 -0.94,-1.62 0.17,-0.79 0.82,-1.18 1.51,-1.07 0.78,0.13 0.94,0.01 0.93,-0.78 0,-2.55 0.05,-5.1 0.18,-7.65 0.05,-1.07 -0.25,-1.78 -1.28,-2.19 -1.02,-0.41 -1.84,-1.13 -1.13,-2.26 0.59,-0.94 1.45,-0.6 2.44,-0.19 2.09,0.87 2.94,2.18 2.64,4.44 -0.19,1.47 -0.03,2.99 -0.04,4.48 z"
   id="path16" /><path
   class="st4"
   d="m 214.43,129.17261 c 1.69,-2.07 1.34,-4.22 0.75,-6.31 -0.49,-1.74 -0.73,-3.34 0.94,-5.1 0,4.42 0,8.47 0,12.56 -0.78,0.04 -0.97,-0.99 -1.69,-1.15 z"
   id="path17" /><path
   class="st4"
   d="m 216.27,123.83261 c -0.58,-0.04 -1.16,0.07 -1.45,0.59 -0.97,1.8 -2.59,1.38 -4.13,1.28 1.75,-1.33 3.63,-2.44 5.58,-3.44 0,0.53 0,1.05 0,1.57 z"
   id="path18" /><path
   class="st5"
   d="m 211.4,124.67261 c 0,2.12 0.04,4.24 -0.01,6.36 -0.04,1.71 -1.09,2.25 -2.58,1.41 -0.43,-0.24 -0.9,-0.44 -1.3,-0.73 -0.63,-0.45 -1.55,-0.7 -1.36,-1.77 0.17,-1.02 0.87,-1.23 1.77,-1.17 0.84,0.06 0.62,-0.61 0.64,-1.05 0.08,-2.37 0.08,-4.73 0.21,-7.1 0.07,-1.26 -0.19,-2.18 -1.48,-2.64 -0.95,-0.35 -1.51,-1.1 -0.98,-2.04 0.55,-0.97 1.38,-0.8 2.4,-0.35 2.09,0.92 3.08,2.22 2.73,4.59 -0.22,1.48 -0.05,3 -0.04,4.49 z"
   id="path19" /><g
   id="g163"
   transform="translate(-214,-375.95739)">
		<path
   class="st6"
   d="m 256.92,567.9 c -0.7,-0.41 -1.41,-0.82 -2.12,-1.21 0.71,0.41 1.43,0.82 2.12,1.22 6.68,3.86 13.36,7.72 20.04,11.57 -6.68,-3.85 -13.36,-7.7 -20.04,-11.58 z m 93.05,-57.23 c 0,-1.07 0.07,-2.12 -0.32,-3.16 -0.1,-0.24 -0.25,-0.44 -0.41,-0.61 l -0.07,-0.07 c -0.37,-0.37 -0.85,-0.63 -1.29,-0.92 -4.96,-3.13 -10.15,-5.86 -15.18,-8.86 -6.82,-4.03 -13.7,-7.92 -20.55,-11.9 -7.04,-4.11 -14.14,-8.12 -21.21,-12.22 -6.24,-3.64 -12.56,-7.16 -18.76,-10.86 -6.32,-3.76 -12.76,-7.29 -19.1,-11.01 -3.5,-2.06 -7,-4.08 -10.55,-6.03 -0.53,-0.29 -1.02,-0.76 -1.72,-0.53 -0.59,0.65 -0.31,1.44 -0.31,2.14 -0.02,37.24 -0.03,74.48 -0.05,111.72 l 5.13,2.96 c 0.02,-0.02 0.05,-0.02 0.08,-0.02 0.29,0.19 0.58,0.39 0.88,0.58 l 63.55,36.61 9.76,5.63 24.58,14.16 4.47,-2.58 0.73,-0.41 c 0.05,-13.97 0.15,-27.96 0.31,-41.93 0.24,-20.89 0.03,-41.8 0.03,-62.69 z m -93.05,57.23 c -0.7,-0.41 -1.41,-0.82 -2.12,-1.21 0.71,0.41 1.43,0.82 2.12,1.22 6.68,3.86 13.36,7.72 20.04,11.57 -6.68,-3.85 -13.36,-7.7 -20.04,-11.58 z"
   id="path20" />
		<path
   class="st6"
   d="m 457.34,533.94 c 0.08,3.88 0.1,7.75 0,11.63 v 7.55 l -5.3,3.06 -0.59,0.34 c 0,-0.08 -0.02,-0.19 -0.02,-0.27 0.25,-1.22 0.29,-2.46 0.31,-3.71 0.03,-6.59 -0.12,-13.17 0.08,-19.75 0,-0.02 0,-0.03 0.02,-0.05 v -0.02 c 0.03,-0.15 0.05,-0.31 0.07,-0.46 0.08,-0.88 -0.07,-1.77 -0.1,-2.65 -0.02,-0.1 -0.02,-0.19 -0.02,-0.29 v -0.15 c 0.25,-2.92 -0.15,-5.85 -0.07,-8.77 0.15,-5.37 0.26,-10.71 0.32,-16.08 0,-0.02 0,-0.02 0,-0.02 0.02,-0.76 0.03,-1.55 0.03,-2.31 0.02,-1.29 0.03,-2.58 0.03,-3.89 0.07,-5.93 0.09,-11.86 0.05,-17.81 v -0.02 c 0,-0.75 0,-1.48 -0.02,-2.21 0.02,-0.08 0.02,-0.17 0,-0.25 0.02,-0.03 0.02,-0.05 0,-0.08 0.02,-0.44 0,-0.88 0,-1.33 v -2.55 c 0,-5.98 0.08,-11.97 -0.03,-17.95 -0.07,-2.5 -0.1,-2.7 -2.07,-1.75 -0.14,0.07 -0.27,0.14 -0.42,0.2 -0.02,0.02 -0.05,0.02 -0.07,0.03 -0.56,0.39 -1.19,0.68 -1.77,1.02 -2.04,1.19 -2.06,1.19 -0.49,2.89 0.54,0.61 0.65,1.34 0.65,2.09 0.03,3.93 0.07,7.84 -0.02,11.76 -0.05,2.4 -1.53,3.2 -3.64,2.06 -0.54,-0.29 -1.09,-0.59 -1.56,-1 -1.31,-1.1 -1.24,-2.57 0.31,-3.25 0.97,-0.42 1.1,-0.92 1.02,-1.84 -0.17,-1.8 -0.17,-3.6 0.15,-5.4 0.22,-1.1 0.1,-2.04 -0.99,-2.75 -1.14,-0.75 -2.09,-0.73 -3.26,-0.03 -3.48,2.06 -6.99,4.06 -10.49,6.08 -0.07,0.03 -0.14,0.07 -0.2,0.1 -0.12,0.08 -0.24,0.15 -0.36,0.2 -0.83,0.48 -1.65,0.97 -2.5,1.39 -0.02,0.02 -0.03,0.02 -0.05,0.03 h -0.02 c -0.08,0.05 -0.14,0.09 -0.22,0.14 -0.87,0.53 -1.75,1.04 -2.6,1.61 -0.03,0.02 -0.05,0.03 -0.09,0.05 -2.82,1.53 -5.56,3.2 -8.33,4.84 -0.03,0.02 -0.05,0.03 -0.08,0.05 -0.07,0.03 -0.14,0.07 -0.2,0.12 -4.37,2.4 -8.65,4.95 -12.88,7.56 -0.02,0 -0.02,0.02 -0.03,0.02 -0.08,0.03 -0.19,0.07 -0.27,0.1 -0.92,0.34 -1.75,0.87 -2.58,1.38 -0.03,0.02 -0.08,0.05 -0.12,0.07 -0.03,0.02 -0.05,0.03 -0.08,0.05 -0.85,0.51 -1.73,1 -2.57,1.55 -0.02,0 -0.02,0.02 -0.03,0.02 -0.03,0.02 -0.07,0.03 -0.1,0.07 -2.8,1.63 -5.63,3.23 -8.41,4.91 -0.1,0.05 -0.2,0.12 -0.31,0.17 -0.02,0.02 -0.05,0.03 -0.07,0.05 -4.28,2.4 -8.46,4.96 -12.73,7.39 h -0.02 c -0.12,0.05 -0.24,0.12 -0.36,0.19 -0.97,0.42 -1.85,0.99 -2.74,1.53 -0.07,0.03 -0.14,0.09 -0.2,0.12 -0.03,0.02 -0.05,0.03 -0.08,0.05 -0.83,0.44 -1.58,1.02 -2.36,1.53 -0.02,0.02 -0.02,0.03 -0.03,0.03 -0.02,0 -0.02,0.02 -0.03,0.02 -2.92,1.5 -5.68,3.25 -8.5,4.88 -0.1,0.07 -0.2,0.12 -0.32,0.19 -0.2,0.12 -0.42,0.25 -0.65,0.37 -0.37,0.22 -0.75,0.44 -1.12,0.68 -1.85,1.1 -1.87,1.1 -0.39,2.55 0.66,0.65 0.7,1.44 0.7,2.26 0.02,3.86 0.05,7.72 0,11.57 -0.05,2.46 -0.93,3.11 -3.28,2.41 -0.88,-0.27 -1.16,0.02 -1.17,0.82 -0.02,0.88 -0.03,1.73 -0.03,2.62 v 0.02 c -0.02,0.87 -0.02,1.75 0,2.62 0,0.8 0.02,1.6 0.03,2.4 0.03,1.04 0.68,1.6 1.53,1.92 2.36,0.95 3.13,2.65 2.99,5.17 -0.2,3.23 -0.03,6.48 -0.07,9.72 -0.03,2.82 -0.73,3.38 -3.47,2.79 -0.66,-0.14 -0.95,0.02 -0.99,0.66 -0.03,0.66 -0.03,1.34 -0.02,2.02 v 0.27 c 0,0.1 0.02,0.22 0.02,0.32 v 2.89 c -0.02,0.08 -0.02,0.17 -0.02,0.25 v 0.02 c -0.02,0.48 0.05,0.93 0,1.39 -0.1,1.29 0.42,2.16 1.63,2.6 2.24,0.83 3.03,2.41 2.91,4.79 -0.17,3.3 0,6.59 -0.05,9.89 -0.05,2.7 -0.78,3.35 -3.38,2.96 -0.75,-0.1 -1.05,0.05 -1.09,0.78 -0.02,0.59 -0.03,1.19 -0.02,1.78 v 0.32 c 0.03,0.95 0.02,1.89 0.02,2.84 -0.02,0.2 -0.02,0.37 -0.02,0.58 v 0.02 c 0,0.36 0.03,0.73 -0.02,1.09 -0.17,1.55 0.37,2.62 1.9,3.18 1.94,0.7 2.72,2.09 2.63,4.18 -0.14,3.48 0,6.97 -0.05,10.45 -0.03,2.62 -0.73,3.11 -3.26,2.84 -2.16,-0.22 -0.87,1.31 -0.95,2.12 0.03,0.08 0.05,0.17 0.05,0.25 v 0.02 c 0,0.02 0.02,0.03 0,0.05 h -0.1 c -0.05,-0.05 -0.12,-0.1 -0.19,-0.19 l -4.4,2.55 -0.73,0.41 c 0,-12 0.05,-24 0.19,-36 0.27,-23.37 0.05,-46.76 0.27,-70.13 0,-0.87 0.12,-1.75 -0.37,-2.55 l 0.19,-0.19 c 1.55,-1.55 3.47,-2.53 5.37,-3.52 5.03,-2.65 9.79,-5.71 14.72,-8.52 8.67,-4.93 17.3,-9.89 25.89,-14.96 5.76,-3.38 11.52,-6.73 17.27,-10.11 6.71,-3.93 13.53,-7.7 20.21,-11.71 7.63,-4.57 15.45,-8.87 23.05,-13.55 0.25,-0.15 0.48,-0.37 0.76,-0.41 0.12,-0.05 0.25,-0.03 0.41,0.02 0.17,0.15 0.27,0.34 0.34,0.54 0.29,5.59 0.24,11.17 0.15,16.74 0.02,5.34 0.03,10.69 0,16.03 0.08,4.01 0.1,8.01 0,12 0.02,5.54 0.02,11.08 0.02,16.62 0.07,4.11 0.03,8.21 -0.02,12.32 -0.01,5.25 0,10.45 -0.03,15.65 z"
   id="path21" />
		<path
   class="st7"
   d="m 456.44,444.08 c -0.7,1.46 -2.22,1.91 -3.45,2.64 -6.29,3.75 -12.65,7.38 -18.97,11.06 -5.67,3.31 -11.26,6.75 -17,9.92 -6.74,3.7 -13.29,7.73 -19.95,11.54 -5.54,3.17 -10.92,6.59 -16.5,9.67 -7.87,4.34 -15.51,9.07 -23.32,13.49 -2.74,1.54 -5.35,3.37 -8.27,4.61 -7.1,-4.34 -14.42,-8.33 -21.59,-12.56 -5.46,-3.21 -10.99,-6.29 -16.47,-9.49 -5.67,-3.31 -11.45,-6.42 -17.03,-9.89 -4.48,-2.79 -9.17,-5.23 -13.75,-7.86 -5.16,-2.96 -10.31,-5.95 -15.48,-8.93 -7.53,-4.33 -15.07,-8.66 -22.59,-12.99 -0.43,-0.25 -0.84,-0.53 -1.27,-0.79 1.68,-1.72 3.93,-2.52 5.95,-3.71 10.28,-6.03 20.59,-12 30.9,-17.99 7.86,-4.58 15.71,-9.17 23.58,-13.74 12.15,-7.07 24.27,-14.18 36.49,-21.14 3.29,-1.87 6.46,-3.96 9.76,-5.81 0.81,-0.46 1.35,-0.56 2.2,-0.06 11.3,6.61 22.58,13.26 33.96,19.72 4.79,2.72 9.61,5.38 14.3,8.25 0.01,0.07 0.15,0.16 0.51,0.31 0.29,0.19 0.54,0.31 0.74,0.36 1.77,0.87 5.74,2.96 6.37,3.41 7.11,4.01 14.15,8.15 21.22,12.23 7.89,4.54 15.75,9.14 23.66,13.63 1.63,0.92 3.28,1.81 4.82,2.86 0.48,0.31 1.2,0.46 1.18,1.26 z"
   id="path22" />
		<path
   class="st8"
   d="m 310.1,598.49 -63.55,-36.61 c -0.31,-0.19 -0.59,-0.39 -0.88,-0.58 1.58,0.24 2.84,1.22 4.16,1.99 17.56,10.11 35.05,20.33 52.62,30.37 1.99,1.14 3.94,2.38 6.02,3.4 0.66,0.33 1.27,0.77 1.63,1.43 z"
   id="path23" />
		<path
   class="st6"
   d="m 246.33,526.91 c -0.97,-0.36 -1.41,-0.93 -1.4,-2.08 0.06,-7.43 0.04,-14.87 0.05,-22.3 0.6,-1.13 1.38,-0.54 2.05,-0.15 6.16,3.66 12.4,7.18 18.61,10.76 6.26,3.61 12.54,7.2 18.76,10.87 5.15,3.04 10.38,5.95 15.51,9.02 4.49,2.68 9.13,5.11 13.63,7.78 5.04,2.98 10.18,5.79 15.21,8.79 4.6,2.75 9.3,5.32 13.93,8.02 1.39,0.82 2.06,1.72 2.03,3.4 -0.08,6.86 -0.03,13.72 -0.04,20.58 0,2.23 -0.53,2.56 -2.49,1.37 -2.08,-1.26 -4.24,-2.38 -6.32,-3.65 -5.74,-3.51 -11.71,-6.62 -17.5,-10.06 -6.86,-4.07 -13.8,-8 -20.69,-12.01 -7.16,-4.17 -14.41,-8.2 -21.54,-12.42 -9.44,-5.59 -19.07,-10.84 -28.46,-16.51 -0.61,-0.36 -0.94,-0.89 -1.34,-1.41 z"
   id="path24" />
		<path
   class="st6"
   d="m 245.29,554.55 c -0.43,-0.53 -0.37,-1.16 -0.37,-1.78 0.02,-7.39 0.04,-14.78 0.06,-22.17 0.71,-1.23 1.52,-0.45 2.2,-0.04 4.37,2.64 8.88,5.05 13.26,7.67 5.76,3.46 11.68,6.64 17.45,10.09 6.73,4.02 13.56,7.89 20.37,11.78 9.46,5.4 18.87,10.9 28.3,16.34 5.44,3.14 10.91,6.24 16.33,9.42 0.6,0.35 1.16,0.72 1.61,1.25 v 0 c 0.32,0.58 0.17,1.22 0.17,1.83 0.01,7.38 0.01,14.76 0.01,22.14 -0.83,1.24 -1.67,0.3 -2.37,-0.09 -5.24,-2.89 -10.38,-5.94 -15.56,-8.94 -16.17,-9.38 -32.37,-18.69 -48.55,-28.04 -10.14,-5.86 -20.28,-11.73 -30.43,-17.56 -0.91,-0.52 -2,-0.83 -2.48,-1.9 z"
   id="path25" />
		<path
   class="st6"
   d="m 246.32,498.85 c -1.6,-0.32 -1.43,-1.52 -1.34,-2.68 0.3,-4.67 0.06,-9.34 0.13,-14.01 0.03,-2.24 -0.01,-4.49 0.01,-6.74 0.01,-1.71 0.34,-1.93 1.82,-1.09 3.04,1.72 6.08,3.43 9.08,5.22 7.34,4.36 14.82,8.49 22.18,12.81 9.14,5.37 18.34,10.61 27.52,15.9 9.23,5.32 18.42,10.72 27.69,15.96 3.31,1.87 6.61,3.76 9.82,5.8 1.07,0.68 1.47,1.5 1.46,2.77 -0.05,6.98 -0.02,13.97 -0.03,20.96 0,2.02 -0.41,2.27 -2.15,1.3 -9.69,-5.41 -19.2,-11.12 -28.86,-16.58 -6.62,-3.74 -13.2,-7.56 -19.76,-11.39 -6.72,-3.93 -13.5,-7.78 -20.22,-11.71 -4.25,-2.48 -8.49,-4.98 -12.79,-7.38 -4.29,-2.4 -8.56,-4.86 -12.79,-7.38 -0.74,-0.45 -1.38,-0.98 -1.77,-1.76 z"
   id="path26" />
		<path
   class="st6"
   d="m 344.43,618.28 -24.58,-14.16 c 0.53,-0.05 1.02,0.15 1.51,0.44 7.38,4.27 14.72,8.62 22.15,12.82 0.38,0.22 0.73,0.47 0.92,0.9 z"
   id="path27" />
		<path
   class="st6"
   d="m 339.64,506.71 c 1.69,0.85 3.35,1.75 4.88,2.88 0.34,5.6 0.05,11.2 0.16,16.8 0.02,1.24 -0.72,1.14 -1.49,0.85 -2,-0.75 -3.72,-2.01 -5.57,-3.04 -6.7,-3.72 -13.31,-7.59 -19.93,-11.46 -6.78,-3.96 -13.62,-7.81 -20.37,-11.81 -5.89,-3.49 -11.89,-6.82 -17.81,-10.27 -5.06,-2.95 -10.17,-5.82 -15.21,-8.8 -5.36,-3.16 -10.8,-6.22 -16.14,-9.41 -0.62,-0.37 -1.43,-0.54 -1.61,-1.42 -1.19,-0.57 -1.62,-1.42 -1.59,-2.81 0.1,-4.86 0.07,-9.72 0.02,-14.58 -0.01,-1.32 0.33,-1.57 1.45,-0.87 1.37,0.86 2.78,1.66 4.18,2.48 0.83,0.67 1.25,1.5 1.18,2.59 -0.06,0.98 0.43,1.6 1.29,2.07 5.72,3.18 11.32,6.56 17.02,9.8 4.98,2.83 9.9,5.78 14.91,8.55 0.22,0.12 0.42,0.27 0.73,0.25 0.8,-0.53 -0.33,-2.11 1.18,-2.29 4.41,2.53 8.83,5.06 13.25,7.58 0.56,0.32 1.06,0.65 1.14,1.35 0,2.69 1.63,4 3.98,4.73 0.45,-0.79 -0.11,-1.82 0.73,-2.43 1.43,0.26 2.48,1.24 3.67,1.96 0.08,0.09 0.15,0.2 0.21,0.31 0.41,0.75 0.22,1.59 0.35,2.38 0.14,0.83 0.72,1.28 1.4,1.64 0.72,0.38 1.43,0.77 2.03,1.33 0.48,-0.9 -0.71,-2.5 1.18,-2.8 1.07,0.67 2.25,1.14 3.18,2.03 0.42,0.53 0.39,1.17 0.39,1.79 -0.01,0.94 0.3,1.64 1.12,2.2 2.01,1.37 2.11,1.37 3.03,-0.79 0.1,-0.24 0.32,-0.37 0.57,-0.42 1.05,0.6 2.09,1.21 3.14,1.81 0.07,0.24 0.18,0.49 0.17,0.71 -0.17,2.82 1.73,3.94 3.95,4.85 0.48,-0.84 -0.27,-2.02 0.75,-2.69 1.26,0.71 2.64,1.24 3.68,2.3 0.19,0.32 0.42,0.66 0.37,1.03 -0.27,1.96 0.9,2.87 2.44,3.67 1.01,0.52 1.58,0.76 1.56,-0.72 -0.04,-0.47 -0.02,-0.98 0.43,-1.33 z"
   id="path28" />
		<path
   class="st1"
   d="m 246.53,471.05 c 7.27,4.18 14.55,8.33 21.79,12.53 6.49,3.77 12.92,7.66 19.43,11.39 9.91,5.68 19.79,11.42 29.68,17.14 8.16,4.72 16.39,9.34 24.5,14.15 0.05,0.03 0.11,0.06 0.16,0.09 2.26,1.22 2.38,1.15 2.39,-1.41 0.01,-5.11 0.02,-10.23 0.04,-15.34 0.57,0.5 0.32,1.17 0.32,1.76 0,15.41 -0.03,30.81 -0.04,46.22 0,6.92 -0.01,13.85 0.05,20.77 0.02,2.93 -0.17,5.85 -0.35,8.77 -3.31,-1.29 -6.18,-3.4 -9.25,-5.11 -7.59,-4.21 -15.03,-8.68 -22.54,-13.03 -6.76,-3.92 -13.55,-7.79 -20.31,-11.71 -7.84,-4.54 -15.65,-9.12 -23.48,-13.66 -7.41,-4.29 -14.82,-8.57 -22.24,-12.85 -0.54,-0.31 -1.08,-0.68 -1.69,-0.15 -0.16,-1.18 -0.26,-2.33 1.13,-2.91 0.36,-0.15 0.29,-0.48 0.22,-0.79 5.93,3.47 11.87,6.94 17.81,10.4 4.45,2.59 8.91,5.18 13.38,7.75 5.21,3 10.46,5.94 15.66,8.96 4.68,2.71 9.3,5.52 13.98,8.21 6.61,3.81 13.27,7.54 19.89,11.34 4.79,2.75 9.55,5.57 14.32,8.37 0.48,0.28 0.93,0.63 1.42,0.9 1.13,0.61 1.72,0.57 1.7,-1.04 -0.07,-6.99 -0.04,-13.97 0.01,-20.96 0.01,-1.16 -0.44,-1.89 -1.38,-2.43 -6.25,-3.58 -12.51,-7.13 -18.7,-10.82 -7.41,-4.42 -14.97,-8.6 -22.45,-12.9 -6.14,-3.52 -12.26,-7.07 -18.39,-10.61 -11.57,-6.66 -23.14,-13.32 -34.71,-19.99 -0.75,-0.43 -1.46,-0.95 -2.2,-1.41 -0.53,-0.33 -1.07,-0.7 -1.69,-0.15 -0.21,-1.2 -0.14,-2.28 1.16,-2.89 0.34,-0.16 0.25,-0.5 0.18,-0.8 3.56,2.49 7.45,4.42 11.19,6.61 6.92,4.05 13.86,8.06 20.8,12.07 4.14,2.39 8.29,4.75 12.43,7.14 6.51,3.75 13.01,7.51 19.51,11.29 7.4,4.3 14.77,8.63 22.18,12.91 3.54,2.05 7.14,4 10.69,6.05 0.96,0.55 1.37,0.44 1.37,-0.7 0,-7.3 -0.02,-14.59 0.02,-21.89 0.01,-1.16 -0.85,-1.48 -1.55,-1.89 -4.59,-2.72 -9.22,-5.37 -13.83,-8.06 -6.6,-3.85 -13.17,-7.73 -19.78,-11.55 -10.42,-6.02 -20.88,-12 -31.31,-18 -10.38,-5.97 -20.78,-11.93 -31.13,-17.97 -1.52,-0.89 -1.66,-0.46 -1.65,1.01 0.05,6.11 0.02,12.22 0,18.33 0,0.67 0.19,1.38 -0.29,1.99 -0.01,-7.54 0.03,-15.08 -0.08,-22.62 -0.03,-1.42 1.25,-1.58 1.63,-2.51 z"
   id="path29" />
		<path
   class="st6"
   d="m 344.43,618.28 -24.58,-14.16 -9.76,-5.63 -63.55,-36.61 c -0.31,-0.19 -0.59,-0.39 -0.88,-0.58 -0.48,-1.02 -1.7,-2.06 0.03,-3.06 0.76,-0.44 1.33,0.07 1.9,0.41 6.46,3.76 12.95,7.48 19.43,11.23 7.05,4.1 14.16,8.11 21.21,12.2 6.48,3.76 12.95,7.48 19.43,11.22 7.99,4.62 15.94,9.28 23.97,13.84 3.4,1.94 6.73,4.03 10.18,5.88 0.85,0.46 1.8,0.88 2.28,1.84 0,0.02 0.02,0.02 0.02,0.02 v 0.02 c 0.92,1.03 0.76,2.19 0.32,3.38 z"
   id="path30" />
		<path
   class="st1"
   d="m 344.1,614.89 c -6.24,-3.6 -12.49,-7.2 -18.73,-10.8 -8.19,-4.71 -16.38,-9.42 -24.56,-14.13 -9.92,-5.71 -19.84,-11.4 -29.75,-17.14 -8.12,-4.7 -16.21,-9.45 -24.31,-14.16 -0.32,-0.18 -0.69,-0.27 -1.04,-0.41 -1.24,-1.11 -0.95,-2.39 -0.42,-3.7 18.57,10.7 37.14,21.41 55.72,32.11 14.36,8.27 28.73,16.54 43.09,24.8 0.16,0.09 0.37,0.13 0.39,0.37 -0.38,0.99 0.99,2.2 -0.39,3.06 z"
   id="path31" />
		<path
   class="st1"
   d="m 286.9,476.24 c -0.71,0.66 -0.39,1.53 -0.39,2.3 -0.01,1.03 -0.39,1 -1.12,0.58 -7.64,-4.4 -15.29,-8.79 -22.92,-13.19 -3.23,-1.86 -6.39,-3.85 -9.68,-5.6 -1.12,-0.59 -1.67,-1.2 -1.52,-2.42 0.11,-0.97 -0.14,-1.84 -0.67,-2.64 12.09,6.99 24.19,13.98 36.3,20.97 z"
   id="path32" />
		<path
   class="st9"
   d="m 323.12,497.1 c -0.63,0.69 -0.3,1.53 -0.35,2.3 -0.06,0.89 -0.43,1.09 -1.18,0.67 -1.02,-0.57 -2.13,-1.03 -3.02,-1.76 -1.32,-1.08 -0.46,-2.63 -0.56,-3.98 1.85,0.64 3.41,1.83 5.11,2.77 z"
   id="path33" />
		<path
   class="st10"
   d="m 331.12,501.78 c -0.02,0.37 -0.06,0.74 -0.07,1.11 -0.05,2.61 0.06,2.33 -2.26,1.42 -2.79,-1.1 -2.72,-3.12 -2.53,-5.4 1.62,0.96 3.24,1.91 4.86,2.87 z"
   id="path34" />
		<path
   class="st11"
   d="m 339.64,506.71 c -0.39,1.1 0.51,2.71 -0.56,3.25 -0.57,0.28 -1.84,-1.02 -2.86,-1.43 -2.33,-0.94 -1.39,-2.84 -1.42,-4.46 1.77,0.61 3.33,1.59 4.84,2.64 z"
   id="path35" />
		<path
   class="st12"
   d="m 306,487.48 c -0.14,1.06 0.54,2.56 -0.36,3.08 -0.74,0.42 -1.75,-0.9 -2.72,-1.25 -2.12,-0.77 -1.86,-2.45 -1.63,-4.13 2.12,-0.38 3.25,1.3 4.71,2.3 z"
   id="path36" />
		<path
   class="st13"
   d="m 314.83,492.3 c -0.97,0.62 -0.51,1.58 -0.49,2.37 0.03,1.07 -0.37,1.03 -1.08,0.62 -0.16,-0.09 -0.3,-0.23 -0.47,-0.29 -2.69,-0.93 -3.75,-2.76 -3.12,-5.55 1.86,0.68 3.39,1.97 5.16,2.85 z"
   id="path37" />
		<path
   class="st14"
   d="m 344.49,611.84 c -0.13,-0.12 -0.26,-0.25 -0.39,-0.37 0.62,-0.55 0.35,-1.28 0.36,-1.94 0.03,-7.47 0.03,-14.95 0.04,-22.42 0.45,0.38 0.33,0.91 0.33,1.39 0.01,7.32 0.01,14.64 0,21.97 -0.01,0.47 0.14,1 -0.34,1.37 z"
   id="path38" />
		<path
   class="st1"
   d="m 452.44,554.86 c 0,0.56 -0.15,0.95 -0.41,1.31 l -0.59,0.34 -97.17,56.09 c 0.03,0.08 0.05,0.17 0.05,0.25 v 0.02 c 0,0.02 0.02,0.03 0,0.05 h -0.1 c -0.05,-0.05 -0.12,-0.1 -0.19,-0.19 -0.53,-0.76 -0.9,-3.03 -0.44,-3.35 0.42,-0.32 0.8,0.08 1.17,0.27 2.5,1.24 3.16,0.83 3.16,-1.99 0.02,-3.43 -0.12,-6.87 0.1,-10.28 0.12,-2.07 -0.53,-3.42 -2.43,-3.96 -1.92,-0.56 -2.4,-1.75 -2.12,-3.54 0.08,-0.54 0.03,-1.1 0.05,-1.67 0.17,-0.02 0.34,-0.03 0.51,-0.08 0.8,-0.14 1.53,-0.48 2.26,-0.88 6.37,-3.62 12.63,-7.43 19.09,-10.93 0.51,-0.29 1.02,-0.82 1.67,-0.44 h 0.02 c 0.05,0.03 0.1,0.07 0.15,0.1 0.15,2.28 -0.76,4.25 -1.8,6.17 -0.1,0.1 -0.2,0.15 -0.32,0.15 -0.02,0.02 -0.05,0.02 -0.07,0.02 -0.15,0 -0.31,-0.05 -0.46,-0.1 -1.41,-0.49 -2.11,0.36 -2.48,1.5 -0.46,1.43 0.59,1.46 1.56,1.55 0.03,0 0.07,0.02 0.1,0.05 0.02,0.03 0.05,0.05 0.05,0.1 0.05,0.08 0.09,0.2 0.1,0.31 -0.02,1.17 -0.66,2.11 -1.14,3.11 -0.24,0.49 -0.68,1.16 0,1.46 0.7,0.31 0.88,-0.49 1.07,-0.99 1.77,-4.57 3.76,-9.08 4.9,-13.87 0.14,-0.54 0.15,-1.12 0.63,-1.51 0.12,-0.07 0.26,-0.14 0.37,-0.22 0.07,-0.03 0.15,-0.08 0.22,-0.12 8.74,-5.06 17.46,-10.13 26.23,-15.09 0.49,-0.27 0.95,-0.61 1.5,-0.32 0.02,0 0.03,0.02 0.05,0.03 0.05,0.02 0.1,0.07 0.15,0.1 0.32,0.53 0.19,1.09 0.07,1.63 -1.38,6.68 -3.13,13.22 -7.26,18.85 -0.48,0.66 -1.61,1.65 -0.66,2.29 0.63,0.42 1.22,-0.93 1.67,-1.67 4.28,-6.97 6.36,-14.7 7.8,-22.64 0.1,-0.59 -0.02,-1.29 0.76,-1.56 0.03,0 0.05,0 0.07,0.02 0.02,0 0.02,0 0.03,0 0.2,0.15 0.05,0.85 0.87,0.36 6.85,-4.1 13.78,-8.02 20.68,-12.03 0.59,-0.34 1.22,-0.92 2.02,-0.59 h 0.02 c 0.05,0.02 0.12,0.03 0.17,0.07 0.36,0.58 0.24,1.21 0.15,1.82 -0.71,4.81 -2.06,9.47 -3.71,14.04 -0.58,1.6 -1.36,3.08 -2.7,4.2 -0.48,0.41 -0.82,0.93 -0.97,1.56 -0.17,0.66 -0.09,1.29 0.63,1.55 0.71,0.27 1.02,-0.32 1.22,-0.83 0.87,-2.14 1.94,-4.18 2.77,-6.32 2.12,-5.63 3.23,-11.47 4.2,-17.37 0.08,-0.54 0.03,-1.14 0.66,-1.43 0.03,-0.02 0.07,-0.02 0.09,0 0.02,0.02 0.03,0.02 0.07,0.03 0.19,0.15 0.12,0.8 0.88,0.29 4.35,-2.92 9.03,-5.35 13.56,-8.02 0.29,-0.17 0.59,-0.36 0.92,-0.29 0.14,0.02 0.29,0.08 0.44,0.22 0.03,7.45 0.05,14.91 0.11,22.37 z"
   id="path39" />
		<path
   class="st1"
   d="m 429.08,465.7 c 3.81,-2.23 7.62,-4.47 11.45,-6.67 1.54,-0.89 4.24,0.69 4.19,2.49 -0.07,2.61 -0.34,5.22 -0.02,7.83 0.09,0.7 -0.13,1.05 -0.95,0.9 -0.73,-0.13 -1.37,0.18 -1.59,0.95 -0.25,0.87 0.22,1.5 0.99,1.76 1.15,0.39 1.93,2.04 3.46,1.14 1.41,-0.84 0.71,-2.26 0.75,-3.41 0.1,-2.74 -0.06,-5.49 0.06,-8.22 0.1,-2.42 0.19,-4.69 -3.14,-5.33 1.6,-1.34 3.12,-2.16 4.68,-2.88 1.21,-0.62 1.52,0.35 1.89,1.11 0.39,0.77 0.53,1.65 -0.35,2.15 -1.33,0.74 -1.35,1.79 -0.97,3.03 0.53,1.74 -0.24,3.45 -0.11,5.19 0.08,1.07 0.08,2.12 0.87,2.96 0.11,0.15 0.19,0.31 0.25,0.49 -1.03,1.4 -0.22,2.64 0.33,3.9 -2.29,2.18 -5.27,3.26 -7.88,4.93 -3.82,2.44 -8.05,4.23 -11.67,7.02 -1.53,-1.16 -1.84,-2.94 -2.31,-4.64 -0.15,-0.56 0.06,-1.37 -0.82,-1.43 -0.64,-0.04 -0.95,0.52 -1.19,1.03 -0.31,0.66 -0.46,1.33 0.32,1.79 1.51,0.87 2.37,2.11 2.28,3.91 -2.24,1.45 -4.57,2.74 -6.89,4.06 -8.98,5.1 -17.86,10.37 -26.87,15.41 -5.86,3.27 -11.62,6.73 -17.36,10.21 -0.13,-0.02 -0.29,-0.04 -0.33,-0.14 -1.34,-3.06 -2.99,-5.98 -4.05,-9.17 -0.13,-0.58 0.66,-1.51 -0.39,-1.71 -0.82,-0.16 -1.29,0.64 -1.58,1.34 -0.4,0.95 -0.04,1.55 0.94,1.79 0.74,0.49 1.13,1.17 1.12,2.07 -0.49,0.86 -1.6,1.14 -1.95,2.14 -0.17,0.47 -0.4,0.97 0.08,1.35 0.53,0.42 0.88,-0.07 1.25,-0.38 0.52,-0.45 0.86,-1.32 1.8,-0.77 0.78,1.26 1.58,2.52 1.47,4.1 -1.74,1.54 -3.85,2.5 -5.84,3.63 -5.09,2.87 -10.11,5.87 -15.18,8.77 -0.43,0.25 -0.91,0.45 -1.18,0.89 -0.44,0.74 -0.59,1.69 -0.15,2.31 0.56,0.8 1.21,-0.1 1.73,-0.39 6.2,-3.44 12.2,-7.23 18.46,-10.55 1.21,-0.64 1.83,-1.95 3.14,-2.38 1.37,2.77 1.74,5.79 2.24,8.77 0.73,4.34 1.3,8.7 1.56,13.1 0.03,0.44 0.04,0.87 -0.1,1.29 -2.61,1.65 -5.26,3.22 -7.95,4.73 -4.33,2.44 -8.66,4.9 -12.9,7.5 -2.32,1.42 -4.73,2.68 -7.15,3.91 -0.01,-0.62 -0.03,-1.24 -0.03,-1.86 0.02,-2.46 0.02,-2.46 2.28,-1.53 1.1,0.45 2.14,-0.17 2.15,-1.42 0.05,-4.36 0.01,-8.71 0.07,-13.07 0.02,-1.56 -1.3,-1.84 -2.19,-2.18 -1.93,-0.74 -2.5,-1.9 -2.34,-3.9 0.2,-2.47 0.09,-4.97 0.05,-7.46 -0.02,-1.07 0.38,-1.17 1.2,-0.7 0.27,0.16 0.54,0.3 0.82,0.45 1.34,0.71 2.37,0.22 2.39,-1.23 0.06,-4.36 0.03,-8.71 0.06,-13.07 0,-0.7 -0.2,-1.16 -0.88,-1.46 -0.67,-0.29 -1.28,-0.72 -2.23,-1.27 1.71,-1.01 3.17,-1.87 4.63,-2.73 0.39,-0.06 0.86,-0.04 0.93,0.39 0.32,1.97 1.3,1.21 2.28,0.62 0.37,-0.23 0.78,-0.39 1.16,-0.6 2.32,-1.25 4.87,-2.29 4.92,-5.55 0.63,-0.74 1.47,-1.17 2.35,-1.53 0.89,0.05 0.71,1.81 1.94,1.27 1.21,-0.52 1.15,-1.64 1.15,-2.71 0,-0.19 0.08,-0.36 0.18,-0.52 4.25,-2.47 8.5,-4.94 12.75,-7.4 0.5,-0.07 0.7,0.3 0.72,0.66 0.09,2 1.04,1.49 2.09,0.75 0.35,-0.25 0.73,-0.48 1.12,-0.66 2.56,-1.21 4.88,-2.61 5.07,-5.87 0.88,-0.54 1.77,-1.08 2.65,-1.62 0.64,0.44 0.17,1.94 1.29,1.72 1.04,-0.2 1.48,-1.23 1.48,-2.32 0,-0.31 -0.02,-0.62 0.17,-0.89 3.29,-2.54 7.1,-4.21 10.58,-6.44 0.77,-0.49 1.62,-0.86 2.44,-1.29 0.18,0.07 0.33,0.19 0.38,0.37 0.64,2.06 0.64,2.06 2.59,0.86 0.21,-0.13 0.42,-0.27 0.64,-0.37 2.56,-1.16 4.96,-2.47 5.07,-5.78 0.69,-0.87 1.72,-1.23 2.65,-1.72 0.71,0.45 0.2,2.22 1.64,1.74 1.15,-0.38 1.27,-1.54 1.16,-2.65 -0.03,-0.35 -0.03,-0.65 0.18,-0.91 z"
   id="path40" />
		<path
   class="st14"
   d="m 353.55,585.26 c -0.02,-0.99 -0.02,-1.99 -0.08,-2.98 -0.08,-1.25 0.42,-1.17 1.3,-0.7 2.45,1.31 3.13,0.86 3.15,-1.97 0.01,-3.42 -0.1,-6.85 0.09,-10.27 0.11,-2.04 -0.45,-3.45 -2.42,-3.98 -1.97,-0.52 -2.38,-1.78 -2.12,-3.54 0.06,-0.43 0.04,-0.86 0.05,-1.3 2.61,-1.03 4.98,-2.53 7.36,-3.95 5.69,-3.41 11.58,-6.49 17.2,-10.02 0.69,-0.43 1.41,-0.78 2.19,-1 0.5,-0.14 0.99,-0.21 1.24,0.42 0.4,2.91 0.19,5.8 -0.11,8.71 -0.48,4.63 -1.23,9.22 -2.04,13.8 -0.14,0.79 -0.26,1.6 -0.66,2.31 -0.84,1.14 -2.15,1.67 -3.31,2.34 -6.75,3.91 -13.49,7.86 -20.29,11.69 -0.47,0.29 -0.93,0.64 -1.55,0.44 z"
   id="path41" />
		<path
   class="st6"
   d="m 414.98,583.69 c -0.03,0.03 -0.07,0.07 -0.1,0.12 -0.02,-0.02 -0.03,-0.02 -0.05,-0.03 0.05,-0.04 0.1,-0.07 0.15,-0.09 z"
   id="path42" />
		<path
   class="st6"
   d="m 418.83,581.24 c -0.02,0.02 -0.03,0.02 -0.05,0.03 -0.07,-0.03 -0.14,-0.09 -0.2,-0.14 0.08,0.05 0.16,0.08 0.25,0.11 z"
   id="path43" />
		<path
   class="st6"
   d="m 428.96,575.24 c -0.05,0.02 -0.08,0.05 -0.12,0.07 -0.03,-0.07 -0.08,-0.15 -0.14,-0.22 0.09,0.05 0.17,0.09 0.26,0.15 z"
   id="path44" />
		<path
   class="st6"
   d="m 434.9,571.67 c -0.19,0.1 -0.37,0.2 -0.56,0.32 -0.12,-0.08 -0.25,-0.15 -0.37,-0.22 0.34,-0.23 0.65,-0.22 0.93,-0.1 z"
   id="path45" />
		<path
   class="st15"
   d="m 354.32,612.87 c 0,0.02 0.02,0.03 0,0.05 h -0.1 c 0.04,-0.01 0.07,-0.03 0.1,-0.05 z"
   id="path46" />
		<path
   class="st1"
   d="m 381.16,545.57 c -6.66,3.44 -13.02,7.4 -19.53,11.12 -2.25,1.29 -4.51,2.58 -6.74,3.9 -0.5,0.29 -0.92,0.3 -1.36,-0.05 0,-0.99 0,-1.98 -0.01,-2.97 1.54,-1.93 3.93,-2.51 5.93,-3.71 6.68,-4.02 13.46,-7.88 20.18,-11.84 0.52,-0.31 0.93,-0.61 1.49,-0.21 0.9,1.23 0.87,2.49 0.04,3.76 z"
   id="path47" />
		<path
   class="st1"
   d="m 353.55,585.26 c 8.2,-4.74 16.4,-9.49 24.61,-14.23 0.68,1.86 0.23,3.47 -1.1,4.88 -4.08,2.34 -8.15,4.69 -12.24,7.02 -3.27,1.86 -6.58,3.66 -9.82,5.59 -0.76,0.45 -1.08,0.3 -1.48,-0.28 0.01,-1 0.02,-1.99 0.03,-2.98 z"
   id="path48" />
		<path
   class="st16"
   d="m 423.45,469.2 c 0.48,2.35 -0.2,4.02 -2.56,5.02 -1.58,0.67 -3.03,1.66 -4.49,2.59 -1.13,0.72 -1.66,0.66 -1.58,-0.83 0.04,-0.61 -0.04,-1.24 -0.06,-1.85 2.83,-1.78 5.6,-3.64 8.69,-4.93 z"
   id="path49" />
		<path
   class="st17"
   d="m 396.15,484.96 c 0.63,2.72 -0.71,4.23 -3.08,5.26 -1.41,0.62 -2.7,1.51 -4.01,2.34 -1.15,0.73 -1.67,0.56 -1.57,-0.89 0.04,-0.54 0.13,-1.13 -0.33,-1.58 2.98,-1.75 5.87,-3.64 8.99,-5.13 z"
   id="path50" />
		<path
   class="st18"
   d="m 368.79,500.98 c 0.54,2.35 -0.31,3.86 -2.59,4.78 -1.49,0.6 -2.87,1.49 -4.22,2.37 -1.16,0.75 -1.93,1.05 -1.83,-0.82 0.03,-0.53 -0.05,-1 -0.65,-1.19 2.59,-1.5 5.18,-3 7.78,-4.49 0.47,-0.26 1,-0.43 1.51,-0.65 z"
   id="path51" />
		<path
   class="st19"
   d="m 355.31,517.22 c 0,1.3 0.02,2.61 -0.01,3.91 -0.01,0.48 0.27,1.23 -0.75,1.07 -0.65,-0.1 -1.09,-0.2 -1.07,-1.08 0.07,-2.73 0.01,-5.46 0.04,-8.19 0.01,-0.47 -0.37,-1.31 0.5,-1.32 0.71,-0.02 1.26,0.52 1.28,1.33 0.02,1.42 0.01,2.85 0.01,4.28 z"
   id="path52" />
		<path
   class="st20"
   d="m 353.45,600.79 c 0,-1.24 -0.04,-2.48 0.02,-3.72 0.02,-0.49 -0.35,-1.35 0.38,-1.39 0.73,-0.05 1.41,0.53 1.43,1.42 0.04,1.49 0.02,2.98 0.02,4.46 0,1.3 0.01,2.6 -0.02,3.91 -0.01,0.37 0.18,1.04 -0.53,0.9 -0.51,-0.1 -1.33,0.06 -1.31,-0.93 0.03,-1.55 0.01,-3.1 0.01,-4.65 z"
   id="path53" />
		<path
   class="st21"
   d="m 353.46,567.51 c 1.45,0.28 1.89,0.98 1.86,2.16 -0.06,2.43 0.01,4.86 -0.04,7.28 -0.01,0.48 0.45,1.39 -0.67,1.33 -0.76,-0.04 -1.19,-0.38 -1.17,-1.29 0.06,-3.1 0.02,-6.21 0.02,-9.48 z"
   id="path54" />
		<path
   class="st22"
   d="m 353.47,544.72 c 0,-1.18 -0.04,-2.36 0.02,-3.53 0.03,-0.54 -0.4,-1.48 0.47,-1.53 0.9,-0.06 1.38,0.67 1.35,1.64 -0.02,0.99 0,1.98 0,2.97 0,1.61 0.03,3.22 -0.02,4.83 -0.01,0.44 0.38,1.26 -0.65,1.16 -0.73,-0.08 -1.24,-0.32 -1.19,-1.26 0.08,-1.42 0.02,-2.85 0.02,-4.28 z"
   id="path55" />
		<path
   class="st23"
   d="m 429.08,465.7 c 0.49,1.15 0.54,2.2 -0.24,3.32 -0.55,0.78 -1.13,1.14 -2,0.9 -0.88,-0.24 -0.75,-1.01 -0.74,-1.69 0,-0.25 0,-0.5 0.01,-0.74 0.99,-0.61 1.98,-1.2 2.97,-1.79 z"
   id="path56" />
		<path
   class="st24"
   d="m 401.74,481.84 c 0.37,0.54 0.51,1.11 0.27,1.74 -0.43,1.12 -1.03,2.37 -2.35,2.21 -1.39,-0.17 -0.73,-1.56 -0.86,-2.46 0.9,-0.65 1.76,-1.39 2.94,-1.49 z"
   id="path57" />
		<path
   class="st25"
   d="m 374.41,497.49 c 0.28,0.62 0.54,1.21 0.29,1.93 -0.36,1.03 -0.76,1.91 -2.04,2.04 -1.67,0.17 -0.94,-1.41 -1.52,-2.01 0.95,-0.87 2.14,-1.36 3.27,-1.96 z"
   id="path58" />
		<path
   class="st1"
   d="m 249.76,444.21 c 2.39,-1.4 4.79,-2.81 7.19,-4.21 29.69,-17.26 59.39,-34.51 89.05,-51.82 1.67,-0.98 2.9,-0.97 4.56,0 15.81,9.26 31.56,18.62 47.55,27.57 10.47,5.86 20.71,12.12 31.19,17.95 5.76,3.21 11.46,6.53 17.23,9.73 1.53,0.85 1.2,1.24 -0.08,1.98 -31.81,18.46 -63.6,36.95 -95.38,55.45 -1.21,0.7 -2.15,0.97 -3.55,0.16 -32.09,-18.59 -64.22,-37.12 -96.34,-55.67 -0.48,-0.25 -1.07,-0.39 -1.42,-1.14 z"
   id="path59" />
		<path
   class="st1"
   d="m 286.45,486.81 c -0.08,0.77 0.41,1.9 -0.21,2.29 -0.82,0.52 -1.52,-0.55 -2.23,-0.96 -3.72,-2.12 -7.4,-4.31 -11.1,-6.44 -6.92,-3.99 -13.86,-7.96 -20.79,-11.94 -1.26,-0.72 -0.84,-1.97 -0.85,-3.04 -0.04,-3.02 -0.01,-3.03 2.55,-1.55 8.46,4.92 16.9,9.88 25.4,14.75 1.72,0.98 3.4,2.1 5.18,2.91 1.91,0.87 2.39,2.11 2.05,3.98 z"
   id="path60" />
		<path
   class="st26"
   d="m 306.05,500.57 c -1.83,-0.57 -3.17,-1.49 -4.46,-2.4 -0.91,-0.64 -0.36,-1.87 -0.38,-2.82 -0.02,-0.82 -0.47,-1.97 0.3,-2.41 0.65,-0.37 1.36,0.67 2.1,0.92 3.63,1.22 2.04,4.16 2.44,6.71 z"
   id="path61" />
		<path
   class="st27"
   d="m 322.75,507.6 c -0.17,0.68 0.47,1.83 -0.39,2.26 -0.77,0.39 -1.58,-0.5 -2.31,-0.93 -2.03,-1.2 -2.8,-3.42 -2.13,-5.81 0.13,-0.45 0.28,-0.6 0.75,-0.53 2.11,0.29 4.08,2.63 4.08,5.01 z"
   id="path62" />
		<path
   class="st28"
   d="m 326.23,509.88 c 0.18,-0.83 -0.42,-2.02 0.34,-2.44 0.71,-0.4 1.51,0.58 2.24,0.99 2.07,1.18 2.91,3.56 2.23,5.89 -0.24,0.82 -0.66,0.54 -1.11,0.29 -0.97,-0.56 -1.92,-1.14 -2.9,-1.69 -1.31,-0.75 -0.61,-2.01 -0.8,-3.04 z"
   id="path63" />
		<path
   class="st29"
   d="m 334.69,514.74 c 0.01,-2.94 0.01,-2.94 2.55,-1.47 2.13,1.24 2.99,3.48 2.25,5.79 -0.17,0.54 -0.39,0.63 -0.94,0.48 -2.55,-0.7 -3.87,-2.31 -3.86,-4.8 z"
   id="path64" />
		<path
   class="st30"
   d="m 314.35,502.45 c -0.23,3.01 -0.23,3.01 -2.57,1.67 -1.89,-1.08 -2.87,-3.87 -2.14,-5.96 0.18,-0.53 0.47,-0.51 0.83,-0.31 1.19,0.67 2.44,1.27 3.51,2.09 0.93,0.73 0.27,1.87 0.37,2.51 z"
   id="path65" />
		<path
   class="st31"
   d="m 414.98,583.69 c -0.03,0.03 -0.07,0.07 -0.1,0.12 -0.02,-0.02 -0.03,-0.02 -0.05,-0.03 0.05,-0.04 0.1,-0.07 0.15,-0.09 z"
   id="path66" />
		<path
   class="st32"
   d="m 437.07,536.94 c -0.18,1.14 -0.36,2.28 -0.54,3.42 -0.58,2.96 -1.2,5.92 -1.75,8.89 -0.95,5.17 -2.72,10.07 -4.88,14.84 -0.28,0.62 -0.43,1.31 -0.81,1.86 -0.36,0.52 -0.49,1.64 -1.59,1.04 -0.89,-0.49 -1.78,-1.01 -1.25,-2.31 0.23,-0.58 0.32,-1.25 0.87,-1.61 2.2,-1.46 2.8,-3.84 3.59,-6.12 1.56,-4.54 2.83,-9.14 3.25,-13.94 -0.5,-1.5 0.18,-2.89 0.4,-4.32 0.92,-6.06 1.67,-12.15 1.51,-18.29 -0.06,-2.15 -0.05,-4.34 -0.53,-6.47 -0.26,-1.26 -0.48,-2.52 -0.4,-3.82 -0.62,-7.35 -2.2,-14.49 -4.67,-21.43 -0.32,-1 -1.09,-1.87 -0.85,-3.03 -0.63,-1.3 -0.57,-3.03 -2.6,-3.41 -0.97,-0.18 -0.77,-1.24 -0.47,-2.04 0.39,-1.02 0.92,-2 2.18,-1.94 1.04,0.04 0.96,0.94 0.95,1.69 -0.02,1.88 1.22,3.29 1.82,4.94 0.96,0.68 1.2,1.78 1.66,2.75 2.68,6.85 3.84,14.04 4.86,21.26 -0.05,1.24 0.73,2.49 -0.03,3.73 -0.15,3.27 0.45,6.5 0.44,9.78 -0.02,3.53 -0.47,7 -0.66,10.5 -0.08,1.35 -0.33,2.69 -0.5,4.03 z"
   id="path67" />
		<path
   class="st33"
   d="m 377.06,575.91 c 0.58,-1.58 1,-3.2 1.1,-4.88 1.05,-3.65 1.53,-7.42 2.07,-11.16 0.68,-4.73 1.36,-9.48 0.94,-14.3 -0.01,-1.26 -0.02,-2.52 -0.04,-3.78 -0.5,-7.95 -1.26,-15.86 -3.68,-23.52 -0.74,-0.61 -1.07,-1.36 -0.78,-2.32 -0.52,-1.38 -1.05,-2.76 -1.57,-4.14 -0.74,-0.57 -1.19,-1.28 -1.11,-2.25 -0.38,-0.61 -0.44,-1.41 -1.08,-1.87 -0.27,-0.25 -0.53,-0.51 -0.62,-0.89 -0.16,-0.71 -0.09,-1.4 0.63,-1.73 0.82,-0.38 1.23,0.17 1.51,0.86 1.37,3.09 2.73,6.18 4.1,9.27 0.94,0.67 1.03,1.76 1.32,2.74 1.9,6.42 2.71,13.04 3.38,19.67 0.08,0.81 0.24,1.6 0.33,2.41 0.1,1.23 0.08,2.45 0.04,3.68 0.45,8.72 -0.99,17.24 -2.59,25.75 -0.37,1.55 -0.31,3.23 -1.34,4.6 -1.35,5.16 -3.25,10.14 -5.2,15.09 -0.14,0.35 -0.26,0.7 -0.41,1.04 -0.33,0.74 -0.79,1.38 -1.7,0.88 -0.85,-0.47 -0.71,-1.31 -0.28,-1.95 0.74,-1.1 1.13,-2.34 1.65,-3.52 0.11,-1.26 0.18,-2.54 1.39,-3.34 0.69,-2.11 1.68,-4.11 1.94,-6.34 z"
   id="path68" />
		<path
   class="st34"
   d="m 410.33,555.29 c -1,4.73 -1.96,9.47 -3.38,14.09 -1.27,4.13 -3.57,7.79 -5.59,11.56 -0.32,0.59 -0.93,1.59 -1.91,0.98 -1.07,-0.68 -0.41,-1.61 0.06,-2.27 1.71,-2.38 3.21,-4.87 4.4,-7.56 1.94,-4.41 3.02,-9.05 3.78,-13.78 -0.58,-1.7 0.52,-3.29 0.29,-4.97 1.03,-6.92 -0.15,-13.66 -1.74,-20.36 -0.19,-0.79 -0.41,-1.57 -0.66,-2.34 -0.3,-0.91 -0.62,-1.81 -0.93,-2.72 -0.63,-1.85 -1.71,-3.48 -2.58,-5.21 -0.17,-0.41 -0.46,-0.75 -0.72,-1.11 -0.39,-0.67 -0.91,-1.12 -1.68,-1.37 -1.06,-0.34 -1.42,-1.14 -1.05,-2.22 0.41,-1.2 1.88,-2.43 2.7,-2.26 0.41,0.09 0.66,0.35 0.77,0.73 0.87,3.04 3.06,5.4 4.22,8.29 0.32,0.81 0.7,1.59 1.04,2.4 0.34,0.83 0.67,1.66 0.93,2.51 2.13,7.24 3.36,14.6 2.97,22.18 -0.19,1.17 -0.07,2.43 -0.92,3.43 z"
   id="path69" />
		<path
   class="st1"
   d="m 408.46,553.43 c 0.1,1.68 -0.27,3.28 -0.76,4.87 -3.07,1.46 -5.95,3.27 -8.89,4.99 -6.25,3.66 -12.54,7.25 -18.81,10.86 -0.07,0.04 -0.22,-0.06 -0.34,-0.1 0.3,-1.52 0.61,-3.05 0.91,-4.57 1.21,-1.5 3.02,-2.11 4.6,-3.04 7.16,-4.21 14.33,-8.4 21.58,-12.45 0.52,-0.3 1.02,-0.76 1.71,-0.56 z"
   id="path70" />
		<path
   class="st1"
   d="m 410.33,555.29 c 0.05,-1.14 0.13,-2.28 0.47,-3.38 0.84,-1.17 2.2,-1.63 3.37,-2.28 6.31,-3.51 12.48,-7.26 18.76,-10.82 0.51,-0.29 1.17,-1.18 1.8,-0.06 -0.26,1.41 -0.52,2.82 -0.79,4.23 -7.41,4.25 -14.81,8.5 -22.22,12.73 -0.55,0.34 -1.35,1.09 -1.39,-0.42 z"
   id="path71" />
		<path
   class="st35"
   d="m 414.84,561.75 c 0,-1.89 0.02,-3.37 -0.01,-4.84 -0.02,-0.75 0.45,-1.14 0.99,-1.45 2.2,-1.27 4.44,-2.47 6.62,-3.78 0.93,-0.56 1.07,-0.17 1.07,0.63 0,1.18 0,2.36 0,3.55 0,0.46 -0.1,0.89 -0.51,1.14 -2.61,1.53 -5.22,3.04 -8.16,4.75 z"
   id="path72" />
		<path
   class="st36"
   d="m 396.2,576.99 c 0.49,1.73 -0.47,2.81 -2.24,3.64 -1.79,0.84 -3.45,1.97 -5.15,3 -0.93,0.57 -1.38,0.4 -1.31,-0.74 0.01,-0.12 0.02,-0.25 0,-0.37 -0.4,-2.65 0.19,-4.68 3.05,-5.68 1.38,-0.49 2.66,-1.36 3.89,-2.2 1.35,-0.92 1.89,-0.7 1.77,0.95 -0.03,0.38 -0.01,0.75 -0.01,1.4 z"
   id="path73" />
		<path
   class="st36"
   d="m 414.85,571.97 c -0.55,-1.76 0.52,-2.78 2.23,-3.6 1.73,-0.83 3.35,-1.87 4.99,-2.86 1.15,-0.69 1.37,-0.3 1.51,0.92 0.3,2.77 -0.38,4.78 -3.22,5.83 -1.38,0.51 -2.66,1.34 -3.89,2.16 -1.24,0.83 -1.75,0.68 -1.62,-0.88 0.03,-0.42 0,-0.85 0,-1.57 z"
   id="path74" />
		<path
   class="st36"
   d="m 387.51,574.16 c -0.47,-1.63 0.36,-2.71 2.07,-3.53 1.79,-0.85 3.43,-1.99 5.15,-3 0.95,-0.56 1.54,-0.43 1.46,0.84 0,0.06 -0.01,0.13 0,0.19 0.41,2.66 -0.18,4.68 -3.07,5.66 -1.45,0.49 -2.72,1.48 -4.08,2.23 -0.41,0.23 -0.71,0.88 -1.26,0.57 -0.51,-0.29 -0.23,-0.91 -0.26,-1.38 -0.04,-0.43 -0.01,-0.87 -0.01,-1.58 z"
   id="path75" />
		<path
   class="st35"
   d="m 368.87,599.83 c 0.48,1.61 -0.52,2.6 -2.17,3.4 -1.67,0.81 -3.19,1.91 -4.81,2.82 -1.06,0.6 -1.63,0.62 -1.77,-1 -0.23,-2.73 0.43,-4.63 3.19,-5.65 1.37,-0.51 2.61,-1.42 3.85,-2.24 1.36,-0.89 1.88,-0.58 1.71,1.02 -0.04,0.43 0,0.87 0,1.65 z"
   id="path76" />
		<path
   class="st36"
   d="m 368.85,592.89 c 0.6,1.79 -0.65,2.73 -2.28,3.56 -1.7,0.88 -3.33,1.9 -4.98,2.88 -0.96,0.58 -1.5,0.5 -1.41,-0.78 0,-0.06 0,-0.13 -0.01,-0.19 -0.43,-2.73 0.23,-4.78 3.14,-5.8 1.32,-0.46 2.48,-1.4 3.72,-2.1 1.7,-0.97 1.8,-0.91 1.81,1 0.02,0.38 0.01,0.75 0.01,1.43 z"
   id="path77" />
		<path
   class="st35"
   d="m 414.84,565.24 c -0.54,-1.82 0.54,-2.87 2.34,-3.69 1.74,-0.8 3.35,-1.87 5.01,-2.85 0.88,-0.52 1.38,-0.44 1.34,0.74 -0.03,0.87 -0.05,1.74 0.03,2.61 0.1,1.07 -0.32,1.73 -1.26,2.24 -1.96,1.07 -3.91,2.16 -5.79,3.36 -1.42,0.91 -1.82,0.52 -1.67,-1 0.03,-0.37 0,-0.75 0,-1.41 z"
   id="path78" />
		<path
   class="st37"
   d="m 360.14,589.93 c -0.5,-1.74 0.53,-2.82 2.36,-3.65 1.74,-0.79 3.34,-1.89 4.99,-2.9 0.92,-0.56 1.29,-0.43 1.37,0.72 0.18,2.59 0.15,4.92 -2.99,5.94 -1.44,0.47 -2.75,1.43 -4.04,2.28 -1.27,0.84 -1.88,0.78 -1.7,-0.92 0.05,-0.37 0.01,-0.74 0.01,-1.47 z"
   id="path79" />
		<path
   class="st38"
   d="m 396.19,583.99 c 0.45,1.64 -0.47,2.63 -2.19,3.39 -1.63,0.72 -3.07,1.85 -4.64,2.73 -1.73,0.97 -1.62,0.87 -1.89,-0.99 -0.41,-2.84 0.7,-4.5 3.28,-5.54 1.31,-0.53 2.47,-1.41 3.72,-2.1 0.46,-0.26 0.93,-0.84 1.49,-0.48 0.45,0.29 0.2,0.92 0.23,1.4 0.02,0.43 0,0.86 0,1.59 z"
   id="path80" />
		<path
   class="st39"
   d="m 375.12,582.24 c -0.46,1.11 -0.93,2.23 -1.39,3.34 -0.77,0.02 -1.74,0.69 -2.16,-0.51 -0.42,-1.21 0.12,-2.2 1,-3 0.87,-0.78 1.76,-0.82 2.55,0.17 z"
   id="path81" />
		<path
   class="st40"
   d="m 426.1,559.12 c 0.19,-1.68 1.48,-3.14 2.46,-3 0.94,0.13 0.95,0.86 0.89,1.57 -0.14,1.39 -1.46,2.88 -2.4,2.69 -0.87,-0.17 -1.02,-0.81 -0.95,-1.26 z"
   id="path82" />
		<path
   class="st41"
   d="m 398.78,568.5 c 0.08,-1.29 1.45,-2.86 2.39,-2.71 0.9,0.14 1.06,0.84 0.91,1.55 -0.26,1.28 -0.84,2.42 -2.3,2.58 -0.96,0.1 -1.02,-0.7 -1,-1.42 z"
   id="path83" />
		<path
   class="st42"
   d="m 402.13,573.5 c -0.42,1.12 -0.83,2.45 -2.36,2.65 -0.91,0.12 -1.09,-0.73 -0.97,-1.44 0.22,-1.38 0.96,-2.5 2.36,-2.78 0.9,-0.19 0.97,0.72 0.97,1.57 z"
   id="path84" />
		<path
   class="st43"
   d="m 429.46,551.74 c -0.34,1.07 -0.8,2.26 -2.29,2.4 -0.89,0.08 -1.11,-0.62 -1.08,-1.4 0.06,-1.31 1.4,-2.84 2.38,-2.69 0.9,0.13 1.02,0.79 0.99,1.69 z"
   id="path85" />
		<path
   class="st44"
   d="m 374.81,595.32 c -0.07,1.26 -1.42,2.79 -2.39,2.68 -0.8,-0.09 -1.05,-0.66 -0.94,-1.32 0.23,-1.34 0.77,-2.56 2.3,-2.76 0.92,-0.13 1.04,0.67 1.03,1.4 z"
   id="path86" />
		<path
   class="st1"
   d="m 379.39,517.9 c -0.29,-0.9 -0.58,-1.8 -0.86,-2.7 0.26,-0.89 1.08,-1.15 1.76,-1.55 10.97,-6.34 21.93,-12.68 32.91,-19 5.1,-2.94 10.23,-5.82 15.36,-8.72 0.26,-0.15 0.58,-0.2 0.87,-0.3 0.4,0.91 0.8,1.83 1.19,2.74 0.35,1.16 -0.7,1.33 -1.31,1.69 -5.8,3.38 -11.62,6.74 -17.44,10.1 -5.22,3.02 -10.47,5.99 -15.67,9.06 -4.76,2.81 -9.55,5.6 -14.4,8.26 -0.73,0.4 -1.48,1.04 -2.41,0.42 z"
   id="path87" />
		<path
   class="st1"
   d="m 376.67,515.96 c 0.26,0.77 0.52,1.55 0.78,2.32 0.09,1.04 -0.57,1.53 -1.38,1.99 -6.3,3.62 -12.58,7.26 -18.87,10.9 -0.22,0.12 -0.43,0.26 -0.66,0.35 -0.86,0.36 -1.65,1.73 -2.6,0.76 -0.79,-0.81 0.11,-3.38 1.15,-3.99 6.85,-3.99 13.7,-7.96 20.55,-11.93 0.31,-0.19 0.68,-0.27 1.03,-0.4 z"
   id="path88" />
		<path
   class="st1"
   d="m 432.49,487.57 c -0.4,-0.9 -0.8,-1.8 -1.2,-2.7 0.36,-1.62 1.98,-1.83 3.06,-2.48 5.42,-3.26 10.96,-6.32 16.46,-9.45 2.04,0.41 1.36,2.03 1.47,3.3 -1.56,1.67 -3.67,2.52 -5.52,3.76 -4.22,2.36 -8.4,4.8 -12.55,7.27 -0.54,0.32 -1.06,0.74 -1.72,0.3 z"
   id="path89" />
		<path
   class="st35"
   d="m 414.84,487.71 c -0.47,-1.56 0.43,-2.58 2.01,-3.37 1.83,-0.92 3.59,-2 5.36,-3.04 0.9,-0.53 1.4,-0.44 1.33,0.73 0,0.06 -0.01,0.13 0,0.19 0.53,2.86 -0.41,4.87 -3.22,6 -1.31,0.53 -2.48,1.41 -3.72,2.13 -1.53,0.89 -1.71,0.78 -1.75,-1.04 -0.02,-0.44 -0.01,-0.88 -0.01,-1.6 z"
   id="path90" />
		<path
   class="st45"
   d="m 368.85,536.85 c 0.52,1.61 -0.49,2.62 -2.1,3.45 -1.71,0.87 -3.3,1.97 -4.96,2.93 -1.08,0.62 -1.73,0.48 -1.61,-0.99 0.07,-0.8 0.08,-1.62 0.01,-2.42 -0.11,-1.18 0.51,-1.87 1.43,-2.38 1.83,-1.03 3.67,-2.04 5.5,-3.06 0.47,-0.26 0.93,-0.87 1.47,-0.54 0.52,0.32 0.21,1.02 0.25,1.56 0.03,0.36 0.01,0.74 0.01,1.45 z"
   id="path91" />
		<path
   class="st45"
   d="m 360.19,516.07 c 0,-1.88 0.02,-3.35 -0.01,-4.82 -0.01,-0.83 0.52,-1.22 1.12,-1.57 2.15,-1.24 4.33,-2.43 6.46,-3.7 0.87,-0.52 1.1,-0.22 1.1,0.63 0,1.18 -0.01,2.36 -0.01,3.54 0,0.46 -0.13,0.85 -0.55,1.1 -2.6,1.53 -5.19,3.08 -8.11,4.82 z"
   id="path92" />
		<path
   class="st35"
   d="m 368.87,515.51 c 0.61,1.88 -0.72,2.85 -2.38,3.72 -1.64,0.86 -3.22,1.84 -4.82,2.78 -0.95,0.55 -1.52,0.46 -1.48,-0.81 0.03,-0.99 0.04,-1.98 0.01,-2.98 -0.03,-0.77 0.27,-1.33 0.91,-1.7 2.2,-1.26 4.43,-2.48 6.63,-3.75 0.97,-0.56 1.18,-0.14 1.14,0.77 -0.04,0.57 -0.01,1.12 -0.01,1.97 z"
   id="path93" />
		<path
   class="st46"
   d="m 360.18,533.9 c -0.6,-1.88 0.63,-2.88 2.35,-3.73 1.72,-0.85 3.34,-1.9 4.99,-2.88 0.87,-0.52 1.4,-0.46 1.33,0.73 -0.02,0.43 -0.06,0.88 0.01,1.3 0.38,2.23 -0.46,3.58 -2.64,4.39 -1.49,0.56 -2.8,1.59 -4.19,2.4 -0.51,0.3 -1.02,0.98 -1.63,0.57 -0.46,-0.31 -0.18,-1.05 -0.22,-1.59 -0.02,-0.3 0,-0.62 0,-1.19 z"
   id="path94" />
		<path
   class="st47"
   d="m 423.53,477.1 c 0.62,1.84 -0.65,2.86 -2.32,3.73 -1.7,0.89 -3.37,1.87 -5.02,2.86 -0.87,0.52 -1.39,0.55 -1.35,-0.67 0.01,-0.25 0.03,-0.5 -0.01,-0.74 -0.54,-2.76 0.64,-4.4 3.22,-5.37 1.26,-0.48 2.36,-1.35 3.54,-2.05 1.78,-1.05 1.92,-0.98 1.94,1.01 0,0.3 0,0.61 0,1.23 z"
   id="path95" />
		<path
   class="st48"
   d="m 396.2,493.02 c 0.43,1.47 -0.35,2.54 -1.94,3.34 -1.88,0.94 -3.68,2.06 -5.5,3.12 -0.81,0.47 -1.27,0.41 -1.24,-0.66 0.02,-1.06 0.02,-2.11 -0.01,-3.17 -0.03,-0.96 0.56,-1.56 1.29,-1.89 1.99,-0.9 3.73,-2.2 5.63,-3.25 1.7,-0.94 1.78,-0.9 1.78,1.06 -0.01,0.38 -0.01,0.76 -0.01,1.45 z"
   id="path96" />
		<path
   class="st38"
   d="m 396.2,499.93 c 0.43,1.58 -0.48,2.6 -2.2,3.38 -1.69,0.76 -3.27,1.78 -4.84,2.78 -1.39,0.89 -1.56,0.33 -1.69,-1.02 -0.24,-2.53 0.28,-4.44 2.9,-5.47 1.49,-0.59 2.86,-1.51 4.24,-2.35 1.33,-0.81 1.75,-0.41 1.6,1.02 -0.04,0.43 -0.01,0.87 -0.01,1.66 z"
   id="path97" />
		<path
   class="st45"
   d="m 368.61,540.37 c 0.14,0.35 0.17,0.41 0.18,0.47 0.69,3.43 -0.08,6.02 -3.77,7.25 -1.27,0.42 -2.36,1.36 -3.54,2.05 -0.84,0.49 -1.28,0.28 -1.28,-0.73 0.01,-1.12 0,-2.24 0,-3.36 0,-0.46 0.14,-0.88 0.55,-1.12 2.57,-1.5 5.14,-2.99 7.86,-4.56 z"
   id="path98" />
		<path
   class="st6"
   d="m 411.85,478.18 c 0.01,0.79 -0.53,1.27 -1.1,1.62 -1.63,1.01 -3.3,1.95 -4.97,2.89 -0.4,0.23 -0.93,0.62 -1.28,-0.02 -0.26,-0.47 -0.13,-1.05 0.32,-1.34 2.04,-1.29 4.09,-2.55 6.17,-3.76 0.49,-0.27 0.82,0.05 0.86,0.61 z"
   id="path99" />
		<path
   class="st6"
   d="m 411.87,492.17 c -0.11,0.8 -0.72,1.29 -1.36,1.64 -1.53,0.83 -3.08,1.62 -4.5,2.63 -0.43,0.31 -1.01,0.69 -1.45,-0.02 -0.38,-0.62 0,-1.13 0.47,-1.43 1.94,-1.21 3.9,-2.38 5.89,-3.51 0.6,-0.35 0.92,0.02 0.95,0.69 z"
   id="path100" />
		<path
   class="st6"
   d="m 411.85,488.59 c -0.02,0.84 -0.51,1.22 -1.05,1.54 -1.8,1.06 -3.61,2.1 -5.41,3.15 -0.29,0.17 -0.59,0.29 -0.82,-0.02 -0.3,-0.39 -0.27,-0.9 0.06,-1.2 1.9,-1.7 4.12,-2.93 6.4,-4.03 0.5,-0.24 0.8,0.14 0.82,0.56 z"
   id="path101" />
		<path
   class="st6"
   d="m 411.82,481.72 c -0.06,0.62 -0.38,0.94 -0.73,1.18 -1.75,1.18 -3.47,2.4 -5.41,3.26 -0.4,0.18 -0.87,0.43 -1.16,-0.06 -0.27,-0.47 -0.17,-1.03 0.31,-1.33 1.96,-1.2 3.92,-2.39 5.92,-3.52 0.47,-0.25 0.99,-0.1 1.07,0.47 z"
   id="path102" />
		<path
   class="st6"
   d="m 405.06,489.75 c -0.27,0.02 -0.49,-0.09 -0.58,-0.35 -0.16,-0.45 -0.11,-0.94 0.29,-1.18 2.01,-1.2 4.05,-2.35 6.09,-3.51 0.28,-0.16 0.61,-0.21 0.84,0.09 0.25,0.32 0.19,0.7 0.03,1.05 -0.28,0.58 -6.03,3.93 -6.67,3.9 z"
   id="path103" />
		<path
   class="st49"
   d="m 371.45,528.19 c 0.15,-1.42 1.46,-2.94 2.38,-2.69 0.76,0.21 1.06,0.81 0.97,1.6 -0.16,1.34 -1.52,2.85 -2.44,2.68 -0.9,-0.18 -0.95,-0.86 -0.91,-1.59 z"
   id="path104" />
		<path
   class="st50"
   d="m 374.82,538.95 c -0.07,1.36 -1.49,3.2 -2.28,3.09 -0.81,-0.11 -1.17,-0.72 -1.06,-1.47 0.2,-1.35 0.77,-2.55 2.29,-2.76 0.92,-0.14 1.05,0.64 1.05,1.14 z"
   id="path105" />
		<path
   class="st51"
   d="m 402.14,495.19 c -0.11,1.4 -1.57,3.21 -2.35,3.04 -0.76,-0.17 -1.09,-0.74 -1.01,-1.53 0.14,-1.32 1.43,-2.85 2.35,-2.74 0.91,0.09 1.04,0.73 1.01,1.23 z"
   id="path106" />
		<path
   class="st52"
   d="m 371.44,534.63 c 0.09,-1.59 1.4,-3.06 2.41,-2.95 0.83,0.09 0.96,0.67 0.95,1.34 -0.02,1.25 -1.34,2.85 -2.3,2.81 -0.96,-0.04 -1.04,-0.72 -1.06,-1.2 z"
   id="path107" />
		<path
   class="st53"
   d="m 401.23,487.9 c 0.75,0.07 0.94,0.68 0.91,1.43 -0.05,1.24 -1.42,2.76 -2.42,2.66 -0.82,-0.08 -0.94,-0.67 -0.93,-1.34 0.01,-1.25 1.31,-2.8 2.44,-2.75 z"
   id="path108" />
		<path
   class="st54"
   d="m 429.45,473.49 c 0,1.19 -1.39,2.82 -2.37,2.75 -0.7,-0.05 -0.94,-0.5 -0.95,-1.14 -0.03,-1.25 1.16,-2.91 2.15,-2.94 0.91,-0.02 1.19,0.53 1.17,1.33 z"
   id="path109" />
		<path
   class="st55"
   d="m 373.99,509.57 c 0.56,0.66 0.87,1.44 1.11,2.26 -0.79,0.24 -0.96,1.09 -1.53,1.56 -0.47,0.38 -0.86,0.71 -1.48,0.37 -0.67,-0.37 -0.74,-0.98 -0.55,-1.61 0.37,-1.27 1.15,-2.18 2.45,-2.58 z"
   id="path110" />
		<path
   class="st56"
   d="m 374.43,505.93 c -0.49,-0.26 -0.89,-1.06 -1.55,-0.46 -0.76,0.7 0.03,1.48 0.03,2.22 -1.38,0.24 -1.61,-0.57 -1.44,-1.65 0.21,-1.38 1.66,-2.74 2.6,-2.38 1.3,0.49 0.74,1.43 0.36,2.27 z"
   id="path111" />
		<path
   class="st35"
   d="m 360.16,561.82 c -0.52,-1.73 0.62,-2.73 2.28,-3.56 1.66,-0.82 3.23,-1.82 4.83,-2.77 1.07,-0.64 1.5,-0.65 1.64,0.86 0.26,2.78 -0.39,4.78 -3.24,5.81 -1.32,0.48 -2.48,1.39 -3.72,2.08 -0.47,0.26 -0.92,0.86 -1.48,0.55 -0.56,-0.31 -0.25,-1.01 -0.31,-1.54 -0.03,-0.37 0,-0.74 0,-1.43 z"
   id="path112" />
		<path
   class="st57"
   d="m 368.85,564.91 c 0.61,1.78 -0.66,2.7 -2.28,3.52 -1.71,0.87 -3.35,1.89 -5,2.87 -1.04,0.62 -1.28,0.31 -1.43,-0.85 -0.37,-2.92 0.33,-5.01 3.4,-6.02 1.33,-0.44 2.54,-1.3 3.72,-2.09 1.34,-0.9 1.71,-0.47 1.6,0.95 -0.04,0.43 -0.01,0.87 -0.01,1.62 z"
   id="path113" />
		<path
   class="st46"
   d="m 368.86,571.59 c 0.49,1.7 -0.42,2.78 -2.22,3.59 -1.68,0.76 -3.19,1.91 -4.81,2.82 -0.95,0.54 -1.79,0.71 -1.66,-0.91 0.07,-0.87 0.07,-1.75 0.02,-2.61 -0.05,-0.93 0.33,-1.52 1.13,-1.96 2.01,-1.11 4.05,-2.18 6,-3.39 1.48,-0.92 1.66,-0.28 1.54,1.03 -0.03,0.37 0,0.75 0,1.43 z"
   id="path114" />
		<path
   class="st58"
   d="m 374.79,554.94 c -0.02,1.04 -1.45,2.91 -2.24,2.83 -0.8,-0.08 -1.11,-0.65 -1.13,-1.43 -0.02,-1.32 1.32,-2.96 2.37,-2.86 0.92,0.08 1.03,0.72 1,1.46 z"
   id="path115" />
		<path
   class="st59"
   d="m 371.44,562.55 c 0.14,-1.51 1.51,-2.98 2.48,-2.81 0.8,0.14 0.91,0.73 0.88,1.4 -0.07,1.26 -1.43,2.85 -2.37,2.74 -0.92,-0.11 -1.01,-0.78 -0.99,-1.33 z"
   id="path116" />
		<path
   class="st60"
   d="m 374.79,567.49 c -0.37,1.06 -0.79,2.28 -2.27,2.41 -0.88,0.08 -1.11,-0.62 -1.04,-1.39 0.11,-1.3 1.44,-2.82 2.39,-2.7 0.9,0.12 0.97,0.82 0.92,1.68 z"
   id="path117" />
		<path
   class="st1"
   d="m 432.49,487.57 c 3.22,-1.82 6.43,-3.66 9.67,-5.45 1.5,-0.83 2.87,-1.91 4.53,-2.44 1.5,-0.43 3.14,-0.5 4.25,-1.87 0.31,-0.39 0.88,-0.4 1.33,0 -0.74,1.08 -0.04,2.14 -0.01,3.22 0.1,5.4 0.05,10.79 0.04,16.19 0,0.53 0.13,1.06 -0.85,1 -0.91,-0.06 -1.88,0.46 -2.06,1.47 -0.27,1.48 1.4,0.57 1.8,1.3 -1.04,1.11 -2.4,1.78 -3.71,2.45 -2.83,1.46 -5.46,3.26 -8.27,4.74 -0.58,0.31 -1.05,0.94 -1.84,0.64 -0.81,-3.11 -0.94,-6.34 -1.6,-9.49 -0.86,-3.99 -2.12,-7.86 -3.28,-11.76 z"
   id="path118" />
		<path
   class="st1"
   d="m 414.98,583.69 c -0.03,0.03 -0.07,0.07 -0.1,0.12 -0.02,-0.02 -0.03,-0.02 -0.05,-0.03 0.05,-0.04 0.1,-0.07 0.15,-0.09 z"
   id="path119" />
		<path
   class="st1"
   d="m 418.83,581.24 c -0.02,0.02 -0.03,0.02 -0.05,0.03 -0.07,-0.03 -0.14,-0.09 -0.2,-0.14 0.08,0.05 0.16,0.08 0.25,0.11 z"
   id="path120" />
		<path
   class="st1"
   d="m 428.96,575.24 c -0.05,0.02 -0.08,0.05 -0.12,0.07 -0.03,-0.07 -0.08,-0.15 -0.14,-0.22 0.09,0.05 0.17,0.09 0.26,0.15 z"
   id="path121" />
		<path
   class="st1"
   d="m 434.9,571.67 c -0.19,0.1 -0.37,0.2 -0.56,0.32 -0.12,-0.08 -0.25,-0.15 -0.37,-0.22 0.34,-0.23 0.65,-0.22 0.93,-0.1 z"
   id="path122" />
		<path
   class="st61"
   d="m 418.83,581.24 c -0.02,0.02 -0.03,0.02 -0.05,0.03 -0.07,-0.03 -0.14,-0.09 -0.2,-0.14 0.08,0.05 0.16,0.08 0.25,0.11 z"
   id="path123" />
		<path
   class="st61"
   d="m 428.96,575.24 c -0.05,0.02 -0.08,0.05 -0.12,0.07 -0.03,-0.07 -0.08,-0.15 -0.14,-0.22 0.09,0.05 0.17,0.09 0.26,0.15 z"
   id="path124" />
		<path
   class="st6"
   d="m 434.9,571.67 c -0.19,0.1 -0.37,0.2 -0.56,0.32 -0.12,-0.08 -0.25,-0.15 -0.37,-0.22 0.34,-0.23 0.65,-0.22 0.93,-0.1 z"
   id="path125" />
		<path
   class="st6"
   d="m 345.51,438.28 c 2.33,-1.36 4.52,-2.64 6.71,-3.91 8.73,-5.08 17.47,-10.14 26.18,-15.25 1.09,-0.64 1.89,-0.67 3.03,0 13.68,7.97 27.4,15.87 41.1,23.8 0.47,0.27 1.25,0.37 1.25,0.99 0,0.6 -0.76,0.74 -1.23,1.01 -10.55,6.15 -21.12,12.29 -31.66,18.46 -0.78,0.46 -1.41,0.51 -2.23,0.03 -14.02,-8.13 -28.05,-16.24 -42.08,-24.36 -0.31,-0.17 -0.59,-0.42 -1.07,-0.77 z"
   id="path126" />
		<path
   class="st6"
   d="m 377.45,471.1 c -1.84,1.08 -3.53,2.08 -5.23,3.06 -9.27,5.38 -18.54,10.75 -27.79,16.16 -0.96,0.56 -1.68,0.64 -2.71,0.04 -13.9,-8.08 -27.82,-16.11 -41.76,-24.11 -1.3,-0.74 -0.95,-1.02 0.09,-1.62 10.63,-6.14 21.24,-12.31 31.83,-18.51 0.91,-0.53 1.62,-0.63 2.56,-0.08 14.06,8.16 28.15,16.29 42.23,24.43 0.19,0.13 0.37,0.3 0.78,0.63 z"
   id="path127" />
		<path
   class="st6"
   d="m 374.94,415.57 c -8.76,5.09 -17.26,10.04 -25.77,14.98 -2.48,1.44 -4.99,2.83 -7.42,4.35 -0.95,0.6 -1.65,0.49 -2.55,-0.04 -7.48,-4.36 -14.98,-8.69 -22.49,-13 -1.07,-0.62 -1.47,-0.99 -0.08,-1.79 10.63,-6.13 21.24,-12.31 31.85,-18.48 0.71,-0.41 1.34,-0.71 2.23,-0.2 7.85,4.59 15.73,9.13 23.6,13.68 0.16,0.09 0.29,0.23 0.63,0.5 z"
   id="path128" />
		<path
   class="st6"
   d="m 268.68,447.95 c 6.26,-3.64 12.29,-7.15 18.32,-10.66 4.9,-2.85 9.83,-5.66 14.69,-8.58 1.02,-0.61 1.74,-0.54 2.71,0.02 7.38,4.3 14.79,8.54 22.18,12.81 1.79,1.03 1.79,1.06 -0.04,2.12 -10.4,6.05 -20.81,12.09 -31.21,18.14 -0.89,0.52 -1.66,0.84 -2.74,0.21 -7.69,-4.51 -15.42,-8.95 -23.13,-13.41 -0.2,-0.1 -0.37,-0.29 -0.78,-0.65 z"
   id="path129" />
		<path
   class="st1"
   d="m 379.39,517.9 c 2.24,-0.33 3.94,-1.81 5.8,-2.86 5.93,-3.36 11.75,-6.92 17.66,-10.34 8.84,-5.11 17.72,-10.17 26.58,-15.25 0.47,-0.27 1.07,-0.41 1.19,-1.07 2.71,6.96 4.23,14.17 4.78,21.61 -1.05,1.19 -2.45,1.88 -3.79,2.65 -7.67,4.46 -15.4,8.83 -23.07,13.31 -0.6,0.35 -0.99,0.94 -1.59,1.27 -1.37,-2.84 -2.63,-5.74 -4.44,-8.35 -0.31,-0.44 -0.46,-1.01 -0.64,-1.53 -0.17,-0.47 0.07,-1.38 -0.76,-1.21 -1.18,0.24 -1.79,1.26 -2.15,2.34 -0.21,0.61 0.17,1.42 0.64,1.31 1.66,-0.37 1.68,1.07 2.33,1.83 -0.19,1.03 -1.37,0.93 -1.86,1.64 -0.39,0.56 -0.85,1.09 -0.66,1.83 0.09,0.35 0.4,0.46 0.73,0.42 0.8,-0.1 1.06,-0.72 1.34,-1.36 0.27,-0.62 0.01,-1.55 0.97,-1.79 0.87,1.74 1.92,3.39 2.53,5.25 -1.7,1.79 -3.98,2.7 -6.05,3.91 -4.44,2.6 -8.96,5.09 -13.4,7.7 -0.74,0.44 -1.4,1.36 -2.48,0.71 -0.61,-4.49 -1.25,-8.99 -1.84,-13.48 -0.38,-2.9 -1.2,-5.7 -1.82,-8.54 z"
   id="path130" />
		<path
   class="st1"
   d="m 434.75,538.76 c -0.46,-0.45 -0.76,-0.03 -1.13,0.18 -7.37,4.25 -14.74,8.5 -22.11,12.74 -0.21,0.12 -0.46,0.15 -0.7,0.23 0.15,-6.74 -0.74,-13.35 -2.37,-19.88 -0.21,-0.84 -0.43,-1.68 -0.64,-2.51 4.21,-2.53 8.52,-4.89 12.76,-7.36 4.51,-2.63 9.03,-5.25 13.55,-7.88 0.52,-0.3 0.99,-0.8 1.69,-0.49 0.64,2.48 0.5,5.03 0.56,7.55 0.04,1.72 -0.09,3.44 -0.11,5.15 -0.03,4.14 -0.73,8.21 -1.5,12.27 z"
   id="path131" />
		<path
   class="st1"
   d="m 435.79,513.78 c -8.51,4.93 -17.01,9.87 -25.55,14.76 -0.74,0.43 -1.36,1.35 -2.45,0.98 -0.28,-0.77 -0.57,-1.54 -0.85,-2.31 0.17,-1.93 2.06,-2.05 3.2,-2.73 8.18,-4.89 16.46,-9.59 24.72,-14.35 0.16,-0.09 0.35,-0.1 0.53,-0.15 0.14,1.27 0.27,2.53 0.4,3.8 z"
   id="path132" />
		<path
   class="st4"
   d="m 408.46,553.43 c -4.34,2.53 -8.67,5.06 -13.02,7.58 -4.35,2.52 -8.7,5.04 -13.05,7.55 -0.59,0.34 -1.21,0.62 -1.81,0.92 0.65,-5.49 1.92,-10.9 2.26,-16.42 0.2,-3.1 0.21,-6.22 0.3,-9.33 5.78,-3.43 11.73,-6.55 17.41,-10.14 1.78,-1.12 3.85,-1.77 5.37,-3.32 2.29,7.56 3.83,15.2 2.54,23.16 z"
   id="path133" />
		<path
   class="st1"
   d="m 405.92,530.26 c -0.03,0.75 -0.4,1.11 -1.1,1.51 -6.58,3.74 -13.1,7.59 -19.65,11.36 -0.6,0.34 -1.18,1.01 -2.03,0.58 -0.03,-1.26 -0.06,-2.53 -0.09,-3.79 2.9,-1.24 5.45,-3.09 8.2,-4.6 4.6,-2.54 9.15,-5.15 13.72,-7.73 0.32,0.9 0.64,1.78 0.95,2.67 z"
   id="path134" />
		<path
   class="st62"
   d="m 402.45,522.35 c -0.25,0.88 -0.41,1.79 -0.76,2.62 -0.44,1.07 -1.43,1.53 -2.41,1.02 -0.95,-0.49 -0.52,-1.42 -0.2,-2.26 0.51,-1.35 1.78,-1.58 2.84,-2.12 0.18,0.24 0.35,0.49 0.53,0.74 z"
   id="path135" />
		<path
   class="st45"
   d="m 387.48,517.98 c -0.63,-1.91 0.78,-2.89 2.53,-3.76 1.61,-0.8 3.19,-1.69 4.72,-2.64 1.02,-0.64 1.47,-0.54 1.44,0.72 0,0.06 -0.01,0.13 0,0.19 0.52,2.88 -0.44,4.86 -3.31,5.91 -1.27,0.46 -2.39,1.31 -3.58,1.99 -0.47,0.27 -0.9,0.87 -1.47,0.6 -0.61,-0.29 -0.27,-1 -0.33,-1.53 -0.03,-0.36 0,-0.74 0,-1.48 z"
   id="path136" />
		<path
   class="st57"
   d="m 414.85,502.31 c -0.58,-1.71 0.45,-2.78 2.15,-3.63 1.66,-0.83 3.24,-1.84 4.83,-2.8 1.26,-0.76 1.82,-0.47 1.7,1.03 -0.04,0.49 -0.04,1 0.01,1.49 0.17,1.59 -0.31,2.64 -1.92,3.34 -1.81,0.79 -3.5,1.89 -5.14,3 -1.48,1 -1.78,0.47 -1.64,-1 0.04,-0.37 0.01,-0.74 0.01,-1.43 z"
   id="path137" />
		<path
   class="st63"
   d="m 414.84,508.99 c -0.57,-1.76 0.53,-2.73 2.27,-3.52 1.74,-0.79 3.34,-1.89 4.99,-2.86 0.99,-0.58 1.49,-0.38 1.43,0.84 -0.04,0.81 -0.06,1.62 0.02,2.42 0.11,1.14 -0.36,1.84 -1.36,2.38 -1.86,0.99 -3.65,2.1 -5.48,3.15 -0.51,0.29 -1,0.99 -1.62,0.6 -0.48,-0.31 -0.2,-1.04 -0.25,-1.58 -0.03,-0.38 0,-0.75 0,-1.43 z"
   id="path138" />
		<path
   class="st64"
   d="m 387.49,524.78 c -0.54,-1.72 0.53,-2.7 2.27,-3.5 1.74,-0.8 3.35,-1.88 4.98,-2.88 1.16,-0.71 1.32,-0.33 1.49,0.89 0.41,2.93 -0.5,4.87 -3.38,5.92 -1.26,0.46 -2.36,1.37 -3.55,2.04 -1.72,0.97 -1.81,0.91 -1.82,-1.01 0.01,-0.38 0.01,-0.76 0.01,-1.46 z"
   id="path139" />
		<path
   class="st48"
   d="m 414.84,515.8 c -0.63,-1.79 0.66,-2.7 2.28,-3.52 1.6,-0.82 3.14,-1.76 4.66,-2.71 1.18,-0.73 1.67,-0.87 1.83,0.92 0.24,2.76 -0.43,4.64 -3.22,5.63 -1.33,0.47 -2.49,1.39 -3.73,2.1 -0.47,0.27 -0.95,0.81 -1.49,0.55 -0.6,-0.29 -0.24,-1 -0.32,-1.53 -0.06,-0.36 -0.01,-0.74 -0.01,-1.44 z"
   id="path140" />
		<path
   class="st48"
   d="m 396.19,527.73 c 0.5,1.83 -0.52,2.92 -2.38,3.71 -1.59,0.68 -3.01,1.75 -4.53,2.58 -1.7,0.92 -1.74,0.87 -1.74,-1.14 0,-0.75 0.02,-1.5 -0.02,-2.24 -0.04,-0.92 0.38,-1.52 1.16,-1.95 1.95,-1.09 3.93,-2.15 5.82,-3.33 1.35,-0.84 1.88,-0.66 1.7,0.98 -0.04,0.37 -0.01,0.75 -0.01,1.39 z"
   id="path141" />
		<path
   class="st65"
   d="m 426.12,503.12 c 0.03,-1.4 1.55,-3.24 2.45,-3.12 0.81,0.11 0.98,0.75 0.86,1.4 -0.23,1.34 -0.73,2.6 -2.23,2.89 -0.9,0.17 -1.07,-0.61 -1.08,-1.17 z"
   id="path142" />
		<path
   class="st66"
   d="m 429.48,495.41 c -0.14,1.36 -0.85,2.34 -2.2,2.6 -0.85,0.16 -1.22,-0.53 -1.15,-1.32 0.11,-1.35 0.75,-2.43 2.12,-2.73 0.96,-0.21 1.24,0.57 1.23,1.45 z"
   id="path143" />
		<path
   class="st67"
   d="m 429.47,507.51 c -0.09,1.53 -1.37,2.98 -2.39,2.87 -0.95,-0.11 -1.06,-0.82 -0.92,-1.52 0.26,-1.26 0.81,-2.42 2.27,-2.59 0.93,-0.1 1.05,0.68 1.04,1.24 z"
   id="path144" />
		<path
   class="st68"
   d="m 398.78,512.45 c 0.07,-1.26 1.41,-2.83 2.38,-2.76 0.82,0.06 0.98,0.64 0.97,1.33 -0.02,1.27 -1.28,2.82 -2.29,2.82 -0.97,0 -1.12,-0.62 -1.06,-1.39 z"
   id="path145" />
		<path
   class="st37"
   d="m 414.84,537.16 c -0.41,-1.64 0.33,-2.79 2.18,-3.59 1.8,-0.78 3.44,-1.95 5.13,-2.99 0.95,-0.59 1.37,-0.35 1.37,0.74 0,0.06 -0.01,0.13 0,0.19 0.51,2.92 -0.35,4.97 -3.4,5.96 -1.26,0.41 -2.34,1.37 -3.51,2.07 -0.46,0.28 -0.91,0.86 -1.47,0.57 -0.58,-0.3 -0.24,-1.01 -0.3,-1.53 -0.03,-0.38 0,-0.76 0,-1.42 z"
   id="path146" />
		<path
   class="st35"
   d="m 414.84,543.87 c -0.59,-1.87 0.73,-2.8 2.43,-3.63 1.66,-0.82 3.23,-1.84 4.83,-2.78 0.9,-0.52 1.54,-0.58 1.44,0.77 -0.01,0.12 -0.02,0.25 0,0.37 0.52,2.66 -0.41,4.48 -2.99,5.53 -1.36,0.56 -2.59,1.43 -3.89,2.15 -1.76,0.97 -1.8,0.95 -1.82,-0.99 0,-0.36 0,-0.74 0,-1.42 z"
   id="path147" />
		<path
   class="st45"
   d="m 414.84,530.32 c -0.51,-1.71 0.48,-2.74 2.12,-3.55 1.78,-0.88 3.47,-1.94 5.19,-2.95 0.93,-0.55 1.27,-0.36 1.39,0.75 0.29,2.68 -0.05,4.85 -3.07,5.89 -1.44,0.49 -2.7,1.51 -4.01,2.34 -1.22,0.77 -1.78,0.59 -1.62,-0.95 0.04,-0.42 0,-0.86 0,-1.53 z"
   id="path148" />
		<path
   class="st69"
   d="m 426.13,530.85 c 0.11,-1.25 1.49,-2.88 2.36,-2.74 0.85,0.14 1.13,0.76 0.94,1.51 -0.32,1.29 -0.8,2.6 -2.37,2.72 -0.92,0.07 -0.94,-0.78 -0.93,-1.49 z"
   id="path149" />
		<path
   class="st70"
   d="m 429.46,535.79 c -0.11,1.34 -1.45,2.84 -2.43,2.67 -0.79,-0.13 -0.94,-0.7 -0.9,-1.39 0.07,-1.33 1.34,-2.85 2.34,-2.76 0.94,0.07 1.04,0.73 0.99,1.48 z"
   id="path150" />
		<path
   class="st71"
   d="m 429.38,523.88 c -0.32,0.91 -0.77,2.14 -2.28,2.21 -0.88,0.04 -1.04,-0.75 -1,-1.49 0.07,-1.25 1.36,-2.64 2.35,-2.51 0.85,0.12 1.14,0.67 0.93,1.79 z"
   id="path151" />
		<path
   class="st35"
   d="m 396.19,548.89 c 0.64,1.99 -0.59,3.07 -2.53,3.93 -1.7,0.75 -3.26,1.8 -4.86,2.76 -0.98,0.59 -1.33,0.34 -1.3,-0.76 0.03,-0.93 0.07,-1.88 -0.02,-2.8 -0.1,-1.02 0.34,-1.62 1.18,-2.09 1.9,-1.06 3.77,-2.17 5.66,-3.25 1.74,-1 1.87,-0.93 1.87,1.15 0,0.24 0,0.49 0,1.06 z"
   id="path152" />
		<path
   class="st72"
   d="m 396.18,538.84 c 0,1.86 0.02,3.4 -0.01,4.93 -0.01,0.71 -0.54,1.07 -1.1,1.38 -2.11,1.2 -4.23,2.36 -6.3,3.62 -1.03,0.62 -1.33,0.34 -1.27,-0.73 0,-0.06 0.01,-0.13 0,-0.19 -0.54,-2.95 0.45,-4.94 3.39,-6.06 1.75,-0.68 3.32,-1.83 5.29,-2.95 z"
   id="path153" />
		<path
   class="st36"
   d="m 396.21,555.9 c 0.64,1.85 -0.7,2.77 -2.42,3.61 -1.73,0.85 -3.35,1.91 -5.02,2.89 -0.8,0.47 -1.28,0.4 -1.25,-0.68 0.03,-1.12 0.03,-2.25 0,-3.37 -0.02,-0.73 0.34,-1.12 0.94,-1.46 1.96,-1.09 3.89,-2.22 5.83,-3.34 0.53,-0.31 1.09,-0.89 1.68,-0.52 0.49,0.3 0.19,1.04 0.23,1.58 0.03,0.3 0.01,0.62 0.01,1.29 z"
   id="path154" />
		<path
   class="st73"
   d="m 402.16,551.57 c -0.1,1.12 -1.58,2.98 -2.33,2.82 -0.87,-0.18 -1.11,-0.88 -1.05,-1.7 0.1,-1.32 1.43,-2.77 2.41,-2.62 0.88,0.13 1.03,0.75 0.97,1.5 z"
   id="path155" />
		<path
   class="st74"
   d="m 402.13,545.19 c -0.05,1.41 -1.28,2.97 -2.34,2.92 -0.94,-0.04 -1.04,-0.71 -1.01,-1.44 0.05,-1.19 1.61,-3 2.48,-2.88 0.79,0.12 0.89,0.74 0.87,1.4 z"
   id="path156" />
		<path
   class="st75"
   d="m 398.78,540.51 c 0.03,-1.27 1.34,-2.85 2.32,-2.78 0.8,0.06 1.02,0.6 1.02,1.29 0.01,1.24 -1.24,2.86 -2.25,2.87 -0.93,0.01 -1.11,-0.61 -1.09,-1.38 z"
   id="path157" />
		<path
   class="st76"
   d="m 256.92,567.9 c 6.68,3.88 13.36,7.73 20.04,11.59 -6.68,-3.86 -13.36,-7.72 -20.04,-11.57 -0.7,-0.41 -1.41,-0.82 -2.12,-1.22 0.7,0.38 1.42,0.79 2.12,1.2 z"
   id="path158" />
		<path
   class="st76"
   d="m 354.22,612.92 c -0.05,-0.05 -0.12,-0.1 -0.19,-0.19 l 0.24,-0.14 c 0.03,0.08 0.05,0.17 0.05,0.25 v 0.02 c 0,0.02 0.02,0.03 0,0.05 h -0.1 z"
   id="path159" />
		<path
   class="st76"
   d="m 414.98,583.69 c -0.03,0.03 -0.07,0.07 -0.1,0.12 -0.02,-0.02 -0.03,-0.02 -0.05,-0.03 0.05,-0.04 0.1,-0.07 0.15,-0.09 z"
   id="path160" />
		<path
   class="st76"
   d="m 418.83,581.24 c -0.02,0.02 -0.03,0.02 -0.05,0.03 -0.07,-0.03 -0.14,-0.09 -0.2,-0.14 0.08,0.05 0.16,0.08 0.25,0.11 z"
   id="path161" />
		<path
   class="st76"
   d="m 428.96,575.24 c -0.05,0.02 -0.08,0.05 -0.12,0.07 -0.03,-0.07 -0.08,-0.15 -0.14,-0.22 0.09,0.05 0.17,0.09 0.26,0.15 z"
   id="path162" />
		<path
   class="st76"
   d="m 434.9,571.67 c -0.19,0.1 -0.37,0.2 -0.56,0.32 -0.12,-0.08 -0.25,-0.15 -0.37,-0.22 0.34,-0.23 0.65,-0.22 0.93,-0.1 z"
   id="path163" />
	</g>
<text
   xml:space="preserve"
   id="text3"
   style="font-style:normal;font-variant:normal;font-weight:normal;font-stretch:normal;font-size:160px;font-family:sans-serif;-inkscape-font-specification:'sans-serif, Normal';font-variant-ligatures:normal;font-variant-caps:normal;font-variant-numeric:normal;font-variant-east-asian:normal;white-space:pre;shape-inside:url(#rect3);display:inline;fill:#ffffff"
   transform="translate(66,22)"><tspan
     x="221.78516"
     y="151.96699"
     id="tspan1">busylink.io</tspan></text></svg>
