<?xml version="1.0" encoding="utf-8"?>
<!-- Generator: Adobe Illustrator 27.0.0, SVG Export Plug-In . SVG Version: 6.00 Build 0)  -->
<svg version="1.1" id="Layer_1" xmlns="http://www.w3.org/2000/svg" xmlns:xlink="http://www.w3.org/1999/xlink" x="0px" y="0px"
	 viewBox="0 0 1200 1000" style="enable-background:new 0 0 1200 1000;" xml:space="preserve">
<style type="text/css">
	.st0{fill:#00008B;}
	.st1{fill:#066C9D;}
	.st2{fill:#C7CBE0;}
	.st3{fill:#C9CCE1;}
	.st4{fill:#4B5B73;}
	.st5{fill:#C8CCE1;}
	.st6{fill:#00D6D6;}
	.st7{fill:#E1E6EF;}
	.st8{fill:#FEFEFE;}
	.st9{fill:#E55373;}
	.st10{fill:#7ADF61;}
	.st11{fill:#E65372;}
	.st12{fill:#EDCB72;}
	.st13{fill:#7ADC60;}
	.st14{fill:#4B5B74;}
	.st15{fill:#DDE4F2;}
	.st16{fill:#5AB1F7;}
	.st17{fill:#5AB2F6;}
	.st18{fill:#5AB1F5;}
	.st19{fill:#57647E;}
	.st20{fill:#53617A;}
	.st21{fill:#55627B;}
	.st22{fill:#56637C;}
	.st23{fill:#D65777;}
	.st24{fill:#EECB75;}
	.st25{fill:#D95876;}
	.st26{fill:#F2CA6F;}
	.st27{fill:#E9516F;}
	.st28{fill:#77E15C;}
	.st29{fill:#EA5271;}
	.st30{fill:#78E35E;}
	.st31{fill:#C7D4FD;}
	.st32{fill:#E65574;}
	.st33{fill:#F5CD75;}
	.st34{fill:#F3CC76;}
	.st35{fill:#58B1F9;}
	.st36{fill:#58B1F8;}
	.st37{fill:#58B2F9;}
	.st38{fill:#57B1F8;}
	.st39{fill:#DB5873;}
	.st40{fill:#7ADB67;}
	.st41{fill:#ECC974;}
	.st42{fill:#78DD63;}
	.st43{fill:#D35575;}
	.st44{fill:#78DD67;}
	.st45{fill:#57B2F9;}
	.st46{fill:#56B2F9;}
	.st47{fill:#58B2F8;}
	.st48{fill:#57B1F9;}
	.st49{fill:#DD5573;}
	.st50{fill:#7ADB66;}
	.st51{fill:#DE5473;}
	.st52{fill:#ECCA72;}
	.st53{fill:#79DC67;}
	.st54{fill:#79DC65;}
	.st55{fill:#7EDD5F;}
	.st56{fill:#69AAD4;}
	.st57{fill:#57B2F8;}
	.st58{fill:#DC5574;}
	.st59{fill:#EDCA79;}
	.st60{fill:#7BDB64;}
	.st61{fill:#C3B28F;}
	.st62{fill:#D35670;}
	.st63{fill:#59B1F8;}
	.st64{fill:#57B1FA;}
	.st65{fill:#79DA64;}
	.st66{fill:#DB5572;}
	.st67{fill:#E9CB77;}
	.st68{fill:#EBC879;}
	.st69{fill:#79DA67;}
	.st70{fill:#E8C778;}
	.st71{fill:#D95574;}
	.st72{fill:#59B1F9;}
	.st73{fill:#C85673;}
	.st74{fill:#79DA68;}
	.st75{fill:#ECCA73;}
	.st76{fill:#FFFFFF;}
</style>
<g>
	<g>
		<path class="st0" d="M516.38,479c-5.08,0-13,2.75-15.84,7.73v-26.7h-11.94v68.35h11.16l0.78-6.65c3.72,5.77,9.68,7.73,15.55,7.73
			c14.18,0,24.83-9.39,24.83-25.24C540.93,487.61,530.47,479,516.38,479z M515.31,518.41c-7.53,0-13.98-5.48-13.98-14.18
			c0-8.41,6.45-14.07,13.98-14.07c7.63,0,13.7,5.37,13.7,14.07C529.01,512.64,522.94,518.41,515.31,518.41z"/>
		<path class="st0" d="M585.92,480.18v24.64c0,7.34-4.99,13.5-12.33,13.5c-7.62,0-11.63-5.57-11.63-12.91v-25.23h-11.94v25.33
			c0,14.97,8.41,23.67,19.95,23.67c6.75,0,11.35-2.35,16.33-7.24l0.78,6.56h10.66v-48.31H585.92z"/>
		<path class="st0" d="M628.06,498.76c-6.16-0.39-9-2.15-9-5.28c0-3.03,3.13-4.79,8.8-4.79c4.6,0,8.51,1.07,11.93,4.3l6.66-7.82
			c-5.57-4.88-11.25-6.35-18.78-6.35c-8.8,0-20.35,3.91-20.35,15.06c0,10.95,10.85,14.28,19.95,14.97c6.85,0.39,9.59,1.76,9.59,5.09
			c0,3.52-4.2,5.87-8.7,5.77c-5.38-0.09-13.2-2.93-16.63-6.75l-5.87,8.51c7.04,7.34,14.67,8.6,22.3,8.6
			c13.78,0,20.73-7.33,20.73-15.84C648.7,501.4,637.16,499.35,628.06,498.76z"/>
		<path class="st0" d="M691.72,480.18l-8.8,21.13l-4.99,13.29l-4.59-13.59l-7.34-20.83h-13.89l19.27,47.43l-9,20.93h13.1
			l29.43-68.36H691.72z"/>
		<path class="st0" d="M711.19,460.03v68.35h11.83v-68.35H711.19z"/>
		<path class="st0" d="M733.48,479.98v48.4h11.94v-48.4H733.48z M732.41,466.59c0,9.28,14.08,9.28,14.08,0
			C746.49,457.3,732.41,457.3,732.41,466.59z"/>
		<path class="st0" d="M783.16,479.39c-6.06,0-10.95,2.44-15.85,7.23l-0.78-6.56h-10.66v48.31h11.83v-24.64
			c0-7.34,4.99-13.5,12.32-13.5c7.63,0,11.64,5.57,11.64,12.91v25.23h11.93v-25.32C803.6,487.91,794.51,479.39,783.16,479.39z"/>
		<path class="st0" d="M836.35,502.86l19.66-22v-0.69h-14.28l-16.23,19.36v-39.51h-11.94v68.35h11.94v-21.81l18.88,21.81h14.37
			v-0.87L836.35,502.86z"/>
		<path class="st0" d="M863.93,522.22c0,9.29,14.08,9.29,14.08,0S863.93,512.93,863.93,522.22z"/>
		<path class="st0" d="M887.89,479.98v48.4h11.94v-48.4H887.89z M886.81,466.59c0,9.28,14.08,9.28,14.08,0
			C900.9,457.3,886.81,457.3,886.81,466.59z"/>
		<path class="st0" d="M934.34,479.2c-15.36,0-24.95,11.34-24.95,25.13c0,13.89,9.39,25.14,25.04,25.14
			c15.64,0,25.14-11.25,25.14-25.14C959.57,490.54,949.69,479.2,934.34,479.2z M934.44,518.52c-8.7,0-13.1-6.85-13.1-14.18
			c0-7.23,4.5-14.28,13.1-14.28c8.02,0,13.11,7.04,13.11,14.28C947.55,511.67,943.14,518.52,934.44,518.52z"/>
	</g>
	<path class="st1" d="M450.46,474.35c-1.1-0.39-1.46-1.18-1.55-2.3c-0.22-2.63,0.84-5.28-0.25-7.9c-0.24-0.59,0.26-1.36,0.94-1.65
		c0.55-0.23,1.48-0.22,1.11-1.07c-0.35-0.79-0.33-2.09-1.75-2.02c1.06-0.72,2.32-2.09,3.31-1.63c0.93,0.43,0.33,2.26,0.33,3.46
		c0.02,17.19,0.02,34.37-0.03,51.56c-0.02,7.28-0.17,14.56-0.26,21.83c-3.5,0.81-6.38,2.92-9.4,4.68c-1.55,0.91-3.12,1.78-4.68,2.68
		c-0.52,0.3-1.14,0.68-1.54-0.21c0.09-3.74,0.75-7.43,0.9-11.16c0.13-3.3,0.07-6.59-0.29-9.87c-0.09-0.87-0.22-1.73,0.02-2.59
		c1.69-2.18,4.3-3.04,6.54-4.4c2.16-1.31,4.39-2.52,6.63-3.72c1.72-0.92,1.76-2.33,0.15-3.57c-0.74-0.28-1.67-0.36-1.68-1.45
		c-0.01-0.94,0.62-1.52,1.38-1.82c1.23-0.47,1.41-1.37,1.4-2.52c-0.04-4.42-0.05-8.83,0.01-13.25c0.02-1.46-0.98-2.9-0.07-4.37
		c0.06-0.48,0.06-0.97,0.09-1.46c0.16-1.31-0.09-2.5-0.99-3.5C448.9,476.2,448.88,476.02,450.46,474.35
		c0.72-0.13,1.06,0.27,1.27,0.75c0.43-3.31,0.09-6.8-0.09-10.31c-0.38,0.8-0.39,1.65-0.11,2.45c0.56,1.58,0.34,3.2,0.4,4.81
		C451.96,473.18,451.56,474,450.46,474.35z"/>
	<path class="st1" d="M437.07,501.72c4.23-2.4,8.49-4.74,12.67-7.23c0.94-0.56,1.69-0.53,2.58-0.25c0.18,1.01,0.32,2.01,0.02,3.02
		c-3.44,1.57-6.57,3.7-9.87,5.53c-1.68,0.93-3.31,1.96-4.96,2.96c-0.76,0.46-0.98,0.11-0.99-0.61
		C435.91,503.87,436.17,502.75,437.07,501.72z"/>
	<path class="st2" d="M447.39,500.59c0,1.99,0.01,3.98,0,5.96c-0.02,2.34-0.93,2.83-2.99,1.63c-0.22-0.12-0.45-0.23-0.64-0.38
		c-0.68-0.54-1.89-0.69-1.6-1.97c0.24-1.08,1.03-1.21,2.01-1.06c0.68,0.11,0.6-0.52,0.57-0.91c-0.22-2.73-0.22-5.45,0.02-8.18
		c0.08-0.95-0.61-1.28-1.28-1.61c-0.9-0.45-1.73-1.07-1.16-2.15c0.61-1.16,1.49-0.7,2.52-0.27c2.08,0.88,2.9,2.21,2.61,4.46
		C447.24,497.58,447.4,499.09,447.39,500.59C447.4,500.59,447.39,500.59,447.39,500.59z"/>
	<path class="st1" d="M437.36,502.02c4.55-2.72,9.03-5.56,13.82-7.84c1.55,1.13,1.61,3.19,0.06,4.07
		c-4.47,2.54-8.97,5.05-13.45,7.56C437.64,504.55,437.5,503.29,437.36,502.02z"/>
	<path class="st3" d="M447.39,500.58c0,2.12,0.03,4.24-0.01,6.35c-0.03,1.74-0.92,2.24-2.49,1.44c-0.61-0.31-1.2-0.66-1.81-0.95
		c-0.7-0.33-1.11-0.83-0.94-1.62c0.17-0.79,0.82-1.18,1.51-1.07c0.78,0.13,0.94,0.01,0.93-0.78c0-2.55,0.05-5.1,0.18-7.65
		c0.05-1.07-0.25-1.78-1.28-2.19c-1.02-0.41-1.84-1.13-1.13-2.26c0.59-0.94,1.45-0.6,2.44-0.19c2.09,0.87,2.94,2.18,2.64,4.44
		C447.24,497.57,447.4,499.09,447.39,500.58C447.39,500.58,447.39,500.58,447.39,500.58z"/>
	<path class="st4" d="M450.43,505.13c1.69-2.07,1.34-4.22,0.75-6.31c-0.49-1.74-0.73-3.34,0.94-5.1c0,4.42,0,8.47,0,12.56
		C451.34,506.32,451.15,505.29,450.43,505.13z"/>
	<path class="st4" d="M452.27,499.79c-0.58-0.04-1.16,0.07-1.45,0.59c-0.97,1.8-2.59,1.38-4.13,1.28c1.75-1.33,3.63-2.44,5.58-3.44
		C452.27,498.75,452.27,499.27,452.27,499.79z"/>
	<path class="st5" d="M447.4,500.63c0,2.12,0.04,4.24-0.01,6.36c-0.04,1.71-1.09,2.25-2.58,1.41c-0.43-0.24-0.9-0.44-1.3-0.73
		c-0.63-0.45-1.55-0.7-1.36-1.77c0.17-1.02,0.87-1.23,1.77-1.17c0.84,0.06,0.62-0.61,0.64-1.05c0.08-2.37,0.08-4.73,0.21-7.1
		c0.07-1.26-0.19-2.18-1.48-2.64c-0.95-0.35-1.51-1.1-0.98-2.04c0.55-0.97,1.38-0.8,2.4-0.35c2.09,0.92,3.08,2.22,2.73,4.59
		C447.22,497.62,447.39,499.14,447.4,500.63z"/>
	<g>
		<path class="st6" d="M256.92,567.9c-0.7-0.41-1.41-0.82-2.12-1.21c0.71,0.41,1.43,0.82,2.12,1.22
			c6.68,3.86,13.36,7.72,20.04,11.57C270.28,575.63,263.6,571.78,256.92,567.9z M349.97,510.67c0-1.07,0.07-2.12-0.32-3.16
			c-0.1-0.24-0.25-0.44-0.41-0.61l-0.07-0.07c-0.37-0.37-0.85-0.63-1.29-0.92c-4.96-3.13-10.15-5.86-15.18-8.86
			c-6.82-4.03-13.7-7.92-20.55-11.9c-7.04-4.11-14.14-8.12-21.21-12.22c-6.24-3.64-12.56-7.16-18.76-10.86
			c-6.32-3.76-12.76-7.29-19.1-11.01c-3.5-2.06-7-4.08-10.55-6.03c-0.53-0.29-1.02-0.76-1.72-0.53c-0.59,0.65-0.31,1.44-0.31,2.14
			c-0.02,37.24-0.03,74.48-0.05,111.72l5.13,2.96c0.02-0.02,0.05-0.02,0.08-0.02c0.29,0.19,0.58,0.39,0.88,0.58l63.55,36.61
			l9.76,5.63l24.58,14.16l4.47-2.58l0.73-0.41c0.05-13.97,0.15-27.96,0.31-41.93C350.18,552.47,349.97,531.56,349.97,510.67z
			 M256.92,567.9c-0.7-0.41-1.41-0.82-2.12-1.21c0.71,0.41,1.43,0.82,2.12,1.22c6.68,3.86,13.36,7.72,20.04,11.57
			C270.28,575.63,263.6,571.78,256.92,567.9z"/>
		<path class="st6" d="M457.34,533.94c0.08,3.88,0.1,7.75,0,11.63v7.55l-5.3,3.06l-0.59,0.34c0-0.08-0.02-0.19-0.02-0.27
			c0.25-1.22,0.29-2.46,0.31-3.71c0.03-6.59-0.12-13.17,0.08-19.75c0-0.02,0-0.03,0.02-0.05v-0.02c0.03-0.15,0.05-0.31,0.07-0.46
			c0.08-0.88-0.07-1.77-0.1-2.65c-0.02-0.1-0.02-0.19-0.02-0.29v-0.15c0.25-2.92-0.15-5.85-0.07-8.77
			c0.15-5.37,0.26-10.71,0.32-16.08c0-0.02,0-0.02,0-0.02c0.02-0.76,0.03-1.55,0.03-2.31c0.02-1.29,0.03-2.58,0.03-3.89
			c0.07-5.93,0.09-11.86,0.05-17.81v-0.02c0-0.75,0-1.48-0.02-2.21c0.02-0.08,0.02-0.17,0-0.25c0.02-0.03,0.02-0.05,0-0.08
			c0.02-0.44,0-0.88,0-1.33v-2.55c0-5.98,0.08-11.97-0.03-17.95c-0.07-2.5-0.1-2.7-2.07-1.75c-0.14,0.07-0.27,0.14-0.42,0.2
			c-0.02,0.02-0.05,0.02-0.07,0.03c-0.56,0.39-1.19,0.68-1.77,1.02c-2.04,1.19-2.06,1.19-0.49,2.89c0.54,0.61,0.65,1.34,0.65,2.09
			c0.03,3.93,0.07,7.84-0.02,11.76c-0.05,2.4-1.53,3.2-3.64,2.06c-0.54-0.29-1.09-0.59-1.56-1c-1.31-1.1-1.24-2.57,0.31-3.25
			c0.97-0.42,1.1-0.92,1.02-1.84c-0.17-1.8-0.17-3.6,0.15-5.4c0.22-1.1,0.1-2.04-0.99-2.75c-1.14-0.75-2.09-0.73-3.26-0.03
			c-3.48,2.06-6.99,4.06-10.49,6.08c-0.07,0.03-0.14,0.07-0.2,0.1c-0.12,0.08-0.24,0.15-0.36,0.2c-0.83,0.48-1.65,0.97-2.5,1.39
			c-0.02,0.02-0.03,0.02-0.05,0.03h-0.02c-0.08,0.05-0.14,0.09-0.22,0.14c-0.87,0.53-1.75,1.04-2.6,1.61
			c-0.03,0.02-0.05,0.03-0.09,0.05c-2.82,1.53-5.56,3.2-8.33,4.84c-0.03,0.02-0.05,0.03-0.08,0.05c-0.07,0.03-0.14,0.07-0.2,0.12
			c-4.37,2.4-8.65,4.95-12.88,7.56c-0.02,0-0.02,0.02-0.03,0.02c-0.08,0.03-0.19,0.07-0.27,0.1c-0.92,0.34-1.75,0.87-2.58,1.38
			c-0.03,0.02-0.08,0.05-0.12,0.07c-0.03,0.02-0.05,0.03-0.08,0.05c-0.85,0.51-1.73,1-2.57,1.55c-0.02,0-0.02,0.02-0.03,0.02
			c-0.03,0.02-0.07,0.03-0.1,0.07c-2.8,1.63-5.63,3.23-8.41,4.91c-0.1,0.05-0.2,0.12-0.31,0.17c-0.02,0.02-0.05,0.03-0.07,0.05
			c-4.28,2.4-8.46,4.96-12.73,7.39h-0.02c-0.12,0.05-0.24,0.12-0.36,0.19c-0.97,0.42-1.85,0.99-2.74,1.53
			c-0.07,0.03-0.14,0.09-0.2,0.12c-0.03,0.02-0.05,0.03-0.08,0.05c-0.83,0.44-1.58,1.02-2.36,1.53c-0.02,0.02-0.02,0.03-0.03,0.03
			c-0.02,0-0.02,0.02-0.03,0.02c-2.92,1.5-5.68,3.25-8.5,4.88c-0.1,0.07-0.2,0.12-0.32,0.19c-0.2,0.12-0.42,0.25-0.65,0.37
			c-0.37,0.22-0.75,0.44-1.12,0.68c-1.85,1.1-1.87,1.1-0.39,2.55c0.66,0.65,0.7,1.44,0.7,2.26c0.02,3.86,0.05,7.72,0,11.57
			c-0.05,2.46-0.93,3.11-3.28,2.41c-0.88-0.27-1.16,0.02-1.17,0.82c-0.02,0.88-0.03,1.73-0.03,2.62v0.02
			c-0.02,0.87-0.02,1.75,0,2.62c0,0.8,0.02,1.6,0.03,2.4c0.03,1.04,0.68,1.6,1.53,1.92c2.36,0.95,3.13,2.65,2.99,5.17
			c-0.2,3.23-0.03,6.48-0.07,9.72c-0.03,2.82-0.73,3.38-3.47,2.79c-0.66-0.14-0.95,0.02-0.99,0.66c-0.03,0.66-0.03,1.34-0.02,2.02
			v0.27c0,0.1,0.02,0.22,0.02,0.32v2.89c-0.02,0.08-0.02,0.17-0.02,0.25v0.02c-0.02,0.48,0.05,0.93,0,1.39
			c-0.1,1.29,0.42,2.16,1.63,2.6c2.24,0.83,3.03,2.41,2.91,4.79c-0.17,3.3,0,6.59-0.05,9.89c-0.05,2.7-0.78,3.35-3.38,2.96
			c-0.75-0.1-1.05,0.05-1.09,0.78c-0.02,0.59-0.03,1.19-0.02,1.78v0.32c0.03,0.95,0.02,1.89,0.02,2.84
			c-0.02,0.2-0.02,0.37-0.02,0.58v0.02c0,0.36,0.03,0.73-0.02,1.09c-0.17,1.55,0.37,2.62,1.9,3.18c1.94,0.7,2.72,2.09,2.63,4.18
			c-0.14,3.48,0,6.97-0.05,10.45c-0.03,2.62-0.73,3.11-3.26,2.84c-2.16-0.22-0.87,1.31-0.95,2.12c0.03,0.08,0.05,0.17,0.05,0.25
			v0.02c0,0.02,0.02,0.03,0,0.05h-0.1c-0.05-0.05-0.12-0.1-0.19-0.19l-4.4,2.55l-0.73,0.41c0-12,0.05-24,0.19-36
			c0.27-23.37,0.05-46.76,0.27-70.13c0-0.87,0.12-1.75-0.37-2.55l0.19-0.19c1.55-1.55,3.47-2.53,5.37-3.52
			c5.03-2.65,9.79-5.71,14.72-8.52c8.67-4.93,17.3-9.89,25.89-14.96c5.76-3.38,11.52-6.73,17.27-10.11
			c6.71-3.93,13.53-7.7,20.21-11.71c7.63-4.57,15.45-8.87,23.05-13.55c0.25-0.15,0.48-0.37,0.76-0.41c0.12-0.05,0.25-0.03,0.41,0.02
			c0.17,0.15,0.27,0.34,0.34,0.54c0.29,5.59,0.24,11.17,0.15,16.74c0.02,5.34,0.03,10.69,0,16.03c0.08,4.01,0.1,8.01,0,12
			c0.02,5.54,0.02,11.08,0.02,16.62c0.07,4.11,0.03,8.21-0.02,12.32C457.36,523.54,457.37,528.74,457.34,533.94z"/>
		<path class="st7" d="M456.44,444.08c-0.7,1.46-2.22,1.91-3.45,2.64c-6.29,3.75-12.65,7.38-18.97,11.06
			c-5.67,3.31-11.26,6.75-17,9.92c-6.74,3.7-13.29,7.73-19.95,11.54c-5.54,3.17-10.92,6.59-16.5,9.67
			c-7.87,4.34-15.51,9.07-23.32,13.49c-2.74,1.54-5.35,3.37-8.27,4.61c-7.1-4.34-14.42-8.33-21.59-12.56
			c-5.46-3.21-10.99-6.29-16.47-9.49c-5.67-3.31-11.45-6.42-17.03-9.89c-4.48-2.79-9.17-5.23-13.75-7.86
			c-5.16-2.96-10.31-5.95-15.48-8.93c-7.53-4.33-15.07-8.66-22.59-12.99c-0.43-0.25-0.84-0.53-1.27-0.79
			c1.68-1.72,3.93-2.52,5.95-3.71c10.28-6.03,20.59-12,30.9-17.99c7.86-4.58,15.71-9.17,23.58-13.74
			c12.15-7.07,24.27-14.18,36.49-21.14c3.29-1.87,6.46-3.96,9.76-5.81c0.81-0.46,1.35-0.56,2.2-0.06
			c11.3,6.61,22.58,13.26,33.96,19.72c4.79,2.72,9.61,5.38,14.3,8.25c0.01,0.07,0.15,0.16,0.51,0.31c0.29,0.19,0.54,0.31,0.74,0.36
			c1.77,0.87,5.74,2.96,6.37,3.41c7.11,4.01,14.15,8.15,21.22,12.23c7.89,4.54,15.75,9.14,23.66,13.63
			c1.63,0.92,3.28,1.81,4.82,2.86C455.74,443.13,456.46,443.28,456.44,444.08z"/>
		<path class="st8" d="M310.1,598.49l-63.55-36.61c-0.31-0.19-0.59-0.39-0.88-0.58c1.58,0.24,2.84,1.22,4.16,1.99
			c17.56,10.11,35.05,20.33,52.62,30.37c1.99,1.14,3.94,2.38,6.02,3.4C309.13,597.39,309.74,597.83,310.1,598.49z"/>
		<path class="st6" d="M246.33,526.91c-0.97-0.36-1.41-0.93-1.4-2.08c0.06-7.43,0.04-14.87,0.05-22.3c0.6-1.13,1.38-0.54,2.05-0.15
			c6.16,3.66,12.4,7.18,18.61,10.76c6.26,3.61,12.54,7.2,18.76,10.87c5.15,3.04,10.38,5.95,15.51,9.02
			c4.49,2.68,9.13,5.11,13.63,7.78c5.04,2.98,10.18,5.79,15.21,8.79c4.6,2.75,9.3,5.32,13.93,8.02c1.39,0.82,2.06,1.72,2.03,3.4
			c-0.08,6.86-0.03,13.72-0.04,20.58c0,2.23-0.53,2.56-2.49,1.37c-2.08-1.26-4.24-2.38-6.32-3.65c-5.74-3.51-11.71-6.62-17.5-10.06
			c-6.86-4.07-13.8-8-20.69-12.01c-7.16-4.17-14.41-8.2-21.54-12.42c-9.44-5.59-19.07-10.84-28.46-16.51
			C247.06,527.96,246.73,527.43,246.33,526.91z"/>
		<path class="st6" d="M245.29,554.55c-0.43-0.53-0.37-1.16-0.37-1.78c0.02-7.39,0.04-14.78,0.06-22.17
			c0.71-1.23,1.52-0.45,2.2-0.04c4.37,2.64,8.88,5.05,13.26,7.67c5.76,3.46,11.68,6.64,17.45,10.09
			c6.73,4.02,13.56,7.89,20.37,11.78c9.46,5.4,18.87,10.9,28.3,16.34c5.44,3.14,10.91,6.24,16.33,9.42c0.6,0.35,1.16,0.72,1.61,1.25
			l0,0c0.32,0.58,0.17,1.22,0.17,1.83c0.01,7.38,0.01,14.76,0.01,22.14c-0.83,1.24-1.67,0.3-2.37-0.09
			c-5.24-2.89-10.38-5.94-15.56-8.94c-16.17-9.38-32.37-18.69-48.55-28.04c-10.14-5.86-20.28-11.73-30.43-17.56
			C246.86,555.93,245.77,555.62,245.29,554.55z"/>
		<path class="st6" d="M246.32,498.85c-1.6-0.32-1.43-1.52-1.34-2.68c0.3-4.67,0.06-9.34,0.13-14.01c0.03-2.24-0.01-4.49,0.01-6.74
			c0.01-1.71,0.34-1.93,1.82-1.09c3.04,1.72,6.08,3.43,9.08,5.22c7.34,4.36,14.82,8.49,22.18,12.81
			c9.14,5.37,18.34,10.61,27.52,15.9c9.23,5.32,18.42,10.72,27.69,15.96c3.31,1.87,6.61,3.76,9.82,5.8c1.07,0.68,1.47,1.5,1.46,2.77
			c-0.05,6.98-0.02,13.97-0.03,20.96c0,2.02-0.41,2.27-2.15,1.3c-9.69-5.41-19.2-11.12-28.86-16.58
			c-6.62-3.74-13.2-7.56-19.76-11.39c-6.72-3.93-13.5-7.78-20.22-11.71c-4.25-2.48-8.49-4.98-12.79-7.38
			c-4.29-2.4-8.56-4.86-12.79-7.38C247.35,500.16,246.71,499.63,246.32,498.85z"/>
		<path class="st6" d="M344.43,618.28l-24.58-14.16c0.53-0.05,1.02,0.15,1.51,0.44c7.38,4.27,14.72,8.62,22.15,12.82
			C343.89,617.6,344.24,617.85,344.43,618.28z"/>
		<path class="st6" d="M339.64,506.71c1.69,0.85,3.35,1.75,4.88,2.88c0.34,5.6,0.05,11.2,0.16,16.8c0.02,1.24-0.72,1.14-1.49,0.85
			c-2-0.75-3.72-2.01-5.57-3.04c-6.7-3.72-13.31-7.59-19.93-11.46c-6.78-3.96-13.62-7.81-20.37-11.81
			c-5.89-3.49-11.89-6.82-17.81-10.27c-5.06-2.95-10.17-5.82-15.21-8.8c-5.36-3.16-10.8-6.22-16.14-9.41
			c-0.62-0.37-1.43-0.54-1.61-1.42c-1.19-0.57-1.62-1.42-1.59-2.81c0.1-4.86,0.07-9.72,0.02-14.58c-0.01-1.32,0.33-1.57,1.45-0.87
			c1.37,0.86,2.78,1.66,4.18,2.48c0.83,0.67,1.25,1.5,1.18,2.59c-0.06,0.98,0.43,1.6,1.29,2.07c5.72,3.18,11.32,6.56,17.02,9.8
			c4.98,2.83,9.9,5.78,14.91,8.55c0.22,0.12,0.42,0.27,0.73,0.25c0.8-0.53-0.33-2.11,1.18-2.29c4.41,2.53,8.83,5.06,13.25,7.58
			c0.56,0.32,1.06,0.65,1.14,1.35c0,2.69,1.63,4,3.98,4.73c0.45-0.79-0.11-1.82,0.73-2.43c1.43,0.26,2.48,1.24,3.67,1.96
			c0.08,0.09,0.15,0.2,0.21,0.31c0.41,0.75,0.22,1.59,0.35,2.38c0.14,0.83,0.72,1.28,1.4,1.64c0.72,0.38,1.43,0.77,2.03,1.33
			c0.48-0.9-0.71-2.5,1.18-2.8c1.07,0.67,2.25,1.14,3.18,2.03c0.42,0.53,0.39,1.17,0.39,1.79c-0.01,0.94,0.3,1.64,1.12,2.2
			c2.01,1.37,2.11,1.37,3.03-0.79c0.1-0.24,0.32-0.37,0.57-0.42c1.05,0.6,2.09,1.21,3.14,1.81c0.07,0.24,0.18,0.49,0.17,0.71
			c-0.17,2.82,1.73,3.94,3.95,4.85c0.48-0.84-0.27-2.02,0.75-2.69c1.26,0.71,2.64,1.24,3.68,2.3c0.19,0.32,0.42,0.66,0.37,1.03
			c-0.27,1.96,0.9,2.87,2.44,3.67c1.01,0.52,1.58,0.76,1.56-0.72C339.17,507.57,339.19,507.06,339.64,506.71z"/>
		<path class="st1" d="M246.53,471.05c7.27,4.18,14.55,8.33,21.79,12.53c6.49,3.77,12.92,7.66,19.43,11.39
			c9.91,5.68,19.79,11.42,29.68,17.14c8.16,4.72,16.39,9.34,24.5,14.15c0.05,0.03,0.11,0.06,0.16,0.09
			c2.26,1.22,2.38,1.15,2.39-1.41c0.01-5.11,0.02-10.23,0.04-15.34c0.57,0.5,0.32,1.17,0.32,1.76c0,15.41-0.03,30.81-0.04,46.22
			c0,6.92-0.01,13.85,0.05,20.77c0.02,2.93-0.17,5.85-0.35,8.77c-3.31-1.29-6.18-3.4-9.25-5.11c-7.59-4.21-15.03-8.68-22.54-13.03
			c-6.76-3.92-13.55-7.79-20.31-11.71c-7.84-4.54-15.65-9.12-23.48-13.66c-7.41-4.29-14.82-8.57-22.24-12.85
			c-0.54-0.31-1.08-0.68-1.69-0.15c-0.16-1.18-0.26-2.33,1.13-2.91c0.36-0.15,0.29-0.48,0.22-0.79c5.93,3.47,11.87,6.94,17.81,10.4
			c4.45,2.59,8.91,5.18,13.38,7.75c5.21,3,10.46,5.94,15.66,8.96c4.68,2.71,9.3,5.52,13.98,8.21c6.61,3.81,13.27,7.54,19.89,11.34
			c4.79,2.75,9.55,5.57,14.32,8.37c0.48,0.28,0.93,0.63,1.42,0.9c1.13,0.61,1.72,0.57,1.7-1.04c-0.07-6.99-0.04-13.97,0.01-20.96
			c0.01-1.16-0.44-1.89-1.38-2.43c-6.25-3.58-12.51-7.13-18.7-10.82c-7.41-4.42-14.97-8.6-22.45-12.9
			c-6.14-3.52-12.26-7.07-18.39-10.61c-11.57-6.66-23.14-13.32-34.71-19.99c-0.75-0.43-1.46-0.95-2.2-1.41
			c-0.53-0.33-1.07-0.7-1.69-0.15c-0.21-1.2-0.14-2.28,1.16-2.89c0.34-0.16,0.25-0.5,0.18-0.8c3.56,2.49,7.45,4.42,11.19,6.61
			c6.92,4.05,13.86,8.06,20.8,12.07c4.14,2.39,8.29,4.75,12.43,7.14c6.51,3.75,13.01,7.51,19.51,11.29
			c7.4,4.3,14.77,8.63,22.18,12.91c3.54,2.05,7.14,4,10.69,6.05c0.96,0.55,1.37,0.44,1.37-0.7c0-7.3-0.02-14.59,0.02-21.89
			c0.01-1.16-0.85-1.48-1.55-1.89c-4.59-2.72-9.22-5.37-13.83-8.06c-6.6-3.85-13.17-7.73-19.78-11.55c-10.42-6.02-20.88-12-31.31-18
			c-10.38-5.97-20.78-11.93-31.13-17.97c-1.52-0.89-1.66-0.46-1.65,1.01c0.05,6.11,0.02,12.22,0,18.33c0,0.67,0.19,1.38-0.29,1.99
			c-0.01-7.54,0.03-15.08-0.08-22.62C244.87,472.14,246.15,471.98,246.53,471.05z"/>
		<path class="st6" d="M344.43,618.28l-24.58-14.16l-9.76-5.63l-63.55-36.61c-0.31-0.19-0.59-0.39-0.88-0.58
			c-0.48-1.02-1.7-2.06,0.03-3.06c0.76-0.44,1.33,0.07,1.9,0.41c6.46,3.76,12.95,7.48,19.43,11.23c7.05,4.1,14.16,8.11,21.21,12.2
			c6.48,3.76,12.95,7.48,19.43,11.22c7.99,4.62,15.94,9.28,23.97,13.84c3.4,1.94,6.73,4.03,10.18,5.88c0.85,0.46,1.8,0.88,2.28,1.84
			c0,0.02,0.02,0.02,0.02,0.02v0.02C345.03,615.93,344.87,617.09,344.43,618.28z"/>
		<path class="st1" d="M344.1,614.89c-6.24-3.6-12.49-7.2-18.73-10.8c-8.19-4.71-16.38-9.42-24.56-14.13
			c-9.92-5.71-19.84-11.4-29.75-17.14c-8.12-4.7-16.21-9.45-24.31-14.16c-0.32-0.18-0.69-0.27-1.04-0.41
			c-1.24-1.11-0.95-2.39-0.42-3.7c18.57,10.7,37.14,21.41,55.72,32.11c14.36,8.27,28.73,16.54,43.09,24.8
			c0.16,0.09,0.37,0.13,0.39,0.37C344.11,612.82,345.48,614.03,344.1,614.89z"/>
		<path class="st1" d="M286.9,476.24c-0.71,0.66-0.39,1.53-0.39,2.3c-0.01,1.03-0.39,1-1.12,0.58c-7.64-4.4-15.29-8.79-22.92-13.19
			c-3.23-1.86-6.39-3.85-9.68-5.6c-1.12-0.59-1.67-1.2-1.52-2.42c0.11-0.97-0.14-1.84-0.67-2.64
			C262.69,462.26,274.79,469.25,286.9,476.24z"/>
		<path class="st9" d="M323.12,497.1c-0.63,0.69-0.3,1.53-0.35,2.3c-0.06,0.89-0.43,1.09-1.18,0.67c-1.02-0.57-2.13-1.03-3.02-1.76
			c-1.32-1.08-0.46-2.63-0.56-3.98C319.86,494.97,321.42,496.16,323.12,497.1z"/>
		<path class="st10" d="M331.12,501.78c-0.02,0.37-0.06,0.74-0.07,1.11c-0.05,2.61,0.06,2.33-2.26,1.42
			c-2.79-1.1-2.72-3.12-2.53-5.4C327.88,499.87,329.5,500.82,331.12,501.78z"/>
		<path class="st11" d="M339.64,506.71c-0.39,1.1,0.51,2.71-0.56,3.25c-0.57,0.28-1.84-1.02-2.86-1.43
			c-2.33-0.94-1.39-2.84-1.42-4.46C336.57,504.68,338.13,505.66,339.64,506.71z"/>
		<path class="st12" d="M306,487.48c-0.14,1.06,0.54,2.56-0.36,3.08c-0.74,0.42-1.75-0.9-2.72-1.25c-2.12-0.77-1.86-2.45-1.63-4.13
			C303.41,484.8,304.54,486.48,306,487.48z"/>
		<path class="st13" d="M314.83,492.3c-0.97,0.62-0.51,1.58-0.49,2.37c0.03,1.07-0.37,1.03-1.08,0.62c-0.16-0.09-0.3-0.23-0.47-0.29
			c-2.69-0.93-3.75-2.76-3.12-5.55C311.53,490.13,313.06,491.42,314.83,492.3z"/>
		<path class="st14" d="M344.49,611.84c-0.13-0.12-0.26-0.25-0.39-0.37c0.62-0.55,0.35-1.28,0.36-1.94
			c0.03-7.47,0.03-14.95,0.04-22.42c0.45,0.38,0.33,0.91,0.33,1.39c0.01,7.32,0.01,14.64,0,21.97
			C344.82,610.94,344.97,611.47,344.49,611.84z"/>
		<path class="st1" d="M452.44,554.86c0,0.56-0.15,0.95-0.41,1.31l-0.59,0.34l-97.17,56.09c0.03,0.08,0.05,0.17,0.05,0.25v0.02
			c0,0.02,0.02,0.03,0,0.05h-0.1c-0.05-0.05-0.12-0.1-0.19-0.19c-0.53-0.76-0.9-3.03-0.44-3.35c0.42-0.32,0.8,0.08,1.17,0.27
			c2.5,1.24,3.16,0.83,3.16-1.99c0.02-3.43-0.12-6.87,0.1-10.28c0.12-2.07-0.53-3.42-2.43-3.96c-1.92-0.56-2.4-1.75-2.12-3.54
			c0.08-0.54,0.03-1.1,0.05-1.67c0.17-0.02,0.34-0.03,0.51-0.08c0.8-0.14,1.53-0.48,2.26-0.88c6.37-3.62,12.63-7.43,19.09-10.93
			c0.51-0.29,1.02-0.82,1.67-0.44h0.02c0.05,0.03,0.1,0.07,0.15,0.1c0.15,2.28-0.76,4.25-1.8,6.17c-0.1,0.1-0.2,0.15-0.32,0.15
			c-0.02,0.02-0.05,0.02-0.07,0.02c-0.15,0-0.31-0.05-0.46-0.1c-1.41-0.49-2.11,0.36-2.48,1.5c-0.46,1.43,0.59,1.46,1.56,1.55
			c0.03,0,0.07,0.02,0.1,0.05c0.02,0.03,0.05,0.05,0.05,0.1c0.05,0.08,0.09,0.2,0.1,0.31c-0.02,1.17-0.66,2.11-1.14,3.11
			c-0.24,0.49-0.68,1.16,0,1.46c0.7,0.31,0.88-0.49,1.07-0.99c1.77-4.57,3.76-9.08,4.9-13.87c0.14-0.54,0.15-1.12,0.63-1.51
			c0.12-0.07,0.26-0.14,0.37-0.22c0.07-0.03,0.15-0.08,0.22-0.12c8.74-5.06,17.46-10.13,26.23-15.09c0.49-0.27,0.95-0.61,1.5-0.32
			c0.02,0,0.03,0.02,0.05,0.03c0.05,0.02,0.1,0.07,0.15,0.1c0.32,0.53,0.19,1.09,0.07,1.63c-1.38,6.68-3.13,13.22-7.26,18.85
			c-0.48,0.66-1.61,1.65-0.66,2.29c0.63,0.42,1.22-0.93,1.67-1.67c4.28-6.97,6.36-14.7,7.8-22.64c0.1-0.59-0.02-1.29,0.76-1.56
			c0.03,0,0.05,0,0.07,0.02c0.02,0,0.02,0,0.03,0c0.2,0.15,0.05,0.85,0.87,0.36c6.85-4.1,13.78-8.02,20.68-12.03
			c0.59-0.34,1.22-0.92,2.02-0.59h0.02c0.05,0.02,0.12,0.03,0.17,0.07c0.36,0.58,0.24,1.21,0.15,1.82
			c-0.71,4.81-2.06,9.47-3.71,14.04c-0.58,1.6-1.36,3.08-2.7,4.2c-0.48,0.41-0.82,0.93-0.97,1.56c-0.17,0.66-0.09,1.29,0.63,1.55
			c0.71,0.27,1.02-0.32,1.22-0.83c0.87-2.14,1.94-4.18,2.77-6.32c2.12-5.63,3.23-11.47,4.2-17.37c0.08-0.54,0.03-1.14,0.66-1.43
			c0.03-0.02,0.07-0.02,0.09,0c0.02,0.02,0.03,0.02,0.07,0.03c0.19,0.15,0.12,0.8,0.88,0.29c4.35-2.92,9.03-5.35,13.56-8.02
			c0.29-0.17,0.59-0.36,0.92-0.29c0.14,0.02,0.29,0.08,0.44,0.22C452.36,539.94,452.38,547.4,452.44,554.86z"/>
		<path class="st1" d="M429.08,465.7c3.81-2.23,7.62-4.47,11.45-6.67c1.54-0.89,4.24,0.69,4.19,2.49c-0.07,2.61-0.34,5.22-0.02,7.83
			c0.09,0.7-0.13,1.05-0.95,0.9c-0.73-0.13-1.37,0.18-1.59,0.95c-0.25,0.87,0.22,1.5,0.99,1.76c1.15,0.39,1.93,2.04,3.46,1.14
			c1.41-0.84,0.71-2.26,0.75-3.41c0.1-2.74-0.06-5.49,0.06-8.22c0.1-2.42,0.19-4.69-3.14-5.33c1.6-1.34,3.12-2.16,4.68-2.88
			c1.21-0.62,1.52,0.35,1.89,1.11c0.39,0.77,0.53,1.65-0.35,2.15c-1.33,0.74-1.35,1.79-0.97,3.03c0.53,1.74-0.24,3.45-0.11,5.19
			c0.08,1.07,0.08,2.12,0.87,2.96c0.11,0.15,0.19,0.31,0.25,0.49c-1.03,1.4-0.22,2.64,0.33,3.9c-2.29,2.18-5.27,3.26-7.88,4.93
			c-3.82,2.44-8.05,4.23-11.67,7.02c-1.53-1.16-1.84-2.94-2.31-4.64c-0.15-0.56,0.06-1.37-0.82-1.43c-0.64-0.04-0.95,0.52-1.19,1.03
			c-0.31,0.66-0.46,1.33,0.32,1.79c1.51,0.87,2.37,2.11,2.28,3.91c-2.24,1.45-4.57,2.74-6.89,4.06
			c-8.98,5.1-17.86,10.37-26.87,15.41c-5.86,3.27-11.62,6.73-17.36,10.21c-0.13-0.02-0.29-0.04-0.33-0.14
			c-1.34-3.06-2.99-5.98-4.05-9.17c-0.13-0.58,0.66-1.51-0.39-1.71c-0.82-0.16-1.29,0.64-1.58,1.34c-0.4,0.95-0.04,1.55,0.94,1.79
			c0.74,0.49,1.13,1.17,1.12,2.07c-0.49,0.86-1.6,1.14-1.95,2.14c-0.17,0.47-0.4,0.97,0.08,1.35c0.53,0.42,0.88-0.07,1.25-0.38
			c0.52-0.45,0.86-1.32,1.8-0.77c0.78,1.26,1.58,2.52,1.47,4.1c-1.74,1.54-3.85,2.5-5.84,3.63c-5.09,2.87-10.11,5.87-15.18,8.77
			c-0.43,0.25-0.91,0.45-1.18,0.89c-0.44,0.74-0.59,1.69-0.15,2.31c0.56,0.8,1.21-0.1,1.73-0.39c6.2-3.44,12.2-7.23,18.46-10.55
			c1.21-0.64,1.83-1.95,3.14-2.38c1.37,2.77,1.74,5.79,2.24,8.77c0.73,4.34,1.3,8.7,1.56,13.1c0.03,0.44,0.04,0.87-0.1,1.29
			c-2.61,1.65-5.26,3.22-7.95,4.73c-4.33,2.44-8.66,4.9-12.9,7.5c-2.32,1.42-4.73,2.68-7.15,3.91c-0.01-0.62-0.03-1.24-0.03-1.86
			c0.02-2.46,0.02-2.46,2.28-1.53c1.1,0.45,2.14-0.17,2.15-1.42c0.05-4.36,0.01-8.71,0.07-13.07c0.02-1.56-1.3-1.84-2.19-2.18
			c-1.93-0.74-2.5-1.9-2.34-3.9c0.2-2.47,0.09-4.97,0.05-7.46c-0.02-1.07,0.38-1.17,1.2-0.7c0.27,0.16,0.54,0.3,0.82,0.45
			c1.34,0.71,2.37,0.22,2.39-1.23c0.06-4.36,0.03-8.71,0.06-13.07c0-0.7-0.2-1.16-0.88-1.46c-0.67-0.29-1.28-0.72-2.23-1.27
			c1.71-1.01,3.17-1.87,4.63-2.73c0.39-0.06,0.86-0.04,0.93,0.39c0.32,1.97,1.3,1.21,2.28,0.62c0.37-0.23,0.78-0.39,1.16-0.6
			c2.32-1.25,4.87-2.29,4.92-5.55c0.63-0.74,1.47-1.17,2.35-1.53c0.89,0.05,0.71,1.81,1.94,1.27c1.21-0.52,1.15-1.64,1.15-2.71
			c0-0.19,0.08-0.36,0.18-0.52c4.25-2.47,8.5-4.94,12.75-7.4c0.5-0.07,0.7,0.3,0.72,0.66c0.09,2,1.04,1.49,2.09,0.75
			c0.35-0.25,0.73-0.48,1.12-0.66c2.56-1.21,4.88-2.61,5.07-5.87c0.88-0.54,1.77-1.08,2.65-1.62c0.64,0.44,0.17,1.94,1.29,1.72
			c1.04-0.2,1.48-1.23,1.48-2.32c0-0.31-0.02-0.62,0.17-0.89c3.29-2.54,7.1-4.21,10.58-6.44c0.77-0.49,1.62-0.86,2.44-1.29
			c0.18,0.07,0.33,0.19,0.38,0.37c0.64,2.06,0.64,2.06,2.59,0.86c0.21-0.13,0.42-0.27,0.64-0.37c2.56-1.16,4.96-2.47,5.07-5.78
			c0.69-0.87,1.72-1.23,2.65-1.72c0.71,0.45,0.2,2.22,1.64,1.74c1.15-0.38,1.27-1.54,1.16-2.65
			C428.87,466.26,428.87,465.96,429.08,465.7z"/>
		<path class="st14" d="M353.55,585.26c-0.02-0.99-0.02-1.99-0.08-2.98c-0.08-1.25,0.42-1.17,1.3-0.7c2.45,1.31,3.13,0.86,3.15-1.97
			c0.01-3.42-0.1-6.85,0.09-10.27c0.11-2.04-0.45-3.45-2.42-3.98c-1.97-0.52-2.38-1.78-2.12-3.54c0.06-0.43,0.04-0.86,0.05-1.3
			c2.61-1.03,4.98-2.53,7.36-3.95c5.69-3.41,11.58-6.49,17.2-10.02c0.69-0.43,1.41-0.78,2.19-1c0.5-0.14,0.99-0.21,1.24,0.42
			c0.4,2.91,0.19,5.8-0.11,8.71c-0.48,4.63-1.23,9.22-2.04,13.8c-0.14,0.79-0.26,1.6-0.66,2.31c-0.84,1.14-2.15,1.67-3.31,2.34
			c-6.75,3.91-13.49,7.86-20.29,11.69C354.63,585.11,354.17,585.46,353.55,585.26z"/>
		<path class="st6" d="M414.98,583.69c-0.03,0.03-0.07,0.07-0.1,0.12c-0.02-0.02-0.03-0.02-0.05-0.03
			C414.88,583.74,414.93,583.71,414.98,583.69z"/>
		<path class="st6" d="M418.83,581.24c-0.02,0.02-0.03,0.02-0.05,0.03c-0.07-0.03-0.14-0.09-0.2-0.14
			C418.66,581.18,418.74,581.21,418.83,581.24z"/>
		<path class="st6" d="M428.96,575.24c-0.05,0.02-0.08,0.05-0.12,0.07c-0.03-0.07-0.08-0.15-0.14-0.22
			C428.79,575.14,428.87,575.18,428.96,575.24z"/>
		<path class="st6" d="M434.9,571.67c-0.19,0.1-0.37,0.2-0.56,0.32c-0.12-0.08-0.25-0.15-0.37-0.22
			C434.31,571.54,434.62,571.55,434.9,571.67z"/>
		<path class="st15" d="M354.32,612.87c0,0.02,0.02,0.03,0,0.05h-0.1C354.26,612.91,354.29,612.89,354.32,612.87z"/>
		<path class="st1" d="M381.16,545.57c-6.66,3.44-13.02,7.4-19.53,11.12c-2.25,1.29-4.51,2.58-6.74,3.9
			c-0.5,0.29-0.92,0.3-1.36-0.05c0-0.99,0-1.98-0.01-2.97c1.54-1.93,3.93-2.51,5.93-3.71c6.68-4.02,13.46-7.88,20.18-11.84
			c0.52-0.31,0.93-0.61,1.49-0.21C382.02,543.04,381.99,544.3,381.16,545.57z"/>
		<path class="st1" d="M353.55,585.26c8.2-4.74,16.4-9.49,24.61-14.23c0.68,1.86,0.23,3.47-1.1,4.88
			c-4.08,2.34-8.15,4.69-12.24,7.02c-3.27,1.86-6.58,3.66-9.82,5.59c-0.76,0.45-1.08,0.3-1.48-0.28
			C353.53,587.24,353.54,586.25,353.55,585.26z"/>
		<path class="st16" d="M423.45,469.2c0.48,2.35-0.2,4.02-2.56,5.02c-1.58,0.67-3.03,1.66-4.49,2.59c-1.13,0.72-1.66,0.66-1.58-0.83
			c0.04-0.61-0.04-1.24-0.06-1.85C417.59,472.35,420.36,470.49,423.45,469.2z"/>
		<path class="st17" d="M396.15,484.96c0.63,2.72-0.71,4.23-3.08,5.26c-1.41,0.62-2.7,1.51-4.01,2.34
			c-1.15,0.73-1.67,0.56-1.57-0.89c0.04-0.54,0.13-1.13-0.33-1.58C390.14,488.34,393.03,486.45,396.15,484.96z"/>
		<path class="st18" d="M368.79,500.98c0.54,2.35-0.31,3.86-2.59,4.78c-1.49,0.6-2.87,1.49-4.22,2.37
			c-1.16,0.75-1.93,1.05-1.83-0.82c0.03-0.53-0.05-1-0.65-1.19c2.59-1.5,5.18-3,7.78-4.49C367.75,501.37,368.28,501.2,368.79,500.98
			z"/>
		<path class="st19" d="M355.31,517.22c0,1.3,0.02,2.61-0.01,3.91c-0.01,0.48,0.27,1.23-0.75,1.07c-0.65-0.1-1.09-0.2-1.07-1.08
			c0.07-2.73,0.01-5.46,0.04-8.19c0.01-0.47-0.37-1.31,0.5-1.32c0.71-0.02,1.26,0.52,1.28,1.33
			C355.32,514.36,355.31,515.79,355.31,517.22z"/>
		<path class="st20" d="M353.45,600.79c0-1.24-0.04-2.48,0.02-3.72c0.02-0.49-0.35-1.35,0.38-1.39c0.73-0.05,1.41,0.53,1.43,1.42
			c0.04,1.49,0.02,2.98,0.02,4.46c0,1.3,0.01,2.6-0.02,3.91c-0.01,0.37,0.18,1.04-0.53,0.9c-0.51-0.1-1.33,0.06-1.31-0.93
			C353.47,603.89,353.45,602.34,353.45,600.79z"/>
		<path class="st21" d="M353.46,567.51c1.45,0.28,1.89,0.98,1.86,2.16c-0.06,2.43,0.01,4.86-0.04,7.28
			c-0.01,0.48,0.45,1.39-0.67,1.33c-0.76-0.04-1.19-0.38-1.17-1.29C353.5,573.89,353.46,570.78,353.46,567.51z"/>
		<path class="st22" d="M353.47,544.72c0-1.18-0.04-2.36,0.02-3.53c0.03-0.54-0.4-1.48,0.47-1.53c0.9-0.06,1.38,0.67,1.35,1.64
			c-0.02,0.99,0,1.98,0,2.97c0,1.61,0.03,3.22-0.02,4.83c-0.01,0.44,0.38,1.26-0.65,1.16c-0.73-0.08-1.24-0.32-1.19-1.26
			C353.53,547.58,353.47,546.15,353.47,544.72z"/>
		<path class="st23" d="M429.08,465.7c0.49,1.15,0.54,2.2-0.24,3.32c-0.55,0.78-1.13,1.14-2,0.9c-0.88-0.24-0.75-1.01-0.74-1.69
			c0-0.25,0-0.5,0.01-0.74C427.1,466.88,428.09,466.29,429.08,465.7z"/>
		<path class="st24" d="M401.74,481.84c0.37,0.54,0.51,1.11,0.27,1.74c-0.43,1.12-1.03,2.37-2.35,2.21
			c-1.39-0.17-0.73-1.56-0.86-2.46C399.7,482.68,400.56,481.94,401.74,481.84z"/>
		<path class="st25" d="M374.41,497.49c0.28,0.62,0.54,1.21,0.29,1.93c-0.36,1.03-0.76,1.91-2.04,2.04
			c-1.67,0.17-0.94-1.41-1.52-2.01C372.09,498.58,373.28,498.09,374.41,497.49z"/>
		<path class="st1" d="M249.76,444.21c2.39-1.4,4.79-2.81,7.19-4.21c29.69-17.26,59.39-34.51,89.05-51.82c1.67-0.98,2.9-0.97,4.56,0
			c15.81,9.26,31.56,18.62,47.55,27.57c10.47,5.86,20.71,12.12,31.19,17.95c5.76,3.21,11.46,6.53,17.23,9.73
			c1.53,0.85,1.2,1.24-0.08,1.98c-31.81,18.46-63.6,36.95-95.38,55.45c-1.21,0.7-2.15,0.97-3.55,0.16
			c-32.09-18.59-64.22-37.12-96.34-55.67C250.7,445.1,250.11,444.96,249.76,444.21z"/>
		<path class="st1" d="M286.45,486.81c-0.08,0.77,0.41,1.9-0.21,2.29c-0.82,0.52-1.52-0.55-2.23-0.96c-3.72-2.12-7.4-4.31-11.1-6.44
			c-6.92-3.99-13.86-7.96-20.79-11.94c-1.26-0.72-0.84-1.97-0.85-3.04c-0.04-3.02-0.01-3.03,2.55-1.55
			c8.46,4.92,16.9,9.88,25.4,14.75c1.72,0.98,3.4,2.1,5.18,2.91C286.31,483.7,286.79,484.94,286.45,486.81z"/>
		<path class="st26" d="M306.05,500.57c-1.83-0.57-3.17-1.49-4.46-2.4c-0.91-0.64-0.36-1.87-0.38-2.82
			c-0.02-0.82-0.47-1.97,0.3-2.41c0.65-0.37,1.36,0.67,2.1,0.92C307.24,495.08,305.65,498.02,306.05,500.57z"/>
		<path class="st27" d="M322.75,507.6c-0.17,0.68,0.47,1.83-0.39,2.26c-0.77,0.39-1.58-0.5-2.31-0.93c-2.03-1.2-2.8-3.42-2.13-5.81
			c0.13-0.45,0.28-0.6,0.75-0.53C320.78,502.88,322.75,505.22,322.75,507.6z"/>
		<path class="st28" d="M326.23,509.88c0.18-0.83-0.42-2.02,0.34-2.44c0.71-0.4,1.51,0.58,2.24,0.99c2.07,1.18,2.91,3.56,2.23,5.89
			c-0.24,0.82-0.66,0.54-1.11,0.29c-0.97-0.56-1.92-1.14-2.9-1.69C325.72,512.17,326.42,510.91,326.23,509.88z"/>
		<path class="st29" d="M334.69,514.74c0.01-2.94,0.01-2.94,2.55-1.47c2.13,1.24,2.99,3.48,2.25,5.79
			c-0.17,0.54-0.39,0.63-0.94,0.48C336,518.84,334.68,517.23,334.69,514.74z"/>
		<path class="st30" d="M314.35,502.45c-0.23,3.01-0.23,3.01-2.57,1.67c-1.89-1.08-2.87-3.87-2.14-5.96
			c0.18-0.53,0.47-0.51,0.83-0.31c1.19,0.67,2.44,1.27,3.51,2.09C314.91,500.67,314.25,501.81,314.35,502.45z"/>
		<path class="st31" d="M414.98,583.69c-0.03,0.03-0.07,0.07-0.1,0.12c-0.02-0.02-0.03-0.02-0.05-0.03
			C414.88,583.74,414.93,583.71,414.98,583.69z"/>
		<path class="st32" d="M437.07,536.94c-0.18,1.14-0.36,2.28-0.54,3.42c-0.58,2.96-1.2,5.92-1.75,8.89
			c-0.95,5.17-2.72,10.07-4.88,14.84c-0.28,0.62-0.43,1.31-0.81,1.86c-0.36,0.52-0.49,1.64-1.59,1.04
			c-0.89-0.49-1.78-1.01-1.25-2.31c0.23-0.58,0.32-1.25,0.87-1.61c2.2-1.46,2.8-3.84,3.59-6.12c1.56-4.54,2.83-9.14,3.25-13.94
			c-0.5-1.5,0.18-2.89,0.4-4.32c0.92-6.06,1.67-12.15,1.51-18.29c-0.06-2.15-0.05-4.34-0.53-6.47c-0.26-1.26-0.48-2.52-0.4-3.82
			c-0.62-7.35-2.2-14.49-4.67-21.43c-0.32-1-1.09-1.87-0.85-3.03c-0.63-1.3-0.57-3.03-2.6-3.41c-0.97-0.18-0.77-1.24-0.47-2.04
			c0.39-1.02,0.92-2,2.18-1.94c1.04,0.04,0.96,0.94,0.95,1.69c-0.02,1.88,1.22,3.29,1.82,4.94c0.96,0.68,1.2,1.78,1.66,2.75
			c2.68,6.85,3.84,14.04,4.86,21.26c-0.05,1.24,0.73,2.49-0.03,3.73c-0.15,3.27,0.45,6.5,0.44,9.78c-0.02,3.53-0.47,7-0.66,10.5
			C437.49,534.26,437.24,535.6,437.07,536.94z"/>
		<path class="st33" d="M377.06,575.91c0.58-1.58,1-3.2,1.1-4.88c1.05-3.65,1.53-7.42,2.07-11.16c0.68-4.73,1.36-9.48,0.94-14.3
			c-0.01-1.26-0.02-2.52-0.04-3.78c-0.5-7.95-1.26-15.86-3.68-23.52c-0.74-0.61-1.07-1.36-0.78-2.32c-0.52-1.38-1.05-2.76-1.57-4.14
			c-0.74-0.57-1.19-1.28-1.11-2.25c-0.38-0.61-0.44-1.41-1.08-1.87c-0.27-0.25-0.53-0.51-0.62-0.89c-0.16-0.71-0.09-1.4,0.63-1.73
			c0.82-0.38,1.23,0.17,1.51,0.86c1.37,3.09,2.73,6.18,4.1,9.27c0.94,0.67,1.03,1.76,1.32,2.74c1.9,6.42,2.71,13.04,3.38,19.67
			c0.08,0.81,0.24,1.6,0.33,2.41c0.1,1.23,0.08,2.45,0.04,3.68c0.45,8.72-0.99,17.24-2.59,25.75c-0.37,1.55-0.31,3.23-1.34,4.6
			c-1.35,5.16-3.25,10.14-5.2,15.09c-0.14,0.35-0.26,0.7-0.41,1.04c-0.33,0.74-0.79,1.38-1.7,0.88c-0.85-0.47-0.71-1.31-0.28-1.95
			c0.74-1.1,1.13-2.34,1.65-3.52c0.11-1.26,0.18-2.54,1.39-3.34C375.81,580.14,376.8,578.14,377.06,575.91z"/>
		<path class="st34" d="M410.33,555.29c-1,4.73-1.96,9.47-3.38,14.09c-1.27,4.13-3.57,7.79-5.59,11.56
			c-0.32,0.59-0.93,1.59-1.91,0.98c-1.07-0.68-0.41-1.61,0.06-2.27c1.71-2.38,3.21-4.87,4.4-7.56c1.94-4.41,3.02-9.05,3.78-13.78
			c-0.58-1.7,0.52-3.29,0.29-4.97c1.03-6.92-0.15-13.66-1.74-20.36c-0.19-0.79-0.41-1.57-0.66-2.34c-0.3-0.91-0.62-1.81-0.93-2.72
			c-0.63-1.85-1.71-3.48-2.58-5.21c-0.17-0.41-0.46-0.75-0.72-1.11c-0.39-0.67-0.91-1.12-1.68-1.37c-1.06-0.34-1.42-1.14-1.05-2.22
			c0.41-1.2,1.88-2.43,2.7-2.26c0.41,0.09,0.66,0.35,0.77,0.73c0.87,3.04,3.06,5.4,4.22,8.29c0.32,0.81,0.7,1.59,1.04,2.4
			c0.34,0.83,0.67,1.66,0.93,2.51c2.13,7.24,3.36,14.6,2.97,22.18C411.06,553.03,411.18,554.29,410.33,555.29z"/>
		<path class="st1" d="M408.46,553.43c0.1,1.68-0.27,3.28-0.76,4.87c-3.07,1.46-5.95,3.27-8.89,4.99
			c-6.25,3.66-12.54,7.25-18.81,10.86c-0.07,0.04-0.22-0.06-0.34-0.1c0.3-1.52,0.61-3.05,0.91-4.57c1.21-1.5,3.02-2.11,4.6-3.04
			c7.16-4.21,14.33-8.4,21.58-12.45C407.27,553.69,407.77,553.23,408.46,553.43z"/>
		<path class="st1" d="M410.33,555.29c0.05-1.14,0.13-2.28,0.47-3.38c0.84-1.17,2.2-1.63,3.37-2.28
			c6.31-3.51,12.48-7.26,18.76-10.82c0.51-0.29,1.17-1.18,1.8-0.06c-0.26,1.41-0.52,2.82-0.79,4.23
			c-7.41,4.25-14.81,8.5-22.22,12.73C411.17,556.05,410.37,556.8,410.33,555.29z"/>
		<path class="st35" d="M414.84,561.75c0-1.89,0.02-3.37-0.01-4.84c-0.02-0.75,0.45-1.14,0.99-1.45c2.2-1.27,4.44-2.47,6.62-3.78
			c0.93-0.56,1.07-0.17,1.07,0.63c0,1.18,0,2.36,0,3.55c0,0.46-0.1,0.89-0.51,1.14C420.39,558.53,417.78,560.04,414.84,561.75z"/>
		<path class="st36" d="M396.2,576.99c0.49,1.73-0.47,2.81-2.24,3.64c-1.79,0.84-3.45,1.97-5.15,3c-0.93,0.57-1.38,0.4-1.31-0.74
			c0.01-0.12,0.02-0.25,0-0.37c-0.4-2.65,0.19-4.68,3.05-5.68c1.38-0.49,2.66-1.36,3.89-2.2c1.35-0.92,1.89-0.7,1.77,0.95
			C396.18,575.97,396.2,576.34,396.2,576.99z"/>
		<path class="st36" d="M414.85,571.97c-0.55-1.76,0.52-2.78,2.23-3.6c1.73-0.83,3.35-1.87,4.99-2.86c1.15-0.69,1.37-0.3,1.51,0.92
			c0.3,2.77-0.38,4.78-3.22,5.83c-1.38,0.51-2.66,1.34-3.89,2.16c-1.24,0.83-1.75,0.68-1.62-0.88
			C414.88,573.12,414.85,572.69,414.85,571.97z"/>
		<path class="st36" d="M387.51,574.16c-0.47-1.63,0.36-2.71,2.07-3.53c1.79-0.85,3.43-1.99,5.15-3c0.95-0.56,1.54-0.43,1.46,0.84
			c0,0.06-0.01,0.13,0,0.19c0.41,2.66-0.18,4.68-3.07,5.66c-1.45,0.49-2.72,1.48-4.08,2.23c-0.41,0.23-0.71,0.88-1.26,0.57
			c-0.51-0.29-0.23-0.91-0.26-1.38C387.48,575.31,387.51,574.87,387.51,574.16z"/>
		<path class="st35" d="M368.87,599.83c0.48,1.61-0.52,2.6-2.17,3.4c-1.67,0.81-3.19,1.91-4.81,2.82c-1.06,0.6-1.63,0.62-1.77-1
			c-0.23-2.73,0.43-4.63,3.19-5.65c1.37-0.51,2.61-1.42,3.85-2.24c1.36-0.89,1.88-0.58,1.71,1.02
			C368.83,598.61,368.87,599.05,368.87,599.83z"/>
		<path class="st36" d="M368.85,592.89c0.6,1.79-0.65,2.73-2.28,3.56c-1.7,0.88-3.33,1.9-4.98,2.88c-0.96,0.58-1.5,0.5-1.41-0.78
			c0-0.06,0-0.13-0.01-0.19c-0.43-2.73,0.23-4.78,3.14-5.8c1.32-0.46,2.48-1.4,3.72-2.1c1.7-0.97,1.8-0.91,1.81,1
			C368.86,591.84,368.85,592.21,368.85,592.89z"/>
		<path class="st35" d="M414.84,565.24c-0.54-1.82,0.54-2.87,2.34-3.69c1.74-0.8,3.35-1.87,5.01-2.85c0.88-0.52,1.38-0.44,1.34,0.74
			c-0.03,0.87-0.05,1.74,0.03,2.61c0.1,1.07-0.32,1.73-1.26,2.24c-1.96,1.07-3.91,2.16-5.79,3.36c-1.42,0.91-1.82,0.52-1.67-1
			C414.87,566.28,414.84,565.9,414.84,565.24z"/>
		<path class="st37" d="M360.14,589.93c-0.5-1.74,0.53-2.82,2.36-3.65c1.74-0.79,3.34-1.89,4.99-2.9c0.92-0.56,1.29-0.43,1.37,0.72
			c0.18,2.59,0.15,4.92-2.99,5.94c-1.44,0.47-2.75,1.43-4.04,2.28c-1.27,0.84-1.88,0.78-1.7-0.92
			C360.18,591.03,360.14,590.66,360.14,589.93z"/>
		<path class="st38" d="M396.19,583.99c0.45,1.64-0.47,2.63-2.19,3.39c-1.63,0.72-3.07,1.85-4.64,2.73
			c-1.73,0.97-1.62,0.87-1.89-0.99c-0.41-2.84,0.7-4.5,3.28-5.54c1.31-0.53,2.47-1.41,3.72-2.1c0.46-0.26,0.93-0.84,1.49-0.48
			c0.45,0.29,0.2,0.92,0.23,1.4C396.21,582.83,396.19,583.26,396.19,583.99z"/>
		<path class="st39" d="M375.12,582.24c-0.46,1.11-0.93,2.23-1.39,3.34c-0.77,0.02-1.74,0.69-2.16-0.51c-0.42-1.21,0.12-2.2,1-3
			C373.44,581.29,374.33,581.25,375.12,582.24z"/>
		<path class="st40" d="M426.1,559.12c0.19-1.68,1.48-3.14,2.46-3c0.94,0.13,0.95,0.86,0.89,1.57c-0.14,1.39-1.46,2.88-2.4,2.69
			C426.18,560.21,426.03,559.57,426.1,559.12z"/>
		<path class="st41" d="M398.78,568.5c0.08-1.29,1.45-2.86,2.39-2.71c0.9,0.14,1.06,0.84,0.91,1.55c-0.26,1.28-0.84,2.42-2.3,2.58
			C398.82,570.02,398.76,569.22,398.78,568.5z"/>
		<path class="st42" d="M402.13,573.5c-0.42,1.12-0.83,2.45-2.36,2.65c-0.91,0.12-1.09-0.73-0.97-1.44c0.22-1.38,0.96-2.5,2.36-2.78
			C402.06,571.74,402.13,572.65,402.13,573.5z"/>
		<path class="st43" d="M429.46,551.74c-0.34,1.07-0.8,2.26-2.29,2.4c-0.89,0.08-1.11-0.62-1.08-1.4c0.06-1.31,1.4-2.84,2.38-2.69
			C429.37,550.18,429.49,550.84,429.46,551.74z"/>
		<path class="st44" d="M374.81,595.32c-0.07,1.26-1.42,2.79-2.39,2.68c-0.8-0.09-1.05-0.66-0.94-1.32c0.23-1.34,0.77-2.56,2.3-2.76
			C374.7,593.79,374.82,594.59,374.81,595.32z"/>
		<path class="st1" d="M379.39,517.9c-0.29-0.9-0.58-1.8-0.86-2.7c0.26-0.89,1.08-1.15,1.76-1.55c10.97-6.34,21.93-12.68,32.91-19
			c5.1-2.94,10.23-5.82,15.36-8.72c0.26-0.15,0.58-0.2,0.87-0.3c0.4,0.91,0.8,1.83,1.19,2.74c0.35,1.16-0.7,1.33-1.31,1.69
			c-5.8,3.38-11.62,6.74-17.44,10.1c-5.22,3.02-10.47,5.99-15.67,9.06c-4.76,2.81-9.55,5.6-14.4,8.26
			C381.07,517.88,380.32,518.52,379.39,517.9z"/>
		<path class="st1" d="M376.67,515.96c0.26,0.77,0.52,1.55,0.78,2.32c0.09,1.04-0.57,1.53-1.38,1.99
			c-6.3,3.62-12.58,7.26-18.87,10.9c-0.22,0.12-0.43,0.26-0.66,0.35c-0.86,0.36-1.65,1.73-2.6,0.76c-0.79-0.81,0.11-3.38,1.15-3.99
			c6.85-3.99,13.7-7.96,20.55-11.93C375.95,516.17,376.32,516.09,376.67,515.96z"/>
		<path class="st1" d="M432.49,487.57c-0.4-0.9-0.8-1.8-1.2-2.7c0.36-1.62,1.98-1.83,3.06-2.48c5.42-3.26,10.96-6.32,16.46-9.45
			c2.04,0.41,1.36,2.03,1.47,3.3c-1.56,1.67-3.67,2.52-5.52,3.76c-4.22,2.36-8.4,4.8-12.55,7.27
			C433.67,487.59,433.15,488.01,432.49,487.57z"/>
		<path class="st35" d="M414.84,487.71c-0.47-1.56,0.43-2.58,2.01-3.37c1.83-0.92,3.59-2,5.36-3.04c0.9-0.53,1.4-0.44,1.33,0.73
			c0,0.06-0.01,0.13,0,0.19c0.53,2.86-0.41,4.87-3.22,6c-1.31,0.53-2.48,1.41-3.72,2.13c-1.53,0.89-1.71,0.78-1.75-1.04
			C414.83,488.87,414.84,488.43,414.84,487.71z"/>
		<path class="st45" d="M368.85,536.85c0.52,1.61-0.49,2.62-2.1,3.45c-1.71,0.87-3.3,1.97-4.96,2.93c-1.08,0.62-1.73,0.48-1.61-0.99
			c0.07-0.8,0.08-1.62,0.01-2.42c-0.11-1.18,0.51-1.87,1.43-2.38c1.83-1.03,3.67-2.04,5.5-3.06c0.47-0.26,0.93-0.87,1.47-0.54
			c0.52,0.32,0.21,1.02,0.25,1.56C368.87,535.76,368.85,536.14,368.85,536.85z"/>
		<path class="st45" d="M360.19,516.07c0-1.88,0.02-3.35-0.01-4.82c-0.01-0.83,0.52-1.22,1.12-1.57c2.15-1.24,4.33-2.43,6.46-3.7
			c0.87-0.52,1.1-0.22,1.1,0.63c0,1.18-0.01,2.36-0.01,3.54c0,0.46-0.13,0.85-0.55,1.1C365.7,512.78,363.11,514.33,360.19,516.07z"
			/>
		<path class="st35" d="M368.87,515.51c0.61,1.88-0.72,2.85-2.38,3.72c-1.64,0.86-3.22,1.84-4.82,2.78
			c-0.95,0.55-1.52,0.46-1.48-0.81c0.03-0.99,0.04-1.98,0.01-2.98c-0.03-0.77,0.27-1.33,0.91-1.7c2.2-1.26,4.43-2.48,6.63-3.75
			c0.97-0.56,1.18-0.14,1.14,0.77C368.84,514.11,368.87,514.66,368.87,515.51z"/>
		<path class="st46" d="M360.18,533.9c-0.6-1.88,0.63-2.88,2.35-3.73c1.72-0.85,3.34-1.9,4.99-2.88c0.87-0.52,1.4-0.46,1.33,0.73
			c-0.02,0.43-0.06,0.88,0.01,1.3c0.38,2.23-0.46,3.58-2.64,4.39c-1.49,0.56-2.8,1.59-4.19,2.4c-0.51,0.3-1.02,0.98-1.63,0.57
			c-0.46-0.31-0.18-1.05-0.22-1.59C360.16,534.79,360.18,534.47,360.18,533.9z"/>
		<path class="st47" d="M423.53,477.1c0.62,1.84-0.65,2.86-2.32,3.73c-1.7,0.89-3.37,1.87-5.02,2.86c-0.87,0.52-1.39,0.55-1.35-0.67
			c0.01-0.25,0.03-0.5-0.01-0.74c-0.54-2.76,0.64-4.4,3.22-5.37c1.26-0.48,2.36-1.35,3.54-2.05c1.78-1.05,1.92-0.98,1.94,1.01
			C423.53,476.17,423.53,476.48,423.53,477.1z"/>
		<path class="st48" d="M396.2,493.02c0.43,1.47-0.35,2.54-1.94,3.34c-1.88,0.94-3.68,2.06-5.5,3.12c-0.81,0.47-1.27,0.41-1.24-0.66
			c0.02-1.06,0.02-2.11-0.01-3.17c-0.03-0.96,0.56-1.56,1.29-1.89c1.99-0.9,3.73-2.2,5.63-3.25c1.7-0.94,1.78-0.9,1.78,1.06
			C396.2,491.95,396.2,492.33,396.2,493.02z"/>
		<path class="st38" d="M396.2,499.93c0.43,1.58-0.48,2.6-2.2,3.38c-1.69,0.76-3.27,1.78-4.84,2.78c-1.39,0.89-1.56,0.33-1.69-1.02
			c-0.24-2.53,0.28-4.44,2.9-5.47c1.49-0.59,2.86-1.51,4.24-2.35c1.33-0.81,1.75-0.41,1.6,1.02
			C396.17,498.7,396.2,499.14,396.2,499.93z"/>
		<path class="st45" d="M368.61,540.37c0.14,0.35,0.17,0.41,0.18,0.47c0.69,3.43-0.08,6.02-3.77,7.25
			c-1.27,0.42-2.36,1.36-3.54,2.05c-0.84,0.49-1.28,0.28-1.28-0.73c0.01-1.12,0-2.24,0-3.36c0-0.46,0.14-0.88,0.55-1.12
			C363.32,543.43,365.89,541.94,368.61,540.37z"/>
		<path class="st6" d="M411.85,478.18c0.01,0.79-0.53,1.27-1.1,1.62c-1.63,1.01-3.3,1.95-4.97,2.89c-0.4,0.23-0.93,0.62-1.28-0.02
			c-0.26-0.47-0.13-1.05,0.32-1.34c2.04-1.29,4.09-2.55,6.17-3.76C411.48,477.3,411.81,477.62,411.85,478.18z"/>
		<path class="st6" d="M411.87,492.17c-0.11,0.8-0.72,1.29-1.36,1.64c-1.53,0.83-3.08,1.62-4.5,2.63c-0.43,0.31-1.01,0.69-1.45-0.02
			c-0.38-0.62,0-1.13,0.47-1.43c1.94-1.21,3.9-2.38,5.89-3.51C411.52,491.13,411.84,491.5,411.87,492.17z"/>
		<path class="st6" d="M411.85,488.59c-0.02,0.84-0.51,1.22-1.05,1.54c-1.8,1.06-3.61,2.1-5.41,3.15c-0.29,0.17-0.59,0.29-0.82-0.02
			c-0.3-0.39-0.27-0.9,0.06-1.2c1.9-1.7,4.12-2.93,6.4-4.03C411.53,487.79,411.83,488.17,411.85,488.59z"/>
		<path class="st6" d="M411.82,481.72c-0.06,0.62-0.38,0.94-0.73,1.18c-1.75,1.18-3.47,2.4-5.41,3.26c-0.4,0.18-0.87,0.43-1.16-0.06
			c-0.27-0.47-0.17-1.03,0.31-1.33c1.96-1.2,3.92-2.39,5.92-3.52C411.22,481,411.74,481.15,411.82,481.72z"/>
		<path class="st6" d="M405.06,489.75c-0.27,0.02-0.49-0.09-0.58-0.35c-0.16-0.45-0.11-0.94,0.29-1.18c2.01-1.2,4.05-2.35,6.09-3.51
			c0.28-0.16,0.61-0.21,0.84,0.09c0.25,0.32,0.19,0.7,0.03,1.05C411.45,486.43,405.7,489.78,405.06,489.75z"/>
		<path class="st49" d="M371.45,528.19c0.15-1.42,1.46-2.94,2.38-2.69c0.76,0.21,1.06,0.81,0.97,1.6c-0.16,1.34-1.52,2.85-2.44,2.68
			C371.46,529.6,371.41,528.92,371.45,528.19z"/>
		<path class="st50" d="M374.82,538.95c-0.07,1.36-1.49,3.2-2.28,3.09c-0.81-0.11-1.17-0.72-1.06-1.47c0.2-1.35,0.77-2.55,2.29-2.76
			C374.69,537.67,374.82,538.45,374.82,538.95z"/>
		<path class="st51" d="M402.14,495.19c-0.11,1.4-1.57,3.21-2.35,3.04c-0.76-0.17-1.09-0.74-1.01-1.53
			c0.14-1.32,1.43-2.85,2.35-2.74C402.04,494.05,402.17,494.69,402.14,495.19z"/>
		<path class="st52" d="M371.44,534.63c0.09-1.59,1.4-3.06,2.41-2.95c0.83,0.09,0.96,0.67,0.95,1.34c-0.02,1.25-1.34,2.85-2.3,2.81
			C371.54,535.79,371.46,535.11,371.44,534.63z"/>
		<path class="st53" d="M401.23,487.9c0.75,0.07,0.94,0.68,0.91,1.43c-0.05,1.24-1.42,2.76-2.42,2.66
			c-0.82-0.08-0.94-0.67-0.93-1.34C398.8,489.4,400.1,487.85,401.23,487.9z"/>
		<path class="st54" d="M429.45,473.49c0,1.19-1.39,2.82-2.37,2.75c-0.7-0.05-0.94-0.5-0.95-1.14c-0.03-1.25,1.16-2.91,2.15-2.94
			C429.19,472.14,429.47,472.69,429.45,473.49z"/>
		<path class="st55" d="M373.99,509.57c0.56,0.66,0.87,1.44,1.11,2.26c-0.79,0.24-0.96,1.09-1.53,1.56
			c-0.47,0.38-0.86,0.71-1.48,0.37c-0.67-0.37-0.74-0.98-0.55-1.61C371.91,510.88,372.69,509.97,373.99,509.57z"/>
		<path class="st56" d="M374.43,505.93c-0.49-0.26-0.89-1.06-1.55-0.46c-0.76,0.7,0.03,1.48,0.03,2.22
			c-1.38,0.24-1.61-0.57-1.44-1.65c0.21-1.38,1.66-2.74,2.6-2.38C375.37,504.15,374.81,505.09,374.43,505.93z"/>
		<path class="st35" d="M360.16,561.82c-0.52-1.73,0.62-2.73,2.28-3.56c1.66-0.82,3.23-1.82,4.83-2.77c1.07-0.64,1.5-0.65,1.64,0.86
			c0.26,2.78-0.39,4.78-3.24,5.81c-1.32,0.48-2.48,1.39-3.72,2.08c-0.47,0.26-0.92,0.86-1.48,0.55c-0.56-0.31-0.25-1.01-0.31-1.54
			C360.13,562.88,360.16,562.51,360.16,561.82z"/>
		<path class="st57" d="M368.85,564.91c0.61,1.78-0.66,2.7-2.28,3.52c-1.71,0.87-3.35,1.89-5,2.87c-1.04,0.62-1.28,0.31-1.43-0.85
			c-0.37-2.92,0.33-5.01,3.4-6.02c1.33-0.44,2.54-1.3,3.72-2.09c1.34-0.9,1.71-0.47,1.6,0.95
			C368.82,563.72,368.85,564.16,368.85,564.91z"/>
		<path class="st46" d="M368.86,571.59c0.49,1.7-0.42,2.78-2.22,3.59c-1.68,0.76-3.19,1.91-4.81,2.82
			c-0.95,0.54-1.79,0.71-1.66-0.91c0.07-0.87,0.07-1.75,0.02-2.61c-0.05-0.93,0.33-1.52,1.13-1.96c2.01-1.11,4.05-2.18,6-3.39
			c1.48-0.92,1.66-0.28,1.54,1.03C368.83,570.53,368.86,570.91,368.86,571.59z"/>
		<path class="st58" d="M374.79,554.94c-0.02,1.04-1.45,2.91-2.24,2.83c-0.8-0.08-1.11-0.65-1.13-1.43
			c-0.02-1.32,1.32-2.96,2.37-2.86C374.71,553.56,374.82,554.2,374.79,554.94z"/>
		<path class="st59" d="M371.44,562.55c0.14-1.51,1.51-2.98,2.48-2.81c0.8,0.14,0.91,0.73,0.88,1.4c-0.07,1.26-1.43,2.85-2.37,2.74
			C371.51,563.77,371.42,563.1,371.44,562.55z"/>
		<path class="st60" d="M374.79,567.49c-0.37,1.06-0.79,2.28-2.27,2.41c-0.88,0.08-1.11-0.62-1.04-1.39c0.11-1.3,1.44-2.82,2.39-2.7
			C374.77,565.93,374.84,566.63,374.79,567.49z"/>
		<path class="st1" d="M432.49,487.57c3.22-1.82,6.43-3.66,9.67-5.45c1.5-0.83,2.87-1.91,4.53-2.44c1.5-0.43,3.14-0.5,4.25-1.87
			c0.31-0.39,0.88-0.4,1.33,0c-0.74,1.08-0.04,2.14-0.01,3.22c0.1,5.4,0.05,10.79,0.04,16.19c0,0.53,0.13,1.06-0.85,1
			c-0.91-0.06-1.88,0.46-2.06,1.47c-0.27,1.48,1.4,0.57,1.8,1.3c-1.04,1.11-2.4,1.78-3.71,2.45c-2.83,1.46-5.46,3.26-8.27,4.74
			c-0.58,0.31-1.05,0.94-1.84,0.64c-0.81-3.11-0.94-6.34-1.6-9.49C434.91,495.34,433.65,491.47,432.49,487.57z"/>
		<path class="st1" d="M414.98,583.69c-0.03,0.03-0.07,0.07-0.1,0.12c-0.02-0.02-0.03-0.02-0.05-0.03
			C414.88,583.74,414.93,583.71,414.98,583.69z"/>
		<path class="st1" d="M418.83,581.24c-0.02,0.02-0.03,0.02-0.05,0.03c-0.07-0.03-0.14-0.09-0.2-0.14
			C418.66,581.18,418.74,581.21,418.83,581.24z"/>
		<path class="st1" d="M428.96,575.24c-0.05,0.02-0.08,0.05-0.12,0.07c-0.03-0.07-0.08-0.15-0.14-0.22
			C428.79,575.14,428.87,575.18,428.96,575.24z"/>
		<path class="st1" d="M434.9,571.67c-0.19,0.1-0.37,0.2-0.56,0.32c-0.12-0.08-0.25-0.15-0.37-0.22
			C434.31,571.54,434.62,571.55,434.9,571.67z"/>
		<path class="st61" d="M418.83,581.24c-0.02,0.02-0.03,0.02-0.05,0.03c-0.07-0.03-0.14-0.09-0.2-0.14
			C418.66,581.18,418.74,581.21,418.83,581.24z"/>
		<path class="st61" d="M428.96,575.24c-0.05,0.02-0.08,0.05-0.12,0.07c-0.03-0.07-0.08-0.15-0.14-0.22
			C428.79,575.14,428.87,575.18,428.96,575.24z"/>
		<path class="st6" d="M434.9,571.67c-0.19,0.1-0.37,0.2-0.56,0.32c-0.12-0.08-0.25-0.15-0.37-0.22
			C434.31,571.54,434.62,571.55,434.9,571.67z"/>
		<path class="st6" d="M345.51,438.28c2.33-1.36,4.52-2.64,6.71-3.91c8.73-5.08,17.47-10.14,26.18-15.25c1.09-0.64,1.89-0.67,3.03,0
			c13.68,7.97,27.4,15.87,41.1,23.8c0.47,0.27,1.25,0.37,1.25,0.99c0,0.6-0.76,0.74-1.23,1.01c-10.55,6.15-21.12,12.29-31.66,18.46
			c-0.78,0.46-1.41,0.51-2.23,0.03c-14.02-8.13-28.05-16.24-42.08-24.36C346.27,438.88,345.99,438.63,345.51,438.28z"/>
		<path class="st6" d="M377.45,471.1c-1.84,1.08-3.53,2.08-5.23,3.06c-9.27,5.38-18.54,10.75-27.79,16.16
			c-0.96,0.56-1.68,0.64-2.71,0.04c-13.9-8.08-27.82-16.11-41.76-24.11c-1.3-0.74-0.95-1.02,0.09-1.62
			c10.63-6.14,21.24-12.31,31.83-18.51c0.91-0.53,1.62-0.63,2.56-0.08c14.06,8.16,28.15,16.29,42.23,24.43
			C376.86,470.6,377.04,470.77,377.45,471.1z"/>
		<path class="st6" d="M374.94,415.57c-8.76,5.09-17.26,10.04-25.77,14.98c-2.48,1.44-4.99,2.83-7.42,4.35
			c-0.95,0.6-1.65,0.49-2.55-0.04c-7.48-4.36-14.98-8.69-22.49-13c-1.07-0.62-1.47-0.99-0.08-1.79
			c10.63-6.13,21.24-12.31,31.85-18.48c0.71-0.41,1.34-0.71,2.23-0.2c7.85,4.59,15.73,9.13,23.6,13.68
			C374.47,415.16,374.6,415.3,374.94,415.57z"/>
		<path class="st6" d="M268.68,447.95c6.26-3.64,12.29-7.15,18.32-10.66c4.9-2.85,9.83-5.66,14.69-8.58
			c1.02-0.61,1.74-0.54,2.71,0.02c7.38,4.3,14.79,8.54,22.18,12.81c1.79,1.03,1.79,1.06-0.04,2.12
			c-10.4,6.05-20.81,12.09-31.21,18.14c-0.89,0.52-1.66,0.84-2.74,0.21c-7.69-4.51-15.42-8.95-23.13-13.41
			C269.26,448.5,269.09,448.31,268.68,447.95z"/>
		<path class="st1" d="M379.39,517.9c2.24-0.33,3.94-1.81,5.8-2.86c5.93-3.36,11.75-6.92,17.66-10.34
			c8.84-5.11,17.72-10.17,26.58-15.25c0.47-0.27,1.07-0.41,1.19-1.07c2.71,6.96,4.23,14.17,4.78,21.61
			c-1.05,1.19-2.45,1.88-3.79,2.65c-7.67,4.46-15.4,8.83-23.07,13.31c-0.6,0.35-0.99,0.94-1.59,1.27c-1.37-2.84-2.63-5.74-4.44-8.35
			c-0.31-0.44-0.46-1.01-0.64-1.53c-0.17-0.47,0.07-1.38-0.76-1.21c-1.18,0.24-1.79,1.26-2.15,2.34c-0.21,0.61,0.17,1.42,0.64,1.31
			c1.66-0.37,1.68,1.07,2.33,1.83c-0.19,1.03-1.37,0.93-1.86,1.64c-0.39,0.56-0.85,1.09-0.66,1.83c0.09,0.35,0.4,0.46,0.73,0.42
			c0.8-0.1,1.06-0.72,1.34-1.36c0.27-0.62,0.01-1.55,0.97-1.79c0.87,1.74,1.92,3.39,2.53,5.25c-1.7,1.79-3.98,2.7-6.05,3.91
			c-4.44,2.6-8.96,5.09-13.4,7.7c-0.74,0.44-1.4,1.36-2.48,0.71c-0.61-4.49-1.25-8.99-1.84-13.48
			C380.83,523.54,380.01,520.74,379.39,517.9z"/>
		<path class="st1" d="M434.75,538.76c-0.46-0.45-0.76-0.03-1.13,0.18c-7.37,4.25-14.74,8.5-22.11,12.74
			c-0.21,0.12-0.46,0.15-0.7,0.23c0.15-6.74-0.74-13.35-2.37-19.88c-0.21-0.84-0.43-1.68-0.64-2.51c4.21-2.53,8.52-4.89,12.76-7.36
			c4.51-2.63,9.03-5.25,13.55-7.88c0.52-0.3,0.99-0.8,1.69-0.49c0.64,2.48,0.5,5.03,0.56,7.55c0.04,1.72-0.09,3.44-0.11,5.15
			C436.22,530.63,435.52,534.7,434.75,538.76z"/>
		<path class="st1" d="M435.79,513.78c-8.51,4.93-17.01,9.87-25.55,14.76c-0.74,0.43-1.36,1.35-2.45,0.98
			c-0.28-0.77-0.57-1.54-0.85-2.31c0.17-1.93,2.06-2.05,3.2-2.73c8.18-4.89,16.46-9.59,24.72-14.35c0.16-0.09,0.35-0.1,0.53-0.15
			C435.53,511.25,435.66,512.51,435.79,513.78z"/>
		<path class="st4" d="M408.46,553.43c-4.34,2.53-8.67,5.06-13.02,7.58c-4.35,2.52-8.7,5.04-13.05,7.55
			c-0.59,0.34-1.21,0.62-1.81,0.92c0.65-5.49,1.92-10.9,2.26-16.42c0.2-3.1,0.21-6.22,0.3-9.33c5.78-3.43,11.73-6.55,17.41-10.14
			c1.78-1.12,3.85-1.77,5.37-3.32C408.21,537.83,409.75,545.47,408.46,553.43z"/>
		<path class="st1" d="M405.92,530.26c-0.03,0.75-0.4,1.11-1.1,1.51c-6.58,3.74-13.1,7.59-19.65,11.36
			c-0.6,0.34-1.18,1.01-2.03,0.58c-0.03-1.26-0.06-2.53-0.09-3.79c2.9-1.24,5.45-3.09,8.2-4.6c4.6-2.54,9.15-5.15,13.72-7.73
			C405.29,528.49,405.61,529.37,405.92,530.26z"/>
		<path class="st62" d="M402.45,522.35c-0.25,0.88-0.41,1.79-0.76,2.62c-0.44,1.07-1.43,1.53-2.41,1.02
			c-0.95-0.49-0.52-1.42-0.2-2.26c0.51-1.35,1.78-1.58,2.84-2.12C402.1,521.85,402.27,522.1,402.45,522.35z"/>
		<path class="st45" d="M387.48,517.98c-0.63-1.91,0.78-2.89,2.53-3.76c1.61-0.8,3.19-1.69,4.72-2.64c1.02-0.64,1.47-0.54,1.44,0.72
			c0,0.06-0.01,0.13,0,0.19c0.52,2.88-0.44,4.86-3.31,5.91c-1.27,0.46-2.39,1.31-3.58,1.99c-0.47,0.27-0.9,0.87-1.47,0.6
			c-0.61-0.29-0.27-1-0.33-1.53C387.45,519.1,387.48,518.72,387.48,517.98z"/>
		<path class="st57" d="M414.85,502.31c-0.58-1.71,0.45-2.78,2.15-3.63c1.66-0.83,3.24-1.84,4.83-2.8c1.26-0.76,1.82-0.47,1.7,1.03
			c-0.04,0.49-0.04,1,0.01,1.49c0.17,1.59-0.31,2.64-1.92,3.34c-1.81,0.79-3.5,1.89-5.14,3c-1.48,1-1.78,0.47-1.64-1
			C414.88,503.37,414.85,503,414.85,502.31z"/>
		<path class="st63" d="M414.84,508.99c-0.57-1.76,0.53-2.73,2.27-3.52c1.74-0.79,3.34-1.89,4.99-2.86
			c0.99-0.58,1.49-0.38,1.43,0.84c-0.04,0.81-0.06,1.62,0.02,2.42c0.11,1.14-0.36,1.84-1.36,2.38c-1.86,0.99-3.65,2.1-5.48,3.15
			c-0.51,0.29-1,0.99-1.62,0.6c-0.48-0.31-0.2-1.04-0.25-1.58C414.81,510.04,414.84,509.67,414.84,508.99z"/>
		<path class="st64" d="M387.49,524.78c-0.54-1.72,0.53-2.7,2.27-3.5c1.74-0.8,3.35-1.88,4.98-2.88c1.16-0.71,1.32-0.33,1.49,0.89
			c0.41,2.93-0.5,4.87-3.38,5.92c-1.26,0.46-2.36,1.37-3.55,2.04c-1.72,0.97-1.81,0.91-1.82-1.01
			C387.49,525.86,387.49,525.48,387.49,524.78z"/>
		<path class="st48" d="M414.84,515.8c-0.63-1.79,0.66-2.7,2.28-3.52c1.6-0.82,3.14-1.76,4.66-2.71c1.18-0.73,1.67-0.87,1.83,0.92
			c0.24,2.76-0.43,4.64-3.22,5.63c-1.33,0.47-2.49,1.39-3.73,2.1c-0.47,0.27-0.95,0.81-1.49,0.55c-0.6-0.29-0.24-1-0.32-1.53
			C414.79,516.88,414.84,516.5,414.84,515.8z"/>
		<path class="st48" d="M396.19,527.73c0.5,1.83-0.52,2.92-2.38,3.71c-1.59,0.68-3.01,1.75-4.53,2.58c-1.7,0.92-1.74,0.87-1.74-1.14
			c0-0.75,0.02-1.5-0.02-2.24c-0.04-0.92,0.38-1.52,1.16-1.95c1.95-1.09,3.93-2.15,5.82-3.33c1.35-0.84,1.88-0.66,1.7,0.98
			C396.16,526.71,396.19,527.09,396.19,527.73z"/>
		<path class="st65" d="M426.12,503.12c0.03-1.4,1.55-3.24,2.45-3.12c0.81,0.11,0.98,0.75,0.86,1.4c-0.23,1.34-0.73,2.6-2.23,2.89
			C426.3,504.46,426.13,503.68,426.12,503.12z"/>
		<path class="st66" d="M429.48,495.41c-0.14,1.36-0.85,2.34-2.2,2.6c-0.85,0.16-1.22-0.53-1.15-1.32c0.11-1.35,0.75-2.43,2.12-2.73
			C429.21,493.75,429.49,494.53,429.48,495.41z"/>
		<path class="st67" d="M429.47,507.51c-0.09,1.53-1.37,2.98-2.39,2.87c-0.95-0.11-1.06-0.82-0.92-1.52
			c0.26-1.26,0.81-2.42,2.27-2.59C429.36,506.17,429.48,506.95,429.47,507.51z"/>
		<path class="st68" d="M398.78,512.45c0.07-1.26,1.41-2.83,2.38-2.76c0.82,0.06,0.98,0.64,0.97,1.33
			c-0.02,1.27-1.28,2.82-2.29,2.82C398.87,513.84,398.72,513.22,398.78,512.45z"/>
		<path class="st37" d="M414.84,537.16c-0.41-1.64,0.33-2.79,2.18-3.59c1.8-0.78,3.44-1.95,5.13-2.99c0.95-0.59,1.37-0.35,1.37,0.74
			c0,0.06-0.01,0.13,0,0.19c0.51,2.92-0.35,4.97-3.4,5.96c-1.26,0.41-2.34,1.37-3.51,2.07c-0.46,0.28-0.91,0.86-1.47,0.57
			c-0.58-0.3-0.24-1.01-0.3-1.53C414.81,538.2,414.84,537.82,414.84,537.16z"/>
		<path class="st35" d="M414.84,543.87c-0.59-1.87,0.73-2.8,2.43-3.63c1.66-0.82,3.23-1.84,4.83-2.78c0.9-0.52,1.54-0.58,1.44,0.77
			c-0.01,0.12-0.02,0.25,0,0.37c0.52,2.66-0.41,4.48-2.99,5.53c-1.36,0.56-2.59,1.43-3.89,2.15c-1.76,0.97-1.8,0.95-1.82-0.99
			C414.84,544.93,414.84,544.55,414.84,543.87z"/>
		<path class="st45" d="M414.84,530.32c-0.51-1.71,0.48-2.74,2.12-3.55c1.78-0.88,3.47-1.94,5.19-2.95
			c0.93-0.55,1.27-0.36,1.39,0.75c0.29,2.68-0.05,4.85-3.07,5.89c-1.44,0.49-2.7,1.51-4.01,2.34c-1.22,0.77-1.78,0.59-1.62-0.95
			C414.88,531.43,414.84,530.99,414.84,530.32z"/>
		<path class="st69" d="M426.13,530.85c0.11-1.25,1.49-2.88,2.36-2.74c0.85,0.14,1.13,0.76,0.94,1.51c-0.32,1.29-0.8,2.6-2.37,2.72
			C426.14,532.41,426.12,531.56,426.13,530.85z"/>
		<path class="st70" d="M429.46,535.79c-0.11,1.34-1.45,2.84-2.43,2.67c-0.79-0.13-0.94-0.7-0.9-1.39c0.07-1.33,1.34-2.85,2.34-2.76
			C429.41,534.38,429.51,535.04,429.46,535.79z"/>
		<path class="st71" d="M429.38,523.88c-0.32,0.91-0.77,2.14-2.28,2.21c-0.88,0.04-1.04-0.75-1-1.49c0.07-1.25,1.36-2.64,2.35-2.51
			C429.3,522.21,429.59,522.76,429.38,523.88z"/>
		<path class="st35" d="M396.19,548.89c0.64,1.99-0.59,3.07-2.53,3.93c-1.7,0.75-3.26,1.8-4.86,2.76c-0.98,0.59-1.33,0.34-1.3-0.76
			c0.03-0.93,0.07-1.88-0.02-2.8c-0.1-1.02,0.34-1.62,1.18-2.09c1.9-1.06,3.77-2.17,5.66-3.25c1.74-1,1.87-0.93,1.87,1.15
			C396.19,548.07,396.19,548.32,396.19,548.89z"/>
		<path class="st72" d="M396.18,538.84c0,1.86,0.02,3.4-0.01,4.93c-0.01,0.71-0.54,1.07-1.1,1.38c-2.11,1.2-4.23,2.36-6.3,3.62
			c-1.03,0.62-1.33,0.34-1.27-0.73c0-0.06,0.01-0.13,0-0.19c-0.54-2.95,0.45-4.94,3.39-6.06
			C392.64,541.11,394.21,539.96,396.18,538.84z"/>
		<path class="st36" d="M396.21,555.9c0.64,1.85-0.7,2.77-2.42,3.61c-1.73,0.85-3.35,1.91-5.02,2.89c-0.8,0.47-1.28,0.4-1.25-0.68
			c0.03-1.12,0.03-2.25,0-3.37c-0.02-0.73,0.34-1.12,0.94-1.46c1.96-1.09,3.89-2.22,5.83-3.34c0.53-0.31,1.09-0.89,1.68-0.52
			c0.49,0.3,0.19,1.04,0.23,1.58C396.23,554.91,396.21,555.23,396.21,555.9z"/>
		<path class="st73" d="M402.16,551.57c-0.1,1.12-1.58,2.98-2.33,2.82c-0.87-0.18-1.11-0.88-1.05-1.7c0.1-1.32,1.43-2.77,2.41-2.62
			C402.07,550.2,402.22,550.82,402.16,551.57z"/>
		<path class="st74" d="M402.13,545.19c-0.05,1.41-1.28,2.97-2.34,2.92c-0.94-0.04-1.04-0.71-1.01-1.44c0.05-1.19,1.61-3,2.48-2.88
			C402.05,543.91,402.15,544.53,402.13,545.19z"/>
		<path class="st75" d="M398.78,540.51c0.03-1.27,1.34-2.85,2.32-2.78c0.8,0.06,1.02,0.6,1.02,1.29c0.01,1.24-1.24,2.86-2.25,2.87
			C398.94,541.9,398.76,541.28,398.78,540.51z"/>
		<path class="st76" d="M256.92,567.9c6.68,3.88,13.36,7.73,20.04,11.59c-6.68-3.86-13.36-7.72-20.04-11.57
			c-0.7-0.41-1.41-0.82-2.12-1.22C255.5,567.08,256.22,567.49,256.92,567.9z"/>
		<path class="st76" d="M354.22,612.92c-0.05-0.05-0.12-0.1-0.19-0.19l0.24-0.14c0.03,0.08,0.05,0.17,0.05,0.25v0.02
			c0,0.02,0.02,0.03,0,0.05H354.22z"/>
		<path class="st76" d="M414.98,583.69c-0.03,0.03-0.07,0.07-0.1,0.12c-0.02-0.02-0.03-0.02-0.05-0.03
			C414.88,583.74,414.93,583.71,414.98,583.69z"/>
		<path class="st76" d="M418.83,581.24c-0.02,0.02-0.03,0.02-0.05,0.03c-0.07-0.03-0.14-0.09-0.2-0.14
			C418.66,581.18,418.74,581.21,418.83,581.24z"/>
		<path class="st76" d="M428.96,575.24c-0.05,0.02-0.08,0.05-0.12,0.07c-0.03-0.07-0.08-0.15-0.14-0.22
			C428.79,575.14,428.87,575.18,428.96,575.24z"/>
		<path class="st76" d="M434.9,571.67c-0.19,0.1-0.37,0.2-0.56,0.32c-0.12-0.08-0.25-0.15-0.37-0.22
			C434.31,571.54,434.62,571.55,434.9,571.67z"/>
	</g>
</g>
</svg>
